G04 Layer: TopSolderMaskLayer*
G04 EasyEDA v6.4.19.5, 2021-06-03T21:19:05--4:00*
G04 414059cc890b428caf1b09701b66df98,e10cd4278cfb41548d653a77c6d3a388,10*
G04 Gerber Generator version 0.2*
G04 Scale: 100 percent, Rotated: No, Reflected: No *
G04 Dimensions in millimeters *
G04 leading zeros omitted , absolute positions ,4 integer and 5 decimal *
%FSLAX45Y45*%
%MOMM*%

%ADD15C,1.9016*%
%ADD16C,1.7272*%

%LPD*%
D15*
X4609233Y-4907000D02*
G01*
X4369234Y-4907000D01*
X4379234Y-5506999D02*
G01*
X4599233Y-5506999D01*
X4959565Y-5317025D02*
G01*
X4959565Y-5097025D01*
D16*
G01*
X203200Y-1219200D03*
G01*
X203200Y-1473200D03*
G01*
X203200Y-1727200D03*
G01*
X203200Y-1981200D03*
G01*
X203200Y-2235200D03*
G01*
X203200Y-2489200D03*
G01*
X203200Y-2743200D03*
G01*
X203200Y-2997200D03*
G01*
X203200Y-3251200D03*
G01*
X203200Y-3505200D03*
G01*
X203200Y-3759200D03*
G01*
X203200Y-4013200D03*
G01*
X203200Y-4267200D03*
G01*
X203200Y-4521200D03*
G01*
X203200Y-4775200D03*
G01*
X2743200Y-1219200D03*
G01*
X2743200Y-1473200D03*
G01*
X2743200Y-1727200D03*
G01*
X2743200Y-1981200D03*
G01*
X2743200Y-2235200D03*
G01*
X2743200Y-2489200D03*
G01*
X2743200Y-2743200D03*
G01*
X2743200Y-2997200D03*
G01*
X2743200Y-3251200D03*
G01*
X2743200Y-3505200D03*
G01*
X2743200Y-3759200D03*
G01*
X2743200Y-4013200D03*
G01*
X2743200Y-4267200D03*
G01*
X2743200Y-4521200D03*
G01*
X2743200Y-4775200D03*
G01*
X3263900Y-1206500D03*
G01*
X3263900Y-1460500D03*
G01*
X3263900Y-1714500D03*
G01*
X3263900Y-1968500D03*
G01*
X3263900Y-2222500D03*
G01*
X3263900Y-2476500D03*
G01*
X3263900Y-2730500D03*
G01*
X3263900Y-2984500D03*
G01*
X3263900Y-3238500D03*
G01*
X3263900Y-3492500D03*
G01*
X3263900Y-3746500D03*
G01*
X3263900Y-4000500D03*
G01*
X3263900Y-4254500D03*
G01*
X3263900Y-4508500D03*
G01*
X3263900Y-4762500D03*
G01*
X5803900Y-1206500D03*
G01*
X5803900Y-1460500D03*
G01*
X5803900Y-1714500D03*
G01*
X5803900Y-1968500D03*
G01*
X5803900Y-2222500D03*
G01*
X5803900Y-2476500D03*
G01*
X5803900Y-2730500D03*
G01*
X5803900Y-2984500D03*
G01*
X5803900Y-3238500D03*
G01*
X5803900Y-3492500D03*
G01*
X5803900Y-3746500D03*
G01*
X5803900Y-4000500D03*
G01*
X5803900Y-4254500D03*
G01*
X5803900Y-4508500D03*
G01*
X5803900Y-4762500D03*
G01*
X6362700Y-1193800D03*
G01*
X6362700Y-1447800D03*
G01*
X6362700Y-1701800D03*
G01*
X6362700Y-1955800D03*
G01*
X6362700Y-2209800D03*
G01*
X6362700Y-2463800D03*
G01*
X6362700Y-2717800D03*
G01*
X6362700Y-2971800D03*
G01*
X6362700Y-3225800D03*
G01*
X6362700Y-3479800D03*
G01*
X6362700Y-3733800D03*
G01*
X6362700Y-3987800D03*
G01*
X6362700Y-4241800D03*
G01*
X6362700Y-4495800D03*
G01*
X6362700Y-4749800D03*
G01*
X8902700Y-1193800D03*
G01*
X8902700Y-1447800D03*
G01*
X8902700Y-1701800D03*
G01*
X8902700Y-1955800D03*
G01*
X8902700Y-2209800D03*
G01*
X8902700Y-2463800D03*
G01*
X8902700Y-2717800D03*
G01*
X8902700Y-2971800D03*
G01*
X8902700Y-3225800D03*
G01*
X8902700Y-3479800D03*
G01*
X8902700Y-3733800D03*
G01*
X8902700Y-3987800D03*
G01*
X8902700Y-4241800D03*
G01*
X8902700Y-4495800D03*
G01*
X8902700Y-4749800D03*
G01*
X9423400Y-1219200D03*
G01*
X9423400Y-1473200D03*
G01*
X9423400Y-1727200D03*
G01*
X9423400Y-1981200D03*
G01*
X9423400Y-2235200D03*
G01*
X9423400Y-2489200D03*
G01*
X9423400Y-2743200D03*
G01*
X9423400Y-2997200D03*
G01*
X9423400Y-3251200D03*
G01*
X9423400Y-3505200D03*
G01*
X9423400Y-3759200D03*
G01*
X9423400Y-4013200D03*
G01*
X9423400Y-4267200D03*
G01*
X9423400Y-4521200D03*
G01*
X9423400Y-4775200D03*
G01*
X11963400Y-1219200D03*
G01*
X11963400Y-1473200D03*
G01*
X11963400Y-1727200D03*
G01*
X11963400Y-1981200D03*
G01*
X11963400Y-2235200D03*
G01*
X11963400Y-2489200D03*
G01*
X11963400Y-2743200D03*
G01*
X11963400Y-2997200D03*
G01*
X11963400Y-3251200D03*
G01*
X11963400Y-3505200D03*
G01*
X11963400Y-3759200D03*
G01*
X11963400Y-4013200D03*
G01*
X11963400Y-4267200D03*
G01*
X11963400Y-4521200D03*
G01*
X11963400Y-4775200D03*
M02*
