M48
METRIC,LZ,000.000
;FILE_FORMAT=3:3
;TYPE=PLATED
;Layer: Drill PTH
;EasyEDA v6.4.19.5, 2021-06-03T21:19:05--4:00
;414059cc890b428caf1b09701b66df98,e10cd4278cfb41548d653a77c6d3a388,10
;Gerber Generator version 0.2
;Holesize 1 = 0.915 mm
T01C0.915
;Holesize 2 = 1.000 mm
T02C1.000
%
G05
G90
T01
X002032Y-012192
X002032Y-014732
X002032Y-017272
X002032Y-019812
X002032Y-022352
X002032Y-024892
X002032Y-027432
X002032Y-029972
X002032Y-032512
X002032Y-035052
X002032Y-037592
X002032Y-040132
X002032Y-042672
X002032Y-045212
X002032Y-047752
X027432Y-012192
X027432Y-014732
X027432Y-017272
X027432Y-019812
X027432Y-022352
X027432Y-024892
X027432Y-027432
X027432Y-029972
X027432Y-032512
X027432Y-035052
X027432Y-037592
X027432Y-040132
X027432Y-042672
X027432Y-045212
X027432Y-047752
X032639Y-012065
X032639Y-014605
X032639Y-017145
X032639Y-019685
X032639Y-022225
X032639Y-024765
X032639Y-027305
X032639Y-029845
X032639Y-032385
X032639Y-034925
X032639Y-037465
X032639Y-040005
X032639Y-042545
X032639Y-045085
X032639Y-047625
X058039Y-012065
X058039Y-014605
X058039Y-017145
X058039Y-019685
X058039Y-022225
X058039Y-024765
X058039Y-027305
X058039Y-029845
X058039Y-032385
X058039Y-034925
X058039Y-037465
X058039Y-040005
X058039Y-042545
X058039Y-045085
X058039Y-047625
X063627Y-011938
X063627Y-014478
X063627Y-017018
X063627Y-019558
X063627Y-022098
X063627Y-024638
X063627Y-027178
X063627Y-029718
X063627Y-032258
X063627Y-034798
X063627Y-037338
X063627Y-039878
X063627Y-042418
X063627Y-044958
X063627Y-047498
X089027Y-011938
X089027Y-014478
X089027Y-017018
X089027Y-019558
X089027Y-022098
X089027Y-024638
X089027Y-027178
X089027Y-029718
X089027Y-032258
X089027Y-034798
X089027Y-037338
X089027Y-039878
X089027Y-042418
X089027Y-044958
X089027Y-047498
X094234Y-012192
X094234Y-014732
X094234Y-017272
X094234Y-019812
X094234Y-022352
X094234Y-024892
X094234Y-027432
X094234Y-029972
X094234Y-032512
X094234Y-035052
X094234Y-037592
X094234Y-040132
X094234Y-042672
X094234Y-045212
X094234Y-047752
X119634Y-012192
X119634Y-014732
X119634Y-017272
X119634Y-019812
X119634Y-022352
X119634Y-024892
X119634Y-027432
X119634Y-029972
X119634Y-032512
X119634Y-035052
X119634Y-037592
X119634Y-040132
X119634Y-042672
X119634Y-045212
X119634Y-047752
T02
X046142Y-049070G85X043642Y-049070
X043742Y-055070G85X046042Y-055070
X049596Y-053220G85X049596Y-050920
M30
