G04 Layer: TopSilkLayer*
G04 EasyEDA v6.4.19.5, 2021-06-03T21:19:05--4:00*
G04 414059cc890b428caf1b09701b66df98,e10cd4278cfb41548d653a77c6d3a388,10*
G04 Gerber Generator version 0.2*
G04 Scale: 100 percent, Rotated: No, Reflected: No *
G04 Dimensions in millimeters *
G04 leading zeros omitted , absolute positions ,4 integer and 5 decimal *
%FSLAX45Y45*%
%MOMM*%

%ADD10C,0.2540*%
%ADD13C,0.2032*%
%ADD14C,0.1524*%

%LPD*%
G36*
X6959600Y-3718712D02*
G01*
X6959600Y-3952087D01*
X7431938Y-3952290D01*
X7509611Y-3952697D01*
X7569352Y-3953357D01*
X7613903Y-3954322D01*
X7645958Y-3955694D01*
X7658201Y-3956558D01*
X7668361Y-3957574D01*
X7676794Y-3958691D01*
X7683804Y-3959961D01*
X7697317Y-3963263D01*
X7707680Y-3966260D01*
X7717942Y-3969613D01*
X7728102Y-3973271D01*
X7738211Y-3977284D01*
X7748168Y-3981602D01*
X7758023Y-3986276D01*
X7767777Y-3991254D01*
X7777429Y-3996537D01*
X7786979Y-4002125D01*
X7796377Y-4008018D01*
X7805623Y-4014165D01*
X7814767Y-4020667D01*
X7823809Y-4027424D01*
X7832648Y-4034434D01*
X7845653Y-4045508D01*
X7854137Y-4053230D01*
X7870647Y-4069384D01*
X7878673Y-4077868D01*
X7886496Y-4086606D01*
X7894116Y-4095546D01*
X7908899Y-4114139D01*
X7919466Y-4128668D01*
X7932826Y-4148785D01*
X7939227Y-4159148D01*
X7948422Y-4175099D01*
X7954264Y-4185920D01*
X7959902Y-4196994D01*
X7967929Y-4213860D01*
X7977784Y-4236974D01*
X7982356Y-4248810D01*
X7986674Y-4260748D01*
X7990738Y-4272838D01*
X7994548Y-4285081D01*
X7998104Y-4297476D01*
X8001406Y-4310024D01*
X8004403Y-4322673D01*
X8007146Y-4335424D01*
X8008823Y-4344568D01*
X8010296Y-4354576D01*
X8011515Y-4365294D01*
X8013395Y-4388612D01*
X8014055Y-4401058D01*
X8014716Y-4427067D01*
X8014766Y-4440478D01*
X8014512Y-4460849D01*
X8013496Y-4488129D01*
X8011718Y-4514850D01*
X8009280Y-4540453D01*
X8006181Y-4564176D01*
X8004352Y-4575149D01*
X8002371Y-4585411D01*
X8000238Y-4594860D01*
X7997393Y-4605629D01*
X7993684Y-4618228D01*
X7989620Y-4630724D01*
X7985302Y-4643069D01*
X7980680Y-4655261D01*
X7975752Y-4667351D01*
X7970520Y-4679238D01*
X7965033Y-4690973D01*
X7959293Y-4702556D01*
X7953298Y-4713935D01*
X7946999Y-4725162D01*
X7940446Y-4736185D01*
X7933690Y-4747006D01*
X7926679Y-4757623D01*
X7919466Y-4768037D01*
X7911998Y-4778197D01*
X7904327Y-4788154D01*
X7896402Y-4797907D01*
X7888325Y-4807356D01*
X7880045Y-4816602D01*
X7871612Y-4825542D01*
X7862925Y-4834280D01*
X7854137Y-4842662D01*
X7845145Y-4850841D01*
X7836001Y-4858664D01*
X7826705Y-4866233D01*
X7817256Y-4873498D01*
X7807655Y-4880457D01*
X7797952Y-4887112D01*
X7788097Y-4893411D01*
X7778140Y-4899406D01*
X7768081Y-4905044D01*
X7752791Y-4912817D01*
X7742478Y-4917592D01*
X7732064Y-4921961D01*
X7721600Y-4925974D01*
X7711033Y-4929632D01*
X7700416Y-4932883D01*
X7689748Y-4935728D01*
X7675727Y-4938826D01*
X7666126Y-4940300D01*
X7656677Y-4941316D01*
X7631988Y-4943043D01*
X7597444Y-4944364D01*
X7550759Y-4945278D01*
X7489444Y-4945938D01*
X7411212Y-4946243D01*
X6959600Y-4946497D01*
X6959600Y-5179822D01*
X7389723Y-5179720D01*
X7464552Y-5179364D01*
X7530236Y-5178806D01*
X7586218Y-5178044D01*
X7631785Y-5177078D01*
X7666431Y-5175910D01*
X7689494Y-5174589D01*
X7696453Y-5173827D01*
X7718501Y-5170271D01*
X7729474Y-5168188D01*
X7740396Y-5165852D01*
X7762036Y-5160467D01*
X7783474Y-5154218D01*
X7794091Y-5150815D01*
X7815122Y-5143296D01*
X7835900Y-5134914D01*
X7856423Y-5125770D01*
X7876641Y-5115814D01*
X7891576Y-5107787D01*
X7911185Y-5096510D01*
X7930489Y-5084419D01*
X7949387Y-5071618D01*
X7958683Y-5064963D01*
X7972450Y-5054650D01*
X7990484Y-5040274D01*
X8003743Y-5029047D01*
X8012430Y-5021376D01*
X8025231Y-5009540D01*
X8033613Y-5001463D01*
X8046008Y-4989068D01*
X8062112Y-4971948D01*
X8069986Y-4963210D01*
X8085328Y-4945227D01*
X8092795Y-4936032D01*
X8103768Y-4921961D01*
X8117890Y-4902758D01*
X8131454Y-4882997D01*
X8144459Y-4862728D01*
X8153806Y-4847234D01*
X8165693Y-4826152D01*
X8171434Y-4815433D01*
X8179765Y-4799126D01*
X8187690Y-4782566D01*
X8192770Y-4771440D01*
X8200034Y-4754524D01*
X8206994Y-4737354D01*
X8215579Y-4714189D01*
X8223503Y-4690618D01*
X8230666Y-4666691D01*
X8237067Y-4642459D01*
X8242706Y-4617872D01*
X8245246Y-4605528D01*
X8248903Y-4584344D01*
X8250428Y-4573625D01*
X8252917Y-4550613D01*
X8254847Y-4525873D01*
X8256219Y-4499813D01*
X8257184Y-4459224D01*
X8256981Y-4424934D01*
X8256422Y-4404512D01*
X8255558Y-4384446D01*
X8253425Y-4352239D01*
X8251139Y-4328109D01*
X8248243Y-4305858D01*
X8244789Y-4285894D01*
X8242452Y-4274972D01*
X8237981Y-4256024D01*
X8234730Y-4243476D01*
X8229498Y-4224832D01*
X8223808Y-4206341D01*
X8215579Y-4182008D01*
X8208924Y-4164025D01*
X8199323Y-4140352D01*
X8189061Y-4117136D01*
X8180882Y-4099966D01*
X8169402Y-4077512D01*
X8163407Y-4066489D01*
X8154060Y-4050131D01*
X8141055Y-4028744D01*
X8134350Y-4018229D01*
X8123936Y-4002735D01*
X8113166Y-3987546D01*
X8098332Y-3967835D01*
X8086801Y-3953408D01*
X8070951Y-3934663D01*
X8054543Y-3916578D01*
X8037575Y-3899154D01*
X8020151Y-3882390D01*
X8002168Y-3866286D01*
X7983728Y-3850894D01*
X7964830Y-3836263D01*
X7955229Y-3829202D01*
X7940598Y-3819042D01*
X7930692Y-3812438D01*
X7910626Y-3799941D01*
X7890103Y-3788206D01*
X7869275Y-3777335D01*
X7848041Y-3767328D01*
X7826502Y-3758184D01*
X7806842Y-3750716D01*
X7791399Y-3745229D01*
X7776768Y-3740404D01*
X7762341Y-3736187D01*
X7750505Y-3733292D01*
X7738059Y-3730650D01*
X7724648Y-3728415D01*
X7709966Y-3726434D01*
X7693659Y-3724757D01*
X7675473Y-3723335D01*
X7654950Y-3722166D01*
X7631887Y-3721201D01*
X7605877Y-3720439D01*
X7543800Y-3719423D01*
X7466075Y-3718915D01*
G37*
G36*
X7091324Y-4025087D02*
G01*
X7025436Y-4025442D01*
X6984593Y-4026154D01*
X6971842Y-4026662D01*
X6964832Y-4027271D01*
X6963714Y-4027576D01*
X6963308Y-4028541D01*
X6962495Y-4033418D01*
X6961733Y-4041851D01*
X6961073Y-4053484D01*
X6960108Y-4084472D01*
X6959600Y-4122877D01*
X6959600Y-4234840D01*
X7429042Y-4238193D01*
X7459014Y-4255922D01*
X7466939Y-4261408D01*
X7474508Y-4267504D01*
X7481671Y-4274210D01*
X7488428Y-4281373D01*
X7494778Y-4289044D01*
X7500772Y-4297222D01*
X7506360Y-4305808D01*
X7511542Y-4314799D01*
X7516317Y-4324146D01*
X7520686Y-4333849D01*
X7524699Y-4343857D01*
X7528306Y-4354169D01*
X7531506Y-4364736D01*
X7534300Y-4375556D01*
X7536688Y-4386529D01*
X7538720Y-4397654D01*
X7540345Y-4408932D01*
X7541564Y-4420362D01*
X7542377Y-4431792D01*
X7542784Y-4443323D01*
X7542834Y-4454855D01*
X7542479Y-4466336D01*
X7541717Y-4477816D01*
X7540548Y-4489196D01*
X7538974Y-4500473D01*
X7536992Y-4511649D01*
X7534656Y-4522622D01*
X7531912Y-4533392D01*
X7528763Y-4543958D01*
X7525207Y-4554270D01*
X7521295Y-4564278D01*
X7516926Y-4573981D01*
X7512202Y-4583328D01*
X7507071Y-4592320D01*
X7501534Y-4600854D01*
X7495590Y-4609033D01*
X7489291Y-4616704D01*
X7482535Y-4623866D01*
X7475423Y-4630521D01*
X7467904Y-4636617D01*
X7459980Y-4642104D01*
X7429042Y-4660392D01*
X6959600Y-4663744D01*
X6959600Y-4875022D01*
X7303109Y-4872126D01*
X7346137Y-4871516D01*
X7382205Y-4870754D01*
X7412126Y-4869688D01*
X7436815Y-4868265D01*
X7457236Y-4866335D01*
X7466075Y-4865217D01*
X7474203Y-4863896D01*
X7481722Y-4862423D01*
X7488681Y-4860798D01*
X7495286Y-4858918D01*
X7504684Y-4855819D01*
X7516825Y-4850841D01*
X7529372Y-4844948D01*
X7543292Y-4837988D01*
X7552486Y-4833061D01*
X7561630Y-4827727D01*
X7570673Y-4821936D01*
X7579614Y-4815687D01*
X7588453Y-4809083D01*
X7597190Y-4802022D01*
X7605775Y-4794656D01*
X7614259Y-4786884D01*
X7626654Y-4774539D01*
X7634731Y-4765903D01*
X7642656Y-4756962D01*
X7650378Y-4747717D01*
X7661554Y-4733340D01*
X7672273Y-4718304D01*
X7679131Y-4707991D01*
X7685786Y-4697476D01*
X7692136Y-4686706D01*
X7698231Y-4675733D01*
X7704124Y-4664557D01*
X7709662Y-4653229D01*
X7714945Y-4641748D01*
X7719923Y-4630115D01*
X7724546Y-4618380D01*
X7728915Y-4606493D01*
X7732877Y-4594504D01*
X7736535Y-4582464D01*
X7739481Y-4571542D01*
X7741818Y-4561179D01*
X7743850Y-4550003D01*
X7745628Y-4538065D01*
X7747152Y-4525467D01*
X7748473Y-4512360D01*
X7749489Y-4498797D01*
X7750251Y-4484928D01*
X7750759Y-4470755D01*
X7751013Y-4456430D01*
X7750911Y-4434890D01*
X7749895Y-4406544D01*
X7748981Y-4392777D01*
X7747812Y-4379366D01*
X7746390Y-4366463D01*
X7744764Y-4354118D01*
X7742834Y-4342434D01*
X7740650Y-4331512D01*
X7738211Y-4321505D01*
X7734757Y-4309465D01*
X7730998Y-4297476D01*
X7726883Y-4285589D01*
X7722412Y-4273854D01*
X7717637Y-4262221D01*
X7712557Y-4250690D01*
X7707172Y-4239310D01*
X7701534Y-4228134D01*
X7695539Y-4217111D01*
X7689342Y-4206290D01*
X7682839Y-4195673D01*
X7676134Y-4185310D01*
X7669174Y-4175150D01*
X7661960Y-4165244D01*
X7654544Y-4155592D01*
X7646924Y-4146245D01*
X7639100Y-4137151D01*
X7631125Y-4128363D01*
X7622946Y-4119930D01*
X7614615Y-4111802D01*
X7606131Y-4104030D01*
X7597495Y-4096613D01*
X7588707Y-4089603D01*
X7579817Y-4082948D01*
X7570825Y-4076750D01*
X7561732Y-4070908D01*
X7552537Y-4065524D01*
X7536180Y-4056989D01*
X7523124Y-4050588D01*
X7510881Y-4045204D01*
X7498638Y-4040733D01*
X7492238Y-4038803D01*
X7485481Y-4037076D01*
X7470546Y-4034129D01*
X7462164Y-4032910D01*
X7442860Y-4030878D01*
X7419543Y-4029303D01*
X7391400Y-4028186D01*
X7357465Y-4027322D01*
X7268819Y-4026154D01*
X7172756Y-4025341D01*
G37*
G36*
X1431188Y-3913936D02*
G01*
X1407464Y-3914140D01*
X1392021Y-3914698D01*
X1386789Y-3915257D01*
X1382928Y-3915968D01*
X1380185Y-3916984D01*
X1378305Y-3918204D01*
X1377086Y-3919778D01*
X1376324Y-3921658D01*
X1373936Y-3932478D01*
X1356258Y-4026560D01*
X1350873Y-4052315D01*
X1350365Y-4053738D01*
X1348232Y-4055160D01*
X1339240Y-4059428D01*
X1325524Y-4065117D01*
X1309014Y-4071467D01*
X1291640Y-4077817D01*
X1275334Y-4083456D01*
X1261973Y-4087723D01*
X1253490Y-4089857D01*
X1251661Y-4089908D01*
X1248206Y-4087977D01*
X1232204Y-4077715D01*
X1207820Y-4061307D01*
X1180134Y-4042257D01*
X1156512Y-4026509D01*
X1141831Y-4017264D01*
X1139139Y-4015994D01*
X1138275Y-4016400D01*
X1134110Y-4019753D01*
X1118006Y-4034637D01*
X1094740Y-4057396D01*
X1040485Y-4111751D01*
X1083462Y-4174439D01*
X1101394Y-4201769D01*
X1108252Y-4212742D01*
X1113180Y-4221124D01*
X1115822Y-4226356D01*
X1116126Y-4227576D01*
X1115720Y-4229608D01*
X1112672Y-4238548D01*
X1107135Y-4252518D01*
X1099870Y-4269841D01*
X1075436Y-4325416D01*
X943102Y-4349750D01*
X943102Y-4489246D01*
X1038606Y-4506671D01*
X1049375Y-4509109D01*
X1057960Y-4511751D01*
X1061567Y-4513173D01*
X1067663Y-4516526D01*
X1070254Y-4518507D01*
X1072591Y-4520742D01*
X1074724Y-4523232D01*
X1078585Y-4529226D01*
X1082243Y-4536694D01*
X1090523Y-4557217D01*
X1103477Y-4591151D01*
X1108506Y-4605629D01*
X1111351Y-4614976D01*
X1111707Y-4617212D01*
X1111402Y-4618532D01*
X1108913Y-4623714D01*
X1104239Y-4631893D01*
X1097838Y-4642459D01*
X1080922Y-4668469D01*
X1040434Y-4727803D01*
X1138123Y-4825441D01*
X1245260Y-4752594D01*
X1282598Y-4771288D01*
X1291386Y-4775301D01*
X1297533Y-4777790D01*
X1300073Y-4778298D01*
X1309573Y-4756048D01*
X1332484Y-4701184D01*
X1392732Y-4555490D01*
X1373428Y-4541570D01*
X1361338Y-4532122D01*
X1355852Y-4527499D01*
X1345996Y-4518304D01*
X1341526Y-4513732D01*
X1333652Y-4504486D01*
X1330198Y-4499813D01*
X1327048Y-4495088D01*
X1324152Y-4490262D01*
X1321562Y-4485335D01*
X1317193Y-4475124D01*
X1315415Y-4469790D01*
X1312570Y-4458614D01*
X1310640Y-4446625D01*
X1309522Y-4433722D01*
X1309217Y-4426864D01*
X1309166Y-4410811D01*
X1309522Y-4396282D01*
X1309878Y-4390390D01*
X1310436Y-4385208D01*
X1311249Y-4380534D01*
X1312265Y-4376216D01*
X1313535Y-4372051D01*
X1315161Y-4367936D01*
X1319479Y-4359046D01*
X1325219Y-4348835D01*
X1328369Y-4343806D01*
X1335176Y-4334408D01*
X1342491Y-4325721D01*
X1350314Y-4317847D01*
X1354429Y-4314139D01*
X1362964Y-4307382D01*
X1371854Y-4301337D01*
X1381150Y-4296054D01*
X1390700Y-4291584D01*
X1400556Y-4287774D01*
X1410563Y-4284776D01*
X1420774Y-4282541D01*
X1431086Y-4281017D01*
X1441500Y-4280255D01*
X1451914Y-4280255D01*
X1462278Y-4281017D01*
X1472590Y-4282541D01*
X1482801Y-4284776D01*
X1492859Y-4287774D01*
X1502664Y-4291584D01*
X1512265Y-4296054D01*
X1521510Y-4301337D01*
X1530451Y-4307382D01*
X1538986Y-4314139D01*
X1547063Y-4321708D01*
X1550924Y-4325721D01*
X1558239Y-4334408D01*
X1564995Y-4343806D01*
X1571142Y-4353966D01*
X1576273Y-4363669D01*
X1579829Y-4372051D01*
X1581150Y-4376216D01*
X1582166Y-4380534D01*
X1582928Y-4385208D01*
X1583486Y-4390390D01*
X1584096Y-4403039D01*
X1584248Y-4419752D01*
X1583893Y-4433722D01*
X1582775Y-4446625D01*
X1580845Y-4458614D01*
X1579524Y-4464304D01*
X1576171Y-4475124D01*
X1574139Y-4480306D01*
X1571802Y-4485335D01*
X1569212Y-4490262D01*
X1566367Y-4495088D01*
X1559712Y-4504486D01*
X1555953Y-4509109D01*
X1551838Y-4513732D01*
X1542643Y-4522876D01*
X1532026Y-4532122D01*
X1519936Y-4541570D01*
X1500581Y-4555540D01*
X1593443Y-4778298D01*
X1595983Y-4777790D01*
X1602079Y-4775301D01*
X1621485Y-4766056D01*
X1648510Y-4752390D01*
X1755241Y-4825492D01*
X1852930Y-4727803D01*
X1812493Y-4668469D01*
X1803501Y-4654753D01*
X1795627Y-4642205D01*
X1789226Y-4631385D01*
X1784604Y-4622901D01*
X1782165Y-4617364D01*
X1781860Y-4615840D01*
X1783435Y-4609236D01*
X1787550Y-4596841D01*
X1793595Y-4580382D01*
X1819808Y-4515154D01*
X1845157Y-4509160D01*
X1864258Y-4505198D01*
X1888489Y-4500575D01*
X1950262Y-4489704D01*
X1950262Y-4350054D01*
X1836826Y-4329125D01*
X1827377Y-4327144D01*
X1824583Y-4326077D01*
X1822094Y-4324553D01*
X1819706Y-4322521D01*
X1817370Y-4319676D01*
X1814982Y-4316018D01*
X1812340Y-4311243D01*
X1806041Y-4297934D01*
X1789633Y-4259732D01*
X1783181Y-4243730D01*
X1777593Y-4228541D01*
X1777187Y-4226661D01*
X1778558Y-4223461D01*
X1782419Y-4216806D01*
X1796034Y-4195368D01*
X1805025Y-4181703D01*
X1852930Y-4111701D01*
X1794916Y-4053738D01*
X1779828Y-4039108D01*
X1768348Y-4028592D01*
X1763775Y-4024782D01*
X1759864Y-4021836D01*
X1756613Y-4019702D01*
X1753920Y-4018330D01*
X1751685Y-4017670D01*
X1749907Y-4017619D01*
X1748434Y-4018229D01*
X1639112Y-4092956D01*
X1565046Y-4063034D01*
X1543253Y-4053890D01*
X1541932Y-4048861D01*
X1535480Y-4016654D01*
X1522577Y-3948480D01*
X1518666Y-3928719D01*
X1517040Y-3921658D01*
X1516278Y-3919778D01*
X1515059Y-3918204D01*
X1513230Y-3916984D01*
X1510487Y-3915968D01*
X1506626Y-3915257D01*
X1501394Y-3914698D01*
X1485950Y-3914140D01*
G37*
G36*
X1839874Y-4926177D02*
G01*
X1836724Y-4926634D01*
X1833067Y-4927803D01*
X1822704Y-4932172D01*
X1817116Y-4934254D01*
X1812543Y-4935321D01*
X1809445Y-4935321D01*
X1808276Y-4934204D01*
X1807260Y-4932578D01*
X1804365Y-4931206D01*
X1800148Y-4930292D01*
X1794967Y-4929987D01*
X1781657Y-4929987D01*
X1781657Y-5063083D01*
X1808276Y-5063083D01*
X1808378Y-5002225D01*
X1808632Y-4991557D01*
X1809140Y-4982565D01*
X1809953Y-4975250D01*
X1811172Y-4969357D01*
X1812848Y-4964836D01*
X1815084Y-4961432D01*
X1817878Y-4959096D01*
X1821383Y-4957622D01*
X1825599Y-4956962D01*
X1830679Y-4956860D01*
X1836623Y-4957216D01*
X1843938Y-4957267D01*
X1850491Y-4956149D01*
X1856232Y-4953762D01*
X1861210Y-4950206D01*
X1868017Y-4943246D01*
X1869643Y-4938268D01*
X1865833Y-4934356D01*
X1856435Y-4930394D01*
X1846478Y-4927092D01*
X1842973Y-4926330D01*
G37*
G36*
X1255268Y-4926177D02*
G01*
X1251762Y-4926584D01*
X1247851Y-4927701D01*
X1237030Y-4932172D01*
X1231442Y-4934254D01*
X1226870Y-4935321D01*
X1223772Y-4935321D01*
X1221384Y-4932578D01*
X1218082Y-4931206D01*
X1213154Y-4930292D01*
X1207109Y-4929987D01*
X1191564Y-4929987D01*
X1191564Y-5063083D01*
X1222654Y-5063083D01*
X1222705Y-5002276D01*
X1222959Y-4991658D01*
X1223467Y-4982718D01*
X1224280Y-4975402D01*
X1225448Y-4969510D01*
X1227074Y-4964988D01*
X1229207Y-4961585D01*
X1231950Y-4959248D01*
X1235303Y-4957775D01*
X1239418Y-4957064D01*
X1244244Y-4957013D01*
X1249984Y-4957419D01*
X1254810Y-4958130D01*
X1259027Y-4959451D01*
X1262684Y-4961382D01*
X1265783Y-4964023D01*
X1268425Y-4967478D01*
X1270558Y-4971846D01*
X1272286Y-4977231D01*
X1273657Y-4983683D01*
X1274622Y-4991303D01*
X1275283Y-5000142D01*
X1275689Y-5010404D01*
X1275892Y-5063083D01*
X1302512Y-5063083D01*
X1302410Y-5003901D01*
X1301851Y-4986223D01*
X1301292Y-4978654D01*
X1300480Y-4971796D01*
X1299514Y-4965700D01*
X1298295Y-4960213D01*
X1296822Y-4955336D01*
X1295044Y-4951018D01*
X1293012Y-4947208D01*
X1290624Y-4943805D01*
X1287932Y-4940858D01*
X1284884Y-4938217D01*
X1281480Y-4935880D01*
X1277721Y-4933746D01*
X1267460Y-4929378D01*
X1262684Y-4927600D01*
X1258773Y-4926533D01*
G37*
G36*
X993546Y-4926228D02*
G01*
X990041Y-4926584D01*
X986078Y-4927701D01*
X975258Y-4932172D01*
X969670Y-4934254D01*
X965098Y-4935321D01*
X961999Y-4935321D01*
X959612Y-4932578D01*
X956310Y-4931206D01*
X951382Y-4930292D01*
X945337Y-4929987D01*
X929792Y-4929987D01*
X929792Y-4992928D01*
X960983Y-4992928D01*
X961186Y-4985918D01*
X961694Y-4979314D01*
X962406Y-4973320D01*
X963421Y-4968240D01*
X964692Y-4964379D01*
X966165Y-4961940D01*
X969822Y-4959451D01*
X974648Y-4957775D01*
X980287Y-4956911D01*
X986231Y-4956810D01*
X992174Y-4957521D01*
X997712Y-4958943D01*
X1002385Y-4961077D01*
X1005789Y-4963922D01*
X1008278Y-4968748D01*
X1010158Y-4976266D01*
X1011428Y-4985766D01*
X1011885Y-4996535D01*
X1011428Y-5007305D01*
X1010158Y-5016804D01*
X1008278Y-5024323D01*
X1005789Y-5029149D01*
X1001826Y-5032502D01*
X996645Y-5034889D01*
X990752Y-5036210D01*
X984554Y-5036515D01*
X978509Y-5035804D01*
X972972Y-5034127D01*
X968502Y-5031486D01*
X965453Y-5027879D01*
X964031Y-5024221D01*
X962863Y-5019344D01*
X961999Y-5013502D01*
X961390Y-5007000D01*
X961034Y-5000040D01*
X960983Y-4992928D01*
X929792Y-4992928D01*
X929792Y-5276037D01*
X960882Y-5276037D01*
X960932Y-5215280D01*
X961186Y-5204612D01*
X961694Y-5195722D01*
X962456Y-5188356D01*
X963676Y-5182514D01*
X965301Y-5177942D01*
X967435Y-5174538D01*
X970178Y-5172202D01*
X973531Y-5170728D01*
X977646Y-5170068D01*
X982471Y-5169966D01*
X988212Y-5170373D01*
X993038Y-5171135D01*
X997254Y-5172405D01*
X1000912Y-5174335D01*
X1004011Y-5176977D01*
X1006652Y-5180482D01*
X1008786Y-5184851D01*
X1010513Y-5190185D01*
X1011885Y-5196636D01*
X1012850Y-5204256D01*
X1013510Y-5213146D01*
X1013917Y-5223357D01*
X1014120Y-5276037D01*
X1040739Y-5276037D01*
X1040637Y-5220208D01*
X1040079Y-5203799D01*
X1038860Y-5189728D01*
X1036980Y-5177891D01*
X1035761Y-5172760D01*
X1034389Y-5168087D01*
X1032814Y-5163921D01*
X1031036Y-5160162D01*
X1029106Y-5156911D01*
X1026921Y-5154015D01*
X1024585Y-5151577D01*
X1021994Y-5149443D01*
X1019200Y-5147716D01*
X1014272Y-5145735D01*
X1008227Y-5144312D01*
X1001420Y-5143449D01*
X994257Y-5143093D01*
X987094Y-5143347D01*
X980338Y-5144211D01*
X974344Y-5145582D01*
X966724Y-5148834D01*
X964641Y-5149088D01*
X963117Y-5147868D01*
X962050Y-5144668D01*
X961390Y-5139131D01*
X961034Y-5130698D01*
X960882Y-5119014D01*
X960882Y-5054904D01*
X977849Y-5061610D01*
X983335Y-5063490D01*
X988669Y-5064760D01*
X993800Y-5065471D01*
X998728Y-5065572D01*
X1003452Y-5065115D01*
X1007922Y-5064099D01*
X1012139Y-5062524D01*
X1016101Y-5060391D01*
X1019860Y-5057749D01*
X1023315Y-5054549D01*
X1026464Y-5050891D01*
X1029360Y-5046675D01*
X1031951Y-5042001D01*
X1034186Y-5036870D01*
X1036167Y-5031232D01*
X1037793Y-5025186D01*
X1039063Y-5018684D01*
X1039977Y-5011724D01*
X1040536Y-5004308D01*
X1040739Y-4996535D01*
X1040536Y-4987798D01*
X1039977Y-4979720D01*
X1039012Y-4972304D01*
X1037691Y-4965547D01*
X1035964Y-4959350D01*
X1033830Y-4953762D01*
X1031290Y-4948783D01*
X1028344Y-4944364D01*
X1024940Y-4940503D01*
X1021130Y-4937150D01*
X1016863Y-4934356D01*
X1012190Y-4932019D01*
X1001115Y-4927650D01*
X997102Y-4926584D01*
G37*
G36*
X1928418Y-4926330D02*
G01*
X1921510Y-4926838D01*
X1912772Y-4928768D01*
X1908098Y-4930241D01*
X1903679Y-4932121D01*
X1899462Y-4934458D01*
X1895449Y-4937201D01*
X1891690Y-4940350D01*
X1888185Y-4943805D01*
X1884883Y-4947615D01*
X1881886Y-4951730D01*
X1879092Y-4956098D01*
X1876653Y-4960721D01*
X1874469Y-4965547D01*
X1872538Y-4970526D01*
X1870964Y-4975707D01*
X1869693Y-4980990D01*
X1868728Y-4986426D01*
X1868119Y-4991912D01*
X1867865Y-4997450D01*
X1867966Y-5002987D01*
X1868424Y-5008524D01*
X1869236Y-5014061D01*
X1870405Y-5019497D01*
X1872030Y-5024882D01*
X1874012Y-5030114D01*
X1876399Y-5035245D01*
X1879142Y-5039766D01*
X1882393Y-5043982D01*
X1886102Y-5047843D01*
X1890217Y-5051348D01*
X1894687Y-5054447D01*
X1899462Y-5057190D01*
X1904492Y-5059527D01*
X1909724Y-5061458D01*
X1915109Y-5062982D01*
X1920595Y-5064099D01*
X1926132Y-5064810D01*
X1931670Y-5065064D01*
X1937156Y-5064861D01*
X1942541Y-5064252D01*
X1947722Y-5063134D01*
X1952752Y-5061610D01*
X1957476Y-5059578D01*
X1961896Y-5057038D01*
X1965960Y-5054041D01*
X1969566Y-5050485D01*
X1972360Y-5046065D01*
X1973072Y-5041646D01*
X1972005Y-5037480D01*
X1969516Y-5033924D01*
X1965858Y-5031232D01*
X1961337Y-5029758D01*
X1956257Y-5029809D01*
X1950923Y-5031689D01*
X1945487Y-5034280D01*
X1940153Y-5036159D01*
X1934972Y-5037277D01*
X1930044Y-5037785D01*
X1925370Y-5037582D01*
X1920900Y-5036718D01*
X1916734Y-5035245D01*
X1912924Y-5033162D01*
X1909419Y-5030470D01*
X1906320Y-5027218D01*
X1903577Y-5023408D01*
X1901291Y-5019040D01*
X1899462Y-5014163D01*
X1898142Y-5008778D01*
X1897329Y-5002885D01*
X1897024Y-4996535D01*
X1897329Y-4990185D01*
X1898142Y-4984292D01*
X1899462Y-4978908D01*
X1901291Y-4974031D01*
X1903577Y-4969662D01*
X1906320Y-4965852D01*
X1909419Y-4962550D01*
X1912924Y-4959908D01*
X1916734Y-4957775D01*
X1920900Y-4956302D01*
X1925370Y-4955489D01*
X1930044Y-4955286D01*
X1934972Y-4955743D01*
X1940153Y-4956911D01*
X1945487Y-4958791D01*
X1950923Y-4961382D01*
X1955698Y-4963363D01*
X1959813Y-4963617D01*
X1963877Y-4961991D01*
X1968449Y-4958435D01*
X1971649Y-4954625D01*
X1973021Y-4950714D01*
X1972614Y-4946802D01*
X1970532Y-4942992D01*
X1966772Y-4939334D01*
X1961438Y-4935880D01*
X1954580Y-4932781D01*
X1946300Y-4930038D01*
X1935886Y-4927346D01*
G37*
G36*
X1116380Y-4927041D02*
G01*
X1111250Y-4927092D01*
X1106068Y-4927650D01*
X1100785Y-4928717D01*
X1095552Y-4930444D01*
X1090625Y-4932680D01*
X1086002Y-4935474D01*
X1081684Y-4938826D01*
X1077671Y-4942586D01*
X1074013Y-4946802D01*
X1070762Y-4951425D01*
X1067816Y-4956403D01*
X1065276Y-4961686D01*
X1063142Y-4967274D01*
X1061364Y-4973167D01*
X1060395Y-4977638D01*
X1086154Y-4977638D01*
X1087120Y-4974234D01*
X1089914Y-4969713D01*
X1094282Y-4963871D01*
X1098651Y-4959197D01*
X1103376Y-4955743D01*
X1108405Y-4953508D01*
X1113586Y-4952542D01*
X1118819Y-4952796D01*
X1124051Y-4954270D01*
X1129080Y-4957013D01*
X1133906Y-4961026D01*
X1139139Y-4966766D01*
X1142288Y-4971542D01*
X1143304Y-4975402D01*
X1142085Y-4978400D01*
X1138580Y-4980584D01*
X1132789Y-4982108D01*
X1124610Y-4982972D01*
X1113942Y-4983226D01*
X1103477Y-4983124D01*
X1095654Y-4982667D01*
X1090269Y-4981702D01*
X1087170Y-4980076D01*
X1086154Y-4977638D01*
X1060395Y-4977638D01*
X1059129Y-4985562D01*
X1058672Y-4992014D01*
X1058621Y-4998567D01*
X1059078Y-5005222D01*
X1059992Y-5011928D01*
X1061364Y-5018684D01*
X1063244Y-5025390D01*
X1065631Y-5032044D01*
X1067917Y-5036972D01*
X1070660Y-5041493D01*
X1073861Y-5045659D01*
X1077417Y-5049469D01*
X1081328Y-5052872D01*
X1085596Y-5055870D01*
X1090117Y-5058460D01*
X1094892Y-5060696D01*
X1099921Y-5062474D01*
X1105103Y-5063845D01*
X1110386Y-5064760D01*
X1115822Y-5065217D01*
X1121308Y-5065268D01*
X1126794Y-5064861D01*
X1132281Y-5063998D01*
X1137767Y-5062626D01*
X1143152Y-5060797D01*
X1148384Y-5058460D01*
X1153515Y-5055666D01*
X1158443Y-5052314D01*
X1163269Y-5048453D01*
X1164844Y-5045456D01*
X1162964Y-5041849D01*
X1157630Y-5036159D01*
X1152093Y-5030978D01*
X1147978Y-5028946D01*
X1143711Y-5029911D01*
X1132332Y-5036972D01*
X1126845Y-5039207D01*
X1121460Y-5040325D01*
X1116126Y-5040426D01*
X1110894Y-5039410D01*
X1105763Y-5037328D01*
X1100785Y-5034229D01*
X1095959Y-5030012D01*
X1091387Y-5025186D01*
X1087882Y-5021021D01*
X1085545Y-5017465D01*
X1084478Y-5014468D01*
X1084732Y-5011978D01*
X1086307Y-5009946D01*
X1089253Y-5008372D01*
X1093724Y-5007203D01*
X1099667Y-5006340D01*
X1107236Y-5005781D01*
X1116380Y-5005476D01*
X1169416Y-5005425D01*
X1169365Y-4986528D01*
X1169111Y-4980787D01*
X1168400Y-4975250D01*
X1167231Y-4969916D01*
X1165606Y-4964785D01*
X1163574Y-4959858D01*
X1161186Y-4955235D01*
X1158443Y-4950866D01*
X1155344Y-4946802D01*
X1151940Y-4943094D01*
X1148283Y-4939690D01*
X1144320Y-4936642D01*
X1140104Y-4934000D01*
X1135735Y-4931714D01*
X1131112Y-4929886D01*
X1126337Y-4928463D01*
X1121460Y-4927549D01*
G37*
G36*
X853440Y-4927092D02*
G01*
X848461Y-4927498D01*
X843330Y-4928362D01*
X838047Y-4929632D01*
X832612Y-4931359D01*
X826617Y-4933746D01*
X821283Y-4936439D01*
X816610Y-4939639D01*
X812546Y-4943246D01*
X809091Y-4947412D01*
X806196Y-4952136D01*
X803859Y-4957572D01*
X801979Y-4963668D01*
X800608Y-4970576D01*
X799642Y-4978298D01*
X799084Y-4986934D01*
X798931Y-4996535D01*
X823315Y-4996535D01*
X823620Y-4990134D01*
X824534Y-4984140D01*
X825957Y-4978654D01*
X827887Y-4973675D01*
X830275Y-4969205D01*
X833018Y-4965293D01*
X836168Y-4961991D01*
X839622Y-4959299D01*
X843330Y-4957267D01*
X847242Y-4955946D01*
X851357Y-4955336D01*
X855573Y-4955438D01*
X859891Y-4956302D01*
X864260Y-4958029D01*
X868578Y-4960569D01*
X872896Y-4963922D01*
X876604Y-4968544D01*
X879144Y-4974793D01*
X880567Y-4983124D01*
X880973Y-4993995D01*
X880821Y-5001056D01*
X880262Y-5007406D01*
X879297Y-5013096D01*
X877976Y-5018125D01*
X876249Y-5022545D01*
X874115Y-5026304D01*
X871524Y-5029454D01*
X868527Y-5031994D01*
X865124Y-5033975D01*
X861263Y-5035346D01*
X856945Y-5036210D01*
X852169Y-5036464D01*
X845362Y-5035854D01*
X839469Y-5034026D01*
X834491Y-5030927D01*
X830478Y-5026558D01*
X827328Y-5020970D01*
X825093Y-5014112D01*
X823772Y-5005984D01*
X823315Y-4996535D01*
X798931Y-4996535D01*
X799084Y-5006340D01*
X799642Y-5015128D01*
X800658Y-5023002D01*
X802132Y-5029962D01*
X804062Y-5036108D01*
X806551Y-5041493D01*
X809650Y-5046218D01*
X813358Y-5050332D01*
X817676Y-5053888D01*
X822756Y-5057038D01*
X828548Y-5059730D01*
X835050Y-5062118D01*
X841248Y-5063845D01*
X847242Y-5064963D01*
X853033Y-5065471D01*
X858621Y-5065420D01*
X864006Y-5064810D01*
X869137Y-5063642D01*
X874014Y-5061915D01*
X878636Y-5059680D01*
X882954Y-5056936D01*
X886968Y-5053685D01*
X890676Y-5049977D01*
X894080Y-5045760D01*
X897128Y-5041138D01*
X899820Y-5036058D01*
X902157Y-5030520D01*
X904087Y-5024577D01*
X905611Y-5018278D01*
X906678Y-5011521D01*
X907389Y-5004460D01*
X907592Y-4996992D01*
X907440Y-4990388D01*
X906932Y-4984038D01*
X906170Y-4978044D01*
X905103Y-4972304D01*
X903732Y-4966919D01*
X902055Y-4961788D01*
X900125Y-4957013D01*
X897940Y-4952542D01*
X895451Y-4948428D01*
X892759Y-4944668D01*
X889762Y-4941214D01*
X886612Y-4938166D01*
X883158Y-4935423D01*
X879500Y-4933086D01*
X875639Y-4931105D01*
X871575Y-4929530D01*
X867359Y-4928311D01*
X862888Y-4927498D01*
X858266Y-4927092D01*
G37*
G36*
X2039975Y-4927650D02*
G01*
X2034336Y-4928006D01*
X2028545Y-4928920D01*
X2022652Y-4930394D01*
X2018436Y-4931918D01*
X2014423Y-4934000D01*
X2010664Y-4936591D01*
X2007158Y-4939639D01*
X2003907Y-4943094D01*
X2000910Y-4946904D01*
X1998116Y-4951120D01*
X1995627Y-4955590D01*
X1993392Y-4960366D01*
X1991410Y-4965344D01*
X1989734Y-4970576D01*
X1988447Y-4975402D01*
X2011883Y-4975402D01*
X2012848Y-4971542D01*
X2016048Y-4966766D01*
X2021281Y-4961026D01*
X2026056Y-4957013D01*
X2031136Y-4954270D01*
X2036318Y-4952796D01*
X2041550Y-4952542D01*
X2046732Y-4953508D01*
X2051761Y-4955743D01*
X2056485Y-4959197D01*
X2060854Y-4963871D01*
X2065274Y-4969713D01*
X2068017Y-4974234D01*
X2068982Y-4977638D01*
X2068017Y-4980076D01*
X2064918Y-4981702D01*
X2059482Y-4982667D01*
X2051659Y-4983124D01*
X2041245Y-4983226D01*
X2030577Y-4982972D01*
X2022348Y-4982108D01*
X2016556Y-4980584D01*
X2013102Y-4978400D01*
X2011883Y-4975402D01*
X1988447Y-4975402D01*
X1987143Y-4981448D01*
X1986330Y-4986985D01*
X1985772Y-4992624D01*
X1985518Y-5003901D01*
X1985873Y-5009438D01*
X1986534Y-5014874D01*
X1987499Y-5020208D01*
X1988769Y-5025390D01*
X1990394Y-5030317D01*
X1992375Y-5034991D01*
X1994611Y-5039410D01*
X1997252Y-5043525D01*
X2000199Y-5047234D01*
X2003501Y-5050586D01*
X2007158Y-5053482D01*
X2011527Y-5056225D01*
X2016099Y-5058613D01*
X2020925Y-5060645D01*
X2025853Y-5062220D01*
X2030933Y-5063490D01*
X2036165Y-5064353D01*
X2041398Y-5064861D01*
X2046681Y-5064963D01*
X2051913Y-5064658D01*
X2057146Y-5064048D01*
X2062327Y-5063032D01*
X2067356Y-5061610D01*
X2072284Y-5059832D01*
X2077008Y-5057698D01*
X2081530Y-5055158D01*
X2085797Y-5052314D01*
X2090623Y-5048453D01*
X2092198Y-5045456D01*
X2090420Y-5042001D01*
X2085339Y-5036566D01*
X2079955Y-5031587D01*
X2075586Y-5029657D01*
X2070506Y-5030520D01*
X2057501Y-5036667D01*
X2051812Y-5038852D01*
X2046732Y-5040325D01*
X2042922Y-5040884D01*
X2038502Y-5040122D01*
X2033574Y-5038039D01*
X2028494Y-5034940D01*
X2023567Y-5031028D01*
X2019198Y-5026710D01*
X2015642Y-5022240D01*
X2013254Y-5017871D01*
X2012391Y-5013960D01*
X2012594Y-5011318D01*
X2013559Y-5009286D01*
X2015540Y-5007813D01*
X2018995Y-5006746D01*
X2024227Y-5006035D01*
X2031644Y-5005628D01*
X2041652Y-5005425D01*
X2096668Y-5005425D01*
X2096668Y-4986528D01*
X2096414Y-4980432D01*
X2095652Y-4974539D01*
X2094433Y-4968951D01*
X2092756Y-4963617D01*
X2090674Y-4958588D01*
X2088134Y-4953863D01*
X2085238Y-4949494D01*
X2081987Y-4945481D01*
X2078380Y-4941824D01*
X2074468Y-4938522D01*
X2070252Y-4935626D01*
X2065782Y-4933188D01*
X2061057Y-4931156D01*
X2056079Y-4929530D01*
X2050897Y-4928412D01*
X2045512Y-4927803D01*
G37*
G36*
X1562862Y-4927752D02*
G01*
X1556054Y-4928057D01*
X1549247Y-4929174D01*
X1542491Y-4931156D01*
X1536496Y-4933645D01*
X1531162Y-4936439D01*
X1526489Y-4939588D01*
X1522425Y-4943246D01*
X1518970Y-4947462D01*
X1516075Y-4952187D01*
X1513738Y-4957622D01*
X1511858Y-4963718D01*
X1510487Y-4970627D01*
X1509522Y-4978349D01*
X1508963Y-4986985D01*
X1508810Y-4996535D01*
X1533194Y-4996535D01*
X1533652Y-4987086D01*
X1534972Y-4978958D01*
X1537208Y-4972100D01*
X1540357Y-4966512D01*
X1544421Y-4962144D01*
X1549349Y-4959045D01*
X1555242Y-4957216D01*
X1562049Y-4956606D01*
X1569212Y-4957165D01*
X1575155Y-4958943D01*
X1579981Y-4961991D01*
X1583994Y-4966462D01*
X1586687Y-4971897D01*
X1588871Y-4979365D01*
X1590344Y-4987899D01*
X1590903Y-4996535D01*
X1590446Y-5005984D01*
X1589125Y-5014112D01*
X1586890Y-5020970D01*
X1583740Y-5026558D01*
X1579727Y-5030927D01*
X1574749Y-5034026D01*
X1568856Y-5035854D01*
X1562049Y-5036464D01*
X1555242Y-5035854D01*
X1549349Y-5034026D01*
X1544421Y-5030927D01*
X1540357Y-5026558D01*
X1537208Y-5020970D01*
X1534972Y-5014112D01*
X1533652Y-5005984D01*
X1533194Y-4996535D01*
X1508810Y-4996535D01*
X1509217Y-5014468D01*
X1509776Y-5021326D01*
X1510588Y-5027015D01*
X1511808Y-5031892D01*
X1513433Y-5036210D01*
X1515516Y-5040122D01*
X1518056Y-5043881D01*
X1521510Y-5048046D01*
X1525270Y-5051704D01*
X1529334Y-5054904D01*
X1533652Y-5057698D01*
X1538224Y-5059984D01*
X1542999Y-5061864D01*
X1547926Y-5063286D01*
X1552905Y-5064252D01*
X1558036Y-5064760D01*
X1563166Y-5064810D01*
X1568246Y-5064455D01*
X1573326Y-5063642D01*
X1578305Y-5062423D01*
X1583182Y-5060696D01*
X1587855Y-5058562D01*
X1592326Y-5056022D01*
X1596542Y-5052974D01*
X1600504Y-5049570D01*
X1604111Y-5045659D01*
X1607362Y-5041341D01*
X1609445Y-5037785D01*
X1611325Y-5033518D01*
X1612950Y-5028742D01*
X1614373Y-5023510D01*
X1615541Y-5017922D01*
X1617167Y-5005984D01*
X1617827Y-4993589D01*
X1617776Y-4987442D01*
X1617472Y-4981448D01*
X1616913Y-4975707D01*
X1616100Y-4970322D01*
X1614982Y-4965344D01*
X1613560Y-4960874D01*
X1611884Y-4957013D01*
X1608429Y-4951272D01*
X1604314Y-4946040D01*
X1599539Y-4941417D01*
X1594307Y-4937404D01*
X1588617Y-4934102D01*
X1582521Y-4931410D01*
X1576171Y-4929428D01*
X1569567Y-4928209D01*
G37*
G36*
X1435201Y-4927904D02*
G01*
X1429816Y-4928006D01*
X1424635Y-4928362D01*
X1419758Y-4929124D01*
X1415288Y-4930190D01*
X1408582Y-4932680D01*
X1402740Y-4935778D01*
X1397660Y-4939538D01*
X1393494Y-4943906D01*
X1390142Y-4948885D01*
X1387703Y-4954473D01*
X1386128Y-4960620D01*
X1385468Y-4967274D01*
X1385620Y-4973066D01*
X1386433Y-4978349D01*
X1387856Y-4983226D01*
X1389989Y-4987645D01*
X1392783Y-4991608D01*
X1396288Y-4995164D01*
X1400505Y-4998313D01*
X1405432Y-5001107D01*
X1411122Y-5003444D01*
X1417523Y-5005476D01*
X1424736Y-5007102D01*
X1446174Y-5010607D01*
X1454759Y-5013045D01*
X1459534Y-5016246D01*
X1461566Y-5020614D01*
X1461820Y-5025237D01*
X1460754Y-5029301D01*
X1458620Y-5032756D01*
X1455420Y-5035550D01*
X1451305Y-5037734D01*
X1446479Y-5039207D01*
X1440942Y-5040020D01*
X1434947Y-5040020D01*
X1428546Y-5039309D01*
X1421892Y-5037785D01*
X1415084Y-5035448D01*
X1408277Y-5032248D01*
X1398981Y-5027523D01*
X1393291Y-5025898D01*
X1389227Y-5027371D01*
X1384604Y-5031994D01*
X1380185Y-5038648D01*
X1380236Y-5044440D01*
X1385011Y-5049977D01*
X1394815Y-5055819D01*
X1401521Y-5058867D01*
X1408226Y-5061356D01*
X1414932Y-5063236D01*
X1421638Y-5064607D01*
X1428242Y-5065471D01*
X1434693Y-5065776D01*
X1440992Y-5065572D01*
X1447088Y-5064912D01*
X1452930Y-5063744D01*
X1458468Y-5062118D01*
X1463649Y-5060035D01*
X1468526Y-5057546D01*
X1472946Y-5054650D01*
X1476908Y-5051298D01*
X1480362Y-5047589D01*
X1483309Y-5043525D01*
X1485696Y-5039055D01*
X1487424Y-5034229D01*
X1488490Y-5029098D01*
X1488846Y-5023662D01*
X1488592Y-5017871D01*
X1487932Y-5012588D01*
X1486763Y-5007813D01*
X1485087Y-5003495D01*
X1482953Y-4999685D01*
X1480261Y-4996281D01*
X1477111Y-4993335D01*
X1473454Y-4990795D01*
X1469237Y-4988712D01*
X1464462Y-4987036D01*
X1459179Y-4985766D01*
X1431747Y-4982159D01*
X1424736Y-4980787D01*
X1419758Y-4979212D01*
X1416456Y-4977282D01*
X1414526Y-4974894D01*
X1413662Y-4971846D01*
X1413408Y-4968087D01*
X1413865Y-4964226D01*
X1415186Y-4960823D01*
X1417320Y-4957978D01*
X1420164Y-4955692D01*
X1423619Y-4953914D01*
X1427632Y-4952695D01*
X1432052Y-4952085D01*
X1436928Y-4952085D01*
X1442059Y-4952695D01*
X1447444Y-4953914D01*
X1452981Y-4955844D01*
X1465224Y-4961483D01*
X1469948Y-4962042D01*
X1474266Y-4959908D01*
X1479550Y-4954828D01*
X1488694Y-4945126D01*
X1476552Y-4938064D01*
X1472336Y-4935829D01*
X1467662Y-4933899D01*
X1462633Y-4932172D01*
X1457401Y-4930749D01*
X1451914Y-4929581D01*
X1446326Y-4928717D01*
X1440738Y-4928158D01*
G37*
G36*
X1638757Y-4929987D02*
G01*
X1640738Y-4992979D01*
X1641805Y-5011216D01*
X1642567Y-5018938D01*
X1643532Y-5025796D01*
X1644650Y-5031892D01*
X1646021Y-5037226D01*
X1647647Y-5041900D01*
X1649577Y-5046014D01*
X1651812Y-5049520D01*
X1654352Y-5052618D01*
X1657248Y-5055260D01*
X1660550Y-5057597D01*
X1664207Y-5059629D01*
X1672945Y-5063083D01*
X1681784Y-5065471D01*
X1689100Y-5065826D01*
X1696720Y-5063947D01*
X1714906Y-5055666D01*
X1720342Y-5053990D01*
X1723186Y-5054447D01*
X1724914Y-5059527D01*
X1727504Y-5061458D01*
X1731721Y-5062677D01*
X1737309Y-5063083D01*
X1750618Y-5063083D01*
X1750618Y-4929987D01*
X1723999Y-4929987D01*
X1723898Y-4985308D01*
X1723491Y-4995773D01*
X1722780Y-5004765D01*
X1721764Y-5012436D01*
X1720342Y-5018836D01*
X1718462Y-5024069D01*
X1716125Y-5028234D01*
X1713230Y-5031435D01*
X1709826Y-5033772D01*
X1705813Y-5035346D01*
X1701139Y-5036210D01*
X1695805Y-5036464D01*
X1690522Y-5036312D01*
X1686052Y-5035804D01*
X1682343Y-5034788D01*
X1679244Y-5033060D01*
X1676755Y-5030520D01*
X1674774Y-5027066D01*
X1673301Y-5022494D01*
X1672234Y-5016652D01*
X1671472Y-5009438D01*
X1671015Y-5000650D01*
X1670761Y-4977892D01*
X1670761Y-4929987D01*
G37*
G36*
X1369060Y-5089702D02*
G01*
X1369060Y-5120741D01*
X1368856Y-5130546D01*
X1368298Y-5138521D01*
X1367383Y-5144668D01*
X1366164Y-5148986D01*
X1364589Y-5151475D01*
X1362659Y-5152034D01*
X1360474Y-5150662D01*
X1357934Y-5147360D01*
X1355344Y-5145684D01*
X1350162Y-5144262D01*
X1343253Y-5143296D01*
X1335328Y-5142941D01*
X1330147Y-5143144D01*
X1325321Y-5143703D01*
X1320800Y-5144617D01*
X1316634Y-5145938D01*
X1312722Y-5147665D01*
X1309166Y-5149748D01*
X1305864Y-5152237D01*
X1302918Y-5155133D01*
X1300276Y-5158435D01*
X1297889Y-5162143D01*
X1295806Y-5166258D01*
X1294028Y-5170830D01*
X1292555Y-5175808D01*
X1291386Y-5181193D01*
X1290472Y-5187086D01*
X1289812Y-5193334D01*
X1289456Y-5200091D01*
X1289418Y-5205425D01*
X1316177Y-5205425D01*
X1316431Y-5199837D01*
X1317142Y-5194350D01*
X1318260Y-5189169D01*
X1319936Y-5184394D01*
X1322019Y-5180025D01*
X1324660Y-5176215D01*
X1328521Y-5173065D01*
X1333550Y-5170881D01*
X1339392Y-5169712D01*
X1345539Y-5169560D01*
X1351534Y-5170322D01*
X1357020Y-5172049D01*
X1361440Y-5174640D01*
X1364437Y-5178145D01*
X1366215Y-5183581D01*
X1367688Y-5192064D01*
X1368704Y-5202478D01*
X1369060Y-5213553D01*
X1368806Y-5221173D01*
X1367993Y-5228031D01*
X1366723Y-5234127D01*
X1364945Y-5239410D01*
X1362760Y-5243830D01*
X1360068Y-5247386D01*
X1356969Y-5250129D01*
X1353413Y-5251958D01*
X1349502Y-5252923D01*
X1345184Y-5252923D01*
X1340510Y-5252008D01*
X1335481Y-5250129D01*
X1332026Y-5248046D01*
X1328826Y-5245150D01*
X1325981Y-5241594D01*
X1323441Y-5237429D01*
X1321257Y-5232806D01*
X1319479Y-5227726D01*
X1318056Y-5222392D01*
X1316990Y-5216804D01*
X1316380Y-5211114D01*
X1316177Y-5205425D01*
X1289418Y-5205425D01*
X1289608Y-5214924D01*
X1290066Y-5223002D01*
X1290726Y-5229606D01*
X1291793Y-5235803D01*
X1293215Y-5241696D01*
X1294942Y-5247182D01*
X1297025Y-5252364D01*
X1299362Y-5257088D01*
X1302004Y-5261406D01*
X1304950Y-5265318D01*
X1308150Y-5268823D01*
X1311554Y-5271871D01*
X1315212Y-5274462D01*
X1319022Y-5276545D01*
X1323086Y-5278170D01*
X1327251Y-5279288D01*
X1331620Y-5279898D01*
X1336141Y-5279999D01*
X1340713Y-5279542D01*
X1345438Y-5278526D01*
X1350264Y-5276951D01*
X1360525Y-5272430D01*
X1364945Y-5271109D01*
X1367942Y-5270906D01*
X1369060Y-5271973D01*
X1370279Y-5273548D01*
X1373632Y-5274868D01*
X1378559Y-5275732D01*
X1384554Y-5276037D01*
X1400098Y-5276037D01*
X1400098Y-5089702D01*
G37*
G36*
X1894484Y-5141569D02*
G01*
X1889455Y-5141620D01*
X1884425Y-5142128D01*
X1879447Y-5143144D01*
X1874520Y-5144719D01*
X1869744Y-5146903D01*
X1865071Y-5149646D01*
X1860550Y-5152948D01*
X1857146Y-5156149D01*
X1853946Y-5159806D01*
X1851101Y-5163921D01*
X1848459Y-5168392D01*
X1846173Y-5173167D01*
X1844141Y-5178298D01*
X1842414Y-5183632D01*
X1840851Y-5189880D01*
X1865833Y-5189880D01*
X1866036Y-5186680D01*
X1867966Y-5182565D01*
X1871522Y-5177586D01*
X1875536Y-5173218D01*
X1879854Y-5169916D01*
X1884375Y-5167579D01*
X1889099Y-5166309D01*
X1893925Y-5166055D01*
X1898853Y-5166868D01*
X1903831Y-5168747D01*
X1908810Y-5171643D01*
X1912620Y-5174894D01*
X1916074Y-5178907D01*
X1918817Y-5183174D01*
X1920443Y-5187188D01*
X1921052Y-5192115D01*
X1918157Y-5194808D01*
X1909927Y-5195976D01*
X1894382Y-5196179D01*
X1884425Y-5195976D01*
X1876704Y-5195366D01*
X1871065Y-5194147D01*
X1867509Y-5192369D01*
X1865833Y-5189880D01*
X1840851Y-5189880D01*
X1839874Y-5194808D01*
X1839112Y-5200599D01*
X1838604Y-5206441D01*
X1838452Y-5212334D01*
X1838655Y-5218176D01*
X1839163Y-5223916D01*
X1839975Y-5229555D01*
X1841195Y-5234990D01*
X1842719Y-5240274D01*
X1844598Y-5245252D01*
X1846884Y-5249976D01*
X1849475Y-5254345D01*
X1853285Y-5259324D01*
X1857552Y-5263743D01*
X1862277Y-5267604D01*
X1867357Y-5270957D01*
X1872792Y-5273700D01*
X1878482Y-5275884D01*
X1884425Y-5277510D01*
X1890522Y-5278577D01*
X1896770Y-5279034D01*
X1903069Y-5278882D01*
X1909368Y-5278120D01*
X1915617Y-5276748D01*
X1921814Y-5274818D01*
X1927860Y-5272227D01*
X1933702Y-5268976D01*
X1939289Y-5265166D01*
X1944116Y-5261152D01*
X1945487Y-5258206D01*
X1943252Y-5254904D01*
X1937156Y-5249875D01*
X1931111Y-5245557D01*
X1926589Y-5243880D01*
X1922373Y-5244592D01*
X1912162Y-5250535D01*
X1906676Y-5252364D01*
X1900986Y-5253278D01*
X1895246Y-5253278D01*
X1889607Y-5252364D01*
X1884273Y-5250688D01*
X1879295Y-5248300D01*
X1874926Y-5245201D01*
X1871218Y-5241493D01*
X1868424Y-5237226D01*
X1866595Y-5232450D01*
X1865985Y-5227269D01*
X1866188Y-5224475D01*
X1867052Y-5222392D01*
X1868982Y-5220817D01*
X1872335Y-5219700D01*
X1877568Y-5218988D01*
X1884984Y-5218582D01*
X1908149Y-5218379D01*
X1950262Y-5218379D01*
X1950262Y-5202428D01*
X1950008Y-5196433D01*
X1949196Y-5190693D01*
X1947875Y-5185156D01*
X1946097Y-5179872D01*
X1943862Y-5174894D01*
X1941220Y-5170119D01*
X1938223Y-5165699D01*
X1934819Y-5161584D01*
X1931162Y-5157774D01*
X1927250Y-5154371D01*
X1923034Y-5151272D01*
X1918614Y-5148580D01*
X1914042Y-5146294D01*
X1909267Y-5144465D01*
X1904441Y-5143042D01*
X1899462Y-5142077D01*
G37*
G36*
X1109268Y-5142230D02*
G01*
X1103528Y-5142534D01*
X1097889Y-5143195D01*
X1092606Y-5144160D01*
X1087628Y-5145481D01*
X1083056Y-5147106D01*
X1079042Y-5149088D01*
X1075690Y-5151374D01*
X1065276Y-5159806D01*
X1076198Y-5168646D01*
X1082243Y-5173116D01*
X1086764Y-5174945D01*
X1090980Y-5174284D01*
X1100531Y-5168747D01*
X1105458Y-5167071D01*
X1110589Y-5166207D01*
X1115822Y-5166106D01*
X1120952Y-5166766D01*
X1125880Y-5168087D01*
X1130452Y-5170068D01*
X1134465Y-5172608D01*
X1137869Y-5175656D01*
X1140510Y-5179212D01*
X1142187Y-5183225D01*
X1142746Y-5187543D01*
X1142034Y-5191963D01*
X1139240Y-5194554D01*
X1133500Y-5195874D01*
X1116228Y-5196433D01*
X1109014Y-5196992D01*
X1102207Y-5197957D01*
X1095857Y-5199227D01*
X1089964Y-5200904D01*
X1084529Y-5202834D01*
X1079601Y-5205120D01*
X1075182Y-5207711D01*
X1071219Y-5210606D01*
X1067816Y-5213756D01*
X1064971Y-5217210D01*
X1062634Y-5220868D01*
X1060856Y-5224830D01*
X1059637Y-5228945D01*
X1059027Y-5233314D01*
X1058996Y-5236108D01*
X1085088Y-5236108D01*
X1085799Y-5232755D01*
X1087577Y-5229707D01*
X1090371Y-5226964D01*
X1094079Y-5224627D01*
X1098651Y-5222697D01*
X1104138Y-5221224D01*
X1110386Y-5220208D01*
X1117346Y-5219700D01*
X1125016Y-5219801D01*
X1133449Y-5220614D01*
X1137970Y-5222494D01*
X1139698Y-5226456D01*
X1139596Y-5233517D01*
X1138783Y-5238851D01*
X1137259Y-5243728D01*
X1135278Y-5247690D01*
X1132941Y-5250129D01*
X1128623Y-5252008D01*
X1123035Y-5253177D01*
X1116634Y-5253685D01*
X1109929Y-5253583D01*
X1103426Y-5252872D01*
X1097534Y-5251602D01*
X1092809Y-5249773D01*
X1089710Y-5247436D01*
X1086967Y-5243474D01*
X1085443Y-5239664D01*
X1085088Y-5236108D01*
X1058996Y-5236108D01*
X1058976Y-5237937D01*
X1059535Y-5242712D01*
X1060754Y-5247640D01*
X1062532Y-5252770D01*
X1064971Y-5258054D01*
X1068019Y-5262880D01*
X1071880Y-5267147D01*
X1076401Y-5270804D01*
X1081532Y-5273903D01*
X1087069Y-5276392D01*
X1093012Y-5278221D01*
X1099210Y-5279339D01*
X1105611Y-5279796D01*
X1112012Y-5279542D01*
X1118412Y-5278475D01*
X1124610Y-5276697D01*
X1135329Y-5271922D01*
X1139190Y-5270804D01*
X1141780Y-5270754D01*
X1143863Y-5273497D01*
X1146810Y-5274818D01*
X1151128Y-5275732D01*
X1156462Y-5276037D01*
X1170127Y-5276037D01*
X1168298Y-5207558D01*
X1167587Y-5188102D01*
X1167130Y-5180888D01*
X1166520Y-5174996D01*
X1165707Y-5170271D01*
X1164742Y-5166461D01*
X1163472Y-5163362D01*
X1161846Y-5160772D01*
X1159916Y-5158435D01*
X1154734Y-5153660D01*
X1151280Y-5151120D01*
X1147267Y-5148935D01*
X1142695Y-5147056D01*
X1137716Y-5145481D01*
X1132382Y-5144160D01*
X1126794Y-5143246D01*
X1121003Y-5142585D01*
X1115161Y-5142230D01*
G37*
G36*
X1746199Y-5142941D02*
G01*
X1746199Y-5276037D01*
X1772818Y-5276037D01*
X1772869Y-5220563D01*
X1773478Y-5204307D01*
X1774088Y-5197551D01*
X1774901Y-5191658D01*
X1775968Y-5186578D01*
X1777339Y-5182260D01*
X1778965Y-5178653D01*
X1780946Y-5175758D01*
X1783232Y-5173472D01*
X1785924Y-5171795D01*
X1788972Y-5170678D01*
X1792478Y-5170068D01*
X1796389Y-5169916D01*
X1800809Y-5170220D01*
X1805686Y-5170881D01*
X1812340Y-5170982D01*
X1818690Y-5169458D01*
X1824431Y-5166664D01*
X1829104Y-5162956D01*
X1832406Y-5158740D01*
X1833880Y-5154422D01*
X1833118Y-5150307D01*
X1829866Y-5146903D01*
X1825447Y-5144922D01*
X1819859Y-5143703D01*
X1813458Y-5143144D01*
X1806600Y-5143246D01*
X1799691Y-5144008D01*
X1793138Y-5145379D01*
X1787347Y-5147310D01*
X1782673Y-5149850D01*
X1777339Y-5153355D01*
X1774393Y-5154523D01*
X1773072Y-5153355D01*
X1772818Y-5149850D01*
X1772005Y-5146802D01*
X1769567Y-5144617D01*
X1765401Y-5143347D01*
X1759508Y-5142941D01*
G37*
G36*
X1427480Y-5142941D02*
G01*
X1420063Y-5143246D01*
X1415948Y-5144414D01*
X1414526Y-5146649D01*
X1415338Y-5150408D01*
X1426972Y-5186273D01*
X1455267Y-5276494D01*
X1468577Y-5275173D01*
X1472895Y-5274564D01*
X1476349Y-5273446D01*
X1479296Y-5271312D01*
X1481886Y-5267655D01*
X1484528Y-5261965D01*
X1487474Y-5253736D01*
X1495298Y-5227726D01*
X1508658Y-5181650D01*
X1535531Y-5270500D01*
X1537258Y-5272684D01*
X1540560Y-5274411D01*
X1544980Y-5275630D01*
X1550009Y-5276037D01*
X1552905Y-5275986D01*
X1555394Y-5275681D01*
X1557578Y-5274919D01*
X1559610Y-5273548D01*
X1561541Y-5271312D01*
X1563471Y-5268061D01*
X1565554Y-5263591D01*
X1567891Y-5257698D01*
X1573580Y-5240883D01*
X1595323Y-5171795D01*
X1602638Y-5149545D01*
X1603095Y-5146395D01*
X1601419Y-5144363D01*
X1597202Y-5143246D01*
X1590141Y-5142941D01*
X1575155Y-5142941D01*
X1557731Y-5210302D01*
X1554226Y-5221224D01*
X1552702Y-5224729D01*
X1551228Y-5226913D01*
X1549806Y-5227828D01*
X1548333Y-5227421D01*
X1546809Y-5225796D01*
X1545234Y-5222849D01*
X1543456Y-5218684D01*
X1539341Y-5206593D01*
X1526032Y-5164378D01*
X1522984Y-5156149D01*
X1520342Y-5150358D01*
X1517802Y-5146497D01*
X1515262Y-5144262D01*
X1512366Y-5143195D01*
X1509064Y-5142941D01*
X1505712Y-5143195D01*
X1502816Y-5144262D01*
X1500225Y-5146548D01*
X1497736Y-5150358D01*
X1495044Y-5156250D01*
X1491996Y-5164480D01*
X1479550Y-5203901D01*
X1475943Y-5214772D01*
X1472946Y-5222494D01*
X1471625Y-5225135D01*
X1470355Y-5227015D01*
X1469186Y-5228031D01*
X1468018Y-5228183D01*
X1466850Y-5227574D01*
X1465681Y-5226100D01*
X1464462Y-5223814D01*
X1461820Y-5216702D01*
X1458772Y-5206187D01*
X1442466Y-5142941D01*
G37*
G36*
X1196035Y-5142941D02*
G01*
X1196035Y-5276037D01*
X1227074Y-5276037D01*
X1227124Y-5215128D01*
X1227429Y-5204358D01*
X1227937Y-5195366D01*
X1228801Y-5187950D01*
X1230020Y-5182057D01*
X1231747Y-5177485D01*
X1234033Y-5174132D01*
X1236929Y-5171795D01*
X1240485Y-5170424D01*
X1244752Y-5169814D01*
X1249883Y-5169865D01*
X1255928Y-5170424D01*
X1263040Y-5170373D01*
X1270050Y-5168798D01*
X1276502Y-5166055D01*
X1281887Y-5162499D01*
X1285849Y-5158486D01*
X1287932Y-5154371D01*
X1287678Y-5150510D01*
X1284630Y-5147208D01*
X1280414Y-5145379D01*
X1274775Y-5144109D01*
X1268069Y-5143398D01*
X1260805Y-5143144D01*
X1253490Y-5143449D01*
X1246530Y-5144312D01*
X1240434Y-5145684D01*
X1235659Y-5147564D01*
X1231798Y-5149342D01*
X1229156Y-5149900D01*
X1227582Y-5149342D01*
X1227074Y-5147564D01*
X1225854Y-5145735D01*
X1222502Y-5144312D01*
X1217574Y-5143296D01*
X1211529Y-5142941D01*
G37*
G36*
X1661464Y-5143398D02*
G01*
X1654708Y-5143550D01*
X1641906Y-5144668D01*
X1636268Y-5145633D01*
X1631391Y-5146852D01*
X1627479Y-5148376D01*
X1622755Y-5151170D01*
X1619554Y-5154168D01*
X1617675Y-5157317D01*
X1617116Y-5160416D01*
X1617675Y-5163362D01*
X1619300Y-5166055D01*
X1621891Y-5168290D01*
X1625346Y-5170068D01*
X1629511Y-5171135D01*
X1634286Y-5171490D01*
X1639620Y-5170881D01*
X1653082Y-5167172D01*
X1660499Y-5166258D01*
X1667408Y-5166563D01*
X1673606Y-5167985D01*
X1678939Y-5170525D01*
X1683156Y-5173980D01*
X1686153Y-5178399D01*
X1687626Y-5183682D01*
X1687931Y-5187289D01*
X1687779Y-5190083D01*
X1686814Y-5192166D01*
X1684731Y-5193690D01*
X1681225Y-5194858D01*
X1676095Y-5195722D01*
X1650898Y-5198211D01*
X1643075Y-5199481D01*
X1636166Y-5201107D01*
X1630070Y-5203139D01*
X1624838Y-5205628D01*
X1620367Y-5208574D01*
X1616659Y-5211927D01*
X1613712Y-5215839D01*
X1611426Y-5220208D01*
X1609852Y-5225135D01*
X1608937Y-5230571D01*
X1608715Y-5237784D01*
X1632102Y-5237784D01*
X1632356Y-5235041D01*
X1633372Y-5232349D01*
X1635201Y-5229758D01*
X1637792Y-5227320D01*
X1641297Y-5225084D01*
X1645615Y-5223154D01*
X1650796Y-5221579D01*
X1659940Y-5219598D01*
X1667764Y-5218480D01*
X1674266Y-5218277D01*
X1679498Y-5218938D01*
X1683512Y-5220512D01*
X1686306Y-5223002D01*
X1687982Y-5226456D01*
X1688490Y-5230774D01*
X1688134Y-5236616D01*
X1687017Y-5241493D01*
X1685086Y-5245455D01*
X1682292Y-5248605D01*
X1678584Y-5250992D01*
X1673910Y-5252618D01*
X1668170Y-5253583D01*
X1661312Y-5253888D01*
X1655521Y-5253583D01*
X1650288Y-5252770D01*
X1645716Y-5251500D01*
X1641754Y-5249875D01*
X1638452Y-5247894D01*
X1635810Y-5245608D01*
X1633829Y-5243118D01*
X1632610Y-5240477D01*
X1632102Y-5237784D01*
X1608715Y-5237784D01*
X1609090Y-5242814D01*
X1610461Y-5248656D01*
X1612595Y-5254142D01*
X1615440Y-5259273D01*
X1618945Y-5263946D01*
X1623009Y-5268163D01*
X1627581Y-5271820D01*
X1632508Y-5274919D01*
X1637792Y-5277459D01*
X1643329Y-5279288D01*
X1649018Y-5280456D01*
X1654810Y-5280863D01*
X1660601Y-5280507D01*
X1666341Y-5279339D01*
X1671929Y-5277256D01*
X1681683Y-5271820D01*
X1685239Y-5270449D01*
X1687626Y-5270347D01*
X1689557Y-5273294D01*
X1692402Y-5274716D01*
X1696669Y-5275681D01*
X1701800Y-5276037D01*
X1715109Y-5276037D01*
X1714906Y-5208574D01*
X1714296Y-5187746D01*
X1713687Y-5179669D01*
X1712772Y-5172964D01*
X1711553Y-5167376D01*
X1709928Y-5162804D01*
X1707896Y-5158994D01*
X1705356Y-5155793D01*
X1702257Y-5153050D01*
X1698650Y-5150561D01*
X1694332Y-5148122D01*
X1690776Y-5146649D01*
X1686153Y-5145481D01*
X1680718Y-5144516D01*
X1668170Y-5143500D01*
G37*
D13*
X5676900Y-5852921D02*
G01*
X5676900Y-6046723D01*
X5676900Y-5852921D02*
G01*
X5741670Y-5852921D01*
X5769356Y-5862065D01*
X5787643Y-5880607D01*
X5797041Y-5899150D01*
X5806186Y-5926836D01*
X5806186Y-5972810D01*
X5797041Y-6000750D01*
X5787643Y-6019037D01*
X5769356Y-6037579D01*
X5741670Y-6046723D01*
X5676900Y-6046723D01*
X5867145Y-5917437D02*
G01*
X5867145Y-6009894D01*
X5876290Y-6037579D01*
X5894831Y-6046723D01*
X5922518Y-6046723D01*
X5941059Y-6037579D01*
X5968745Y-6009894D01*
X5968745Y-5917437D02*
G01*
X5968745Y-6046723D01*
X6029706Y-5917437D02*
G01*
X6029706Y-6046723D01*
X6029706Y-5954521D02*
G01*
X6057391Y-5926836D01*
X6075934Y-5917437D01*
X6103620Y-5917437D01*
X6122161Y-5926836D01*
X6131306Y-5954521D01*
X6131306Y-6046723D01*
X6192265Y-5852921D02*
G01*
X6201409Y-5862065D01*
X6210808Y-5852921D01*
X6201409Y-5843523D01*
X6192265Y-5852921D01*
X6201409Y-5917437D02*
G01*
X6201409Y-6046723D01*
X6317995Y-5917437D02*
G01*
X6299454Y-5926836D01*
X6280911Y-5945123D01*
X6271768Y-5972810D01*
X6271768Y-5991352D01*
X6280911Y-6019037D01*
X6299454Y-6037579D01*
X6317995Y-6046723D01*
X6345681Y-6046723D01*
X6363970Y-6037579D01*
X6382511Y-6019037D01*
X6391909Y-5991352D01*
X6391909Y-5972810D01*
X6382511Y-5945123D01*
X6363970Y-5926836D01*
X6345681Y-5917437D01*
X6317995Y-5917437D01*
X6591300Y-5899150D02*
G01*
X6582156Y-5880607D01*
X6563613Y-5862065D01*
X6545072Y-5852921D01*
X6508241Y-5852921D01*
X6489700Y-5862065D01*
X6471158Y-5880607D01*
X6462013Y-5899150D01*
X6452870Y-5926836D01*
X6452870Y-5972810D01*
X6462013Y-6000750D01*
X6471158Y-6019037D01*
X6489700Y-6037579D01*
X6508241Y-6046723D01*
X6545072Y-6046723D01*
X6563613Y-6037579D01*
X6582156Y-6019037D01*
X6591300Y-6000750D01*
X6698488Y-5917437D02*
G01*
X6679945Y-5926836D01*
X6661404Y-5945123D01*
X6652259Y-5972810D01*
X6652259Y-5991352D01*
X6661404Y-6019037D01*
X6679945Y-6037579D01*
X6698488Y-6046723D01*
X6726174Y-6046723D01*
X6744715Y-6037579D01*
X6763004Y-6019037D01*
X6772402Y-5991352D01*
X6772402Y-5972810D01*
X6763004Y-5945123D01*
X6744715Y-5926836D01*
X6726174Y-5917437D01*
X6698488Y-5917437D01*
X6833361Y-5852921D02*
G01*
X6842506Y-5862065D01*
X6851650Y-5852921D01*
X6842506Y-5843523D01*
X6833361Y-5852921D01*
X6842506Y-5917437D02*
G01*
X6842506Y-6046723D01*
X6912609Y-5917437D02*
G01*
X6912609Y-6046723D01*
X6912609Y-5954521D02*
G01*
X6940550Y-5926836D01*
X6958838Y-5917437D01*
X6986524Y-5917437D01*
X7005065Y-5926836D01*
X7014209Y-5954521D01*
X7014209Y-6046723D01*
X7217409Y-5852921D02*
G01*
X7217409Y-6046723D01*
X7217409Y-5852921D02*
G01*
X7291324Y-6046723D01*
X7365238Y-5852921D02*
G01*
X7291324Y-6046723D01*
X7365238Y-5852921D02*
G01*
X7365238Y-6046723D01*
X7426197Y-5852921D02*
G01*
X7435595Y-5862065D01*
X7444740Y-5852921D01*
X7435595Y-5843523D01*
X7426197Y-5852921D01*
X7435595Y-5917437D02*
G01*
X7435595Y-6046723D01*
X7505700Y-5917437D02*
G01*
X7505700Y-6046723D01*
X7505700Y-5954521D02*
G01*
X7533386Y-5926836D01*
X7551927Y-5917437D01*
X7579613Y-5917437D01*
X7598156Y-5926836D01*
X7607300Y-5954521D01*
X7607300Y-6046723D01*
X7668259Y-5852921D02*
G01*
X7677404Y-5862065D01*
X7686802Y-5852921D01*
X7677404Y-5843523D01*
X7668259Y-5852921D01*
X7677404Y-5917437D02*
G01*
X7677404Y-6046723D01*
X7747761Y-5917437D02*
G01*
X7747761Y-6046723D01*
X7747761Y-5954521D02*
G01*
X7775447Y-5926836D01*
X7793990Y-5917437D01*
X7821675Y-5917437D01*
X7839963Y-5926836D01*
X7849361Y-5954521D01*
X7849361Y-6046723D01*
X8021065Y-5917437D02*
G01*
X8021065Y-6065265D01*
X8011922Y-6092952D01*
X8002524Y-6102350D01*
X7984236Y-6111494D01*
X7956550Y-6111494D01*
X7938008Y-6102350D01*
X8021065Y-5945123D02*
G01*
X8002524Y-5926836D01*
X7984236Y-5917437D01*
X7956550Y-5917437D01*
X7938008Y-5926836D01*
X7919465Y-5945123D01*
X7910322Y-5972810D01*
X7910322Y-5991352D01*
X7919465Y-6019037D01*
X7938008Y-6037579D01*
X7956550Y-6046723D01*
X7984236Y-6046723D01*
X8002524Y-6037579D01*
X8021065Y-6019037D01*
X8224265Y-5852921D02*
G01*
X8224265Y-6046723D01*
X8224265Y-5852921D02*
G01*
X8298179Y-6046723D01*
X8372093Y-5852921D02*
G01*
X8298179Y-6046723D01*
X8372093Y-5852921D02*
G01*
X8372093Y-6046723D01*
X8479281Y-5917437D02*
G01*
X8460740Y-5926836D01*
X8442197Y-5945123D01*
X8433054Y-5972810D01*
X8433054Y-5991352D01*
X8442197Y-6019037D01*
X8460740Y-6037579D01*
X8479281Y-6046723D01*
X8506968Y-6046723D01*
X8525509Y-6037579D01*
X8543797Y-6019037D01*
X8553195Y-5991352D01*
X8553195Y-5972810D01*
X8543797Y-5945123D01*
X8525509Y-5926836D01*
X8506968Y-5917437D01*
X8479281Y-5917437D01*
X8724900Y-5852921D02*
G01*
X8724900Y-6046723D01*
X8724900Y-5945123D02*
G01*
X8706358Y-5926836D01*
X8688070Y-5917437D01*
X8660129Y-5917437D01*
X8641841Y-5926836D01*
X8623300Y-5945123D01*
X8614156Y-5972810D01*
X8614156Y-5991352D01*
X8623300Y-6019037D01*
X8641841Y-6037579D01*
X8660129Y-6046723D01*
X8688070Y-6046723D01*
X8706358Y-6037579D01*
X8724900Y-6019037D01*
X8785859Y-5917437D02*
G01*
X8785859Y-6009894D01*
X8795004Y-6037579D01*
X8813545Y-6046723D01*
X8841231Y-6046723D01*
X8859774Y-6037579D01*
X8887459Y-6009894D01*
X8887459Y-5917437D02*
G01*
X8887459Y-6046723D01*
X8948420Y-5852921D02*
G01*
X8948420Y-6046723D01*
X9009379Y-5972810D02*
G01*
X9120124Y-5972810D01*
X9120124Y-5954521D01*
X9110979Y-5935979D01*
X9101836Y-5926836D01*
X9083293Y-5917437D01*
X9055608Y-5917437D01*
X9037065Y-5926836D01*
X9018524Y-5945123D01*
X9009379Y-5972810D01*
X9009379Y-5991352D01*
X9018524Y-6019037D01*
X9037065Y-6037579D01*
X9055608Y-6046723D01*
X9083293Y-6046723D01*
X9101836Y-6037579D01*
X9120124Y-6019037D01*
X9323324Y-5852921D02*
G01*
X9452609Y-6046723D01*
X9452609Y-5852921D02*
G01*
X9323324Y-6046723D01*
X9606025Y-5852921D02*
G01*
X9513570Y-5982207D01*
X9652254Y-5982207D01*
X9606025Y-5852921D02*
G01*
X9606025Y-6046723D01*
X850900Y-5804915D02*
G01*
X850900Y-5948171D01*
X850900Y-5804915D02*
G01*
X898652Y-5804915D01*
X918971Y-5811773D01*
X932687Y-5825489D01*
X939545Y-5838952D01*
X946404Y-5859526D01*
X946404Y-5893562D01*
X939545Y-5914136D01*
X932687Y-5927597D01*
X918971Y-5941313D01*
X898652Y-5948171D01*
X850900Y-5948171D01*
X991362Y-5893562D02*
G01*
X1073150Y-5893562D01*
X1073150Y-5879845D01*
X1066292Y-5866384D01*
X1059434Y-5859526D01*
X1045971Y-5852668D01*
X1025397Y-5852668D01*
X1011936Y-5859526D01*
X998220Y-5873242D01*
X991362Y-5893562D01*
X991362Y-5907278D01*
X998220Y-5927597D01*
X1011936Y-5941313D01*
X1025397Y-5948171D01*
X1045971Y-5948171D01*
X1059434Y-5941313D01*
X1073150Y-5927597D01*
X1193292Y-5873242D02*
G01*
X1186434Y-5859526D01*
X1165860Y-5852668D01*
X1145539Y-5852668D01*
X1124965Y-5859526D01*
X1118107Y-5873242D01*
X1124965Y-5886704D01*
X1138681Y-5893562D01*
X1172718Y-5900420D01*
X1186434Y-5907278D01*
X1193292Y-5920739D01*
X1193292Y-5927597D01*
X1186434Y-5941313D01*
X1165860Y-5948171D01*
X1145539Y-5948171D01*
X1124965Y-5941313D01*
X1118107Y-5927597D01*
X1238250Y-5804915D02*
G01*
X1245107Y-5811773D01*
X1251712Y-5804915D01*
X1245107Y-5798057D01*
X1238250Y-5804915D01*
X1245107Y-5852668D02*
G01*
X1245107Y-5948171D01*
X1378712Y-5852668D02*
G01*
X1378712Y-5961634D01*
X1371854Y-5982207D01*
X1364995Y-5989065D01*
X1351279Y-5995923D01*
X1330960Y-5995923D01*
X1317244Y-5989065D01*
X1378712Y-5873242D02*
G01*
X1364995Y-5859526D01*
X1351279Y-5852668D01*
X1330960Y-5852668D01*
X1317244Y-5859526D01*
X1303528Y-5873242D01*
X1296923Y-5893562D01*
X1296923Y-5907278D01*
X1303528Y-5927597D01*
X1317244Y-5941313D01*
X1330960Y-5948171D01*
X1351279Y-5948171D01*
X1364995Y-5941313D01*
X1378712Y-5927597D01*
X1423670Y-5852668D02*
G01*
X1423670Y-5948171D01*
X1423670Y-5879845D02*
G01*
X1443989Y-5859526D01*
X1457705Y-5852668D01*
X1478279Y-5852668D01*
X1491742Y-5859526D01*
X1498600Y-5879845D01*
X1498600Y-5948171D01*
X1543557Y-5893562D02*
G01*
X1625345Y-5893562D01*
X1625345Y-5879845D01*
X1618742Y-5866384D01*
X1611884Y-5859526D01*
X1598168Y-5852668D01*
X1577594Y-5852668D01*
X1564131Y-5859526D01*
X1550415Y-5873242D01*
X1543557Y-5893562D01*
X1543557Y-5907278D01*
X1550415Y-5927597D01*
X1564131Y-5941313D01*
X1577594Y-5948171D01*
X1598168Y-5948171D01*
X1611884Y-5941313D01*
X1625345Y-5927597D01*
X1752345Y-5804915D02*
G01*
X1752345Y-5948171D01*
X1752345Y-5873242D02*
G01*
X1738629Y-5859526D01*
X1724913Y-5852668D01*
X1704594Y-5852668D01*
X1690878Y-5859526D01*
X1677162Y-5873242D01*
X1670557Y-5893562D01*
X1670557Y-5907278D01*
X1677162Y-5927597D01*
X1690878Y-5941313D01*
X1704594Y-5948171D01*
X1724913Y-5948171D01*
X1738629Y-5941313D01*
X1752345Y-5927597D01*
X1902205Y-5804915D02*
G01*
X1902205Y-5948171D01*
X1902205Y-5873242D02*
G01*
X1915921Y-5859526D01*
X1929637Y-5852668D01*
X1949958Y-5852668D01*
X1963674Y-5859526D01*
X1977390Y-5873242D01*
X1983993Y-5893562D01*
X1983993Y-5907278D01*
X1977390Y-5927597D01*
X1963674Y-5941313D01*
X1949958Y-5948171D01*
X1929637Y-5948171D01*
X1915921Y-5941313D01*
X1902205Y-5927597D01*
X2035809Y-5852668D02*
G01*
X2076704Y-5948171D01*
X2117597Y-5852668D02*
G01*
X2076704Y-5948171D01*
X2063241Y-5975350D01*
X2049525Y-5989065D01*
X2035809Y-5995923D01*
X2029206Y-5995923D01*
X2267711Y-5804915D02*
G01*
X2267711Y-5948171D01*
X2267711Y-5804915D02*
G01*
X2363215Y-5948171D01*
X2363215Y-5804915D02*
G01*
X2363215Y-5948171D01*
X2408174Y-5804915D02*
G01*
X2415031Y-5811773D01*
X2421890Y-5804915D01*
X2415031Y-5798057D01*
X2408174Y-5804915D01*
X2415031Y-5852668D02*
G01*
X2415031Y-5948171D01*
X2548636Y-5873242D02*
G01*
X2534920Y-5859526D01*
X2521458Y-5852668D01*
X2500884Y-5852668D01*
X2487168Y-5859526D01*
X2473706Y-5873242D01*
X2466847Y-5893562D01*
X2466847Y-5907278D01*
X2473706Y-5927597D01*
X2487168Y-5941313D01*
X2500884Y-5948171D01*
X2521458Y-5948171D01*
X2534920Y-5941313D01*
X2548636Y-5927597D01*
X2593593Y-5804915D02*
G01*
X2593593Y-5948171D01*
X2661920Y-5852668D02*
G01*
X2593593Y-5920739D01*
X2621025Y-5893562D02*
G01*
X2668524Y-5948171D01*
X2713736Y-5832094D02*
G01*
X2727197Y-5825489D01*
X2747772Y-5804915D01*
X2747772Y-5948171D01*
X2792729Y-5832094D02*
G01*
X2806445Y-5825489D01*
X2826765Y-5804915D01*
X2826765Y-5948171D01*
X2953511Y-5825489D02*
G01*
X2946908Y-5811773D01*
X2926334Y-5804915D01*
X2912618Y-5804915D01*
X2892297Y-5811773D01*
X2878581Y-5832094D01*
X2871724Y-5866384D01*
X2871724Y-5900420D01*
X2878581Y-5927597D01*
X2892297Y-5941313D01*
X2912618Y-5948171D01*
X2919475Y-5948171D01*
X2940050Y-5941313D01*
X2953511Y-5927597D01*
X2960370Y-5907278D01*
X2960370Y-5900420D01*
X2953511Y-5879845D01*
X2940050Y-5866384D01*
X2919475Y-5859526D01*
X2912618Y-5859526D01*
X2892297Y-5866384D01*
X2878581Y-5879845D01*
X2871724Y-5900420D01*
X932687Y-6081268D02*
G01*
X932687Y-6190234D01*
X925829Y-6210807D01*
X918971Y-6217665D01*
X905510Y-6224523D01*
X884936Y-6224523D01*
X871473Y-6217665D01*
X932687Y-6101842D02*
G01*
X918971Y-6088126D01*
X905510Y-6081268D01*
X884936Y-6081268D01*
X871473Y-6088126D01*
X857757Y-6101842D01*
X850900Y-6122162D01*
X850900Y-6135878D01*
X857757Y-6156197D01*
X871473Y-6169913D01*
X884936Y-6176771D01*
X905510Y-6176771D01*
X918971Y-6169913D01*
X932687Y-6156197D01*
X977645Y-6033515D02*
G01*
X984504Y-6040373D01*
X991362Y-6033515D01*
X984504Y-6026657D01*
X977645Y-6033515D01*
X984504Y-6081268D02*
G01*
X984504Y-6176771D01*
X1056894Y-6033515D02*
G01*
X1056894Y-6149339D01*
X1063752Y-6169913D01*
X1077213Y-6176771D01*
X1090929Y-6176771D01*
X1036320Y-6081268D02*
G01*
X1084071Y-6081268D01*
X1135887Y-6033515D02*
G01*
X1135887Y-6176771D01*
X1135887Y-6108445D02*
G01*
X1156462Y-6088126D01*
X1169923Y-6081268D01*
X1190497Y-6081268D01*
X1203960Y-6088126D01*
X1210818Y-6108445D01*
X1210818Y-6176771D01*
X1255776Y-6081268D02*
G01*
X1255776Y-6149339D01*
X1262634Y-6169913D01*
X1276350Y-6176771D01*
X1296923Y-6176771D01*
X1310386Y-6169913D01*
X1330960Y-6149339D01*
X1330960Y-6081268D02*
G01*
X1330960Y-6176771D01*
X1375918Y-6033515D02*
G01*
X1375918Y-6176771D01*
X1375918Y-6101842D02*
G01*
X1389634Y-6088126D01*
X1403095Y-6081268D01*
X1423670Y-6081268D01*
X1437386Y-6088126D01*
X1450847Y-6101842D01*
X1457705Y-6122162D01*
X1457705Y-6135878D01*
X1450847Y-6156197D01*
X1437386Y-6169913D01*
X1423670Y-6176771D01*
X1403095Y-6176771D01*
X1389634Y-6169913D01*
X1375918Y-6156197D01*
X1509521Y-6142736D02*
G01*
X1502663Y-6149339D01*
X1509521Y-6156197D01*
X1516379Y-6149339D01*
X1509521Y-6142736D01*
X1643126Y-6101842D02*
G01*
X1629410Y-6088126D01*
X1615947Y-6081268D01*
X1595373Y-6081268D01*
X1581912Y-6088126D01*
X1568195Y-6101842D01*
X1561337Y-6122162D01*
X1561337Y-6135878D01*
X1568195Y-6156197D01*
X1581912Y-6169913D01*
X1595373Y-6176771D01*
X1615947Y-6176771D01*
X1629410Y-6169913D01*
X1643126Y-6156197D01*
X1722373Y-6081268D02*
G01*
X1708657Y-6088126D01*
X1694942Y-6101842D01*
X1688084Y-6122162D01*
X1688084Y-6135878D01*
X1694942Y-6156197D01*
X1708657Y-6169913D01*
X1722373Y-6176771D01*
X1742694Y-6176771D01*
X1756410Y-6169913D01*
X1769871Y-6156197D01*
X1776729Y-6135878D01*
X1776729Y-6122162D01*
X1769871Y-6101842D01*
X1756410Y-6088126D01*
X1742694Y-6081268D01*
X1722373Y-6081268D01*
X1821687Y-6081268D02*
G01*
X1821687Y-6176771D01*
X1821687Y-6108445D02*
G01*
X1842262Y-6088126D01*
X1855978Y-6081268D01*
X1876297Y-6081268D01*
X1890013Y-6088126D01*
X1896871Y-6108445D01*
X1896871Y-6176771D01*
X1896871Y-6108445D02*
G01*
X1917192Y-6088126D01*
X1930908Y-6081268D01*
X1951227Y-6081268D01*
X1964943Y-6088126D01*
X1971802Y-6108445D01*
X1971802Y-6176771D01*
X2139441Y-6006337D02*
G01*
X2016759Y-6224523D01*
X2184654Y-6033515D02*
G01*
X2184654Y-6176771D01*
X2184654Y-6033515D02*
G01*
X2279904Y-6176771D01*
X2279904Y-6033515D02*
G01*
X2279904Y-6176771D01*
X2325115Y-6033515D02*
G01*
X2331720Y-6040373D01*
X2338577Y-6033515D01*
X2331720Y-6026657D01*
X2325115Y-6033515D01*
X2331720Y-6081268D02*
G01*
X2331720Y-6176771D01*
X2465324Y-6101842D02*
G01*
X2451861Y-6088126D01*
X2438145Y-6081268D01*
X2417825Y-6081268D01*
X2404109Y-6088126D01*
X2390393Y-6101842D01*
X2383536Y-6122162D01*
X2383536Y-6135878D01*
X2390393Y-6156197D01*
X2404109Y-6169913D01*
X2417825Y-6176771D01*
X2438145Y-6176771D01*
X2451861Y-6169913D01*
X2465324Y-6156197D01*
X2510536Y-6033515D02*
G01*
X2510536Y-6176771D01*
X2578608Y-6081268D02*
G01*
X2510536Y-6149339D01*
X2537713Y-6122162D02*
G01*
X2585465Y-6176771D01*
X2630424Y-6115304D02*
G01*
X2753106Y-6115304D01*
X2798063Y-6060694D02*
G01*
X2811779Y-6054089D01*
X2832354Y-6033515D01*
X2832354Y-6176771D01*
X2877311Y-6060694D02*
G01*
X2890774Y-6054089D01*
X2911347Y-6033515D01*
X2911347Y-6176771D01*
X3038093Y-6054089D02*
G01*
X3031236Y-6040373D01*
X3010915Y-6033515D01*
X2997200Y-6033515D01*
X2976879Y-6040373D01*
X2963163Y-6060694D01*
X2956306Y-6094984D01*
X2956306Y-6129020D01*
X2963163Y-6156197D01*
X2976879Y-6169913D01*
X2997200Y-6176771D01*
X3004058Y-6176771D01*
X3024631Y-6169913D01*
X3038093Y-6156197D01*
X3044952Y-6135878D01*
X3044952Y-6129020D01*
X3038093Y-6108445D01*
X3024631Y-6094984D01*
X3004058Y-6088126D01*
X2997200Y-6088126D01*
X2976879Y-6094984D01*
X2963163Y-6108445D01*
X2956306Y-6129020D01*
D14*
X3853218Y-5605500D02*
G01*
X3962184Y-5605500D01*
X3853218Y-5605500D02*
G01*
X3853218Y-5569178D01*
X3858298Y-5553430D01*
X3868712Y-5543270D01*
X3879126Y-5537936D01*
X3894874Y-5532856D01*
X3920782Y-5532856D01*
X3936276Y-5537936D01*
X3946690Y-5543270D01*
X3957104Y-5553430D01*
X3962184Y-5569178D01*
X3962184Y-5605500D01*
X3879126Y-5420588D02*
G01*
X3868712Y-5425668D01*
X3858298Y-5436082D01*
X3853218Y-5446496D01*
X3853218Y-5467324D01*
X3858298Y-5477738D01*
X3868712Y-5488152D01*
X3879126Y-5493232D01*
X3894874Y-5498566D01*
X3920782Y-5498566D01*
X3936276Y-5493232D01*
X3946690Y-5488152D01*
X3957104Y-5477738D01*
X3962184Y-5467324D01*
X3962184Y-5446496D01*
X3957104Y-5436082D01*
X3946690Y-5425668D01*
X3936276Y-5420588D01*
X3874046Y-5386298D02*
G01*
X3868712Y-5375884D01*
X3853218Y-5360390D01*
X3962184Y-5360390D01*
X1473200Y-443484D02*
G01*
X1473200Y-521462D01*
X1478279Y-536955D01*
X1488694Y-547370D01*
X1504442Y-552450D01*
X1514855Y-552450D01*
X1530350Y-547370D01*
X1540763Y-536955D01*
X1545844Y-521462D01*
X1545844Y-443484D01*
X1580134Y-464312D02*
G01*
X1590547Y-458978D01*
X1606295Y-443484D01*
X1606295Y-552450D01*
D13*
X1079500Y-2721355D02*
G01*
X1079500Y-2915157D01*
X1079500Y-2721355D02*
G01*
X1199642Y-2721355D01*
X1079500Y-2813557D02*
G01*
X1153413Y-2813557D01*
X1079500Y-2915157D02*
G01*
X1199642Y-2915157D01*
X1389887Y-2749042D02*
G01*
X1371345Y-2730500D01*
X1343660Y-2721355D01*
X1306829Y-2721355D01*
X1278889Y-2730500D01*
X1260602Y-2749042D01*
X1260602Y-2767329D01*
X1269745Y-2785871D01*
X1278889Y-2795270D01*
X1297431Y-2804413D01*
X1352804Y-2822955D01*
X1371345Y-2832100D01*
X1380489Y-2841244D01*
X1389887Y-2859786D01*
X1389887Y-2887471D01*
X1371345Y-2906013D01*
X1343660Y-2915157D01*
X1306829Y-2915157D01*
X1278889Y-2906013D01*
X1260602Y-2887471D01*
X1450847Y-2721355D02*
G01*
X1450847Y-2915157D01*
X1450847Y-2721355D02*
G01*
X1533905Y-2721355D01*
X1561592Y-2730500D01*
X1570989Y-2739644D01*
X1580134Y-2758186D01*
X1580134Y-2785871D01*
X1570989Y-2804413D01*
X1561592Y-2813557D01*
X1533905Y-2822955D01*
X1450847Y-2822955D01*
X1659636Y-2721355D02*
G01*
X1761236Y-2721355D01*
X1705610Y-2795270D01*
X1733550Y-2795270D01*
X1751837Y-2804413D01*
X1761236Y-2813557D01*
X1770379Y-2841244D01*
X1770379Y-2859786D01*
X1761236Y-2887471D01*
X1742694Y-2906013D01*
X1715007Y-2915157D01*
X1687321Y-2915157D01*
X1659636Y-2906013D01*
X1650237Y-2896870D01*
X1641094Y-2878328D01*
X1840484Y-2767329D02*
G01*
X1840484Y-2758186D01*
X1849881Y-2739644D01*
X1859026Y-2730500D01*
X1877568Y-2721355D01*
X1914397Y-2721355D01*
X1932940Y-2730500D01*
X1942084Y-2739644D01*
X1951481Y-2758186D01*
X1951481Y-2776728D01*
X1942084Y-2795270D01*
X1923795Y-2822955D01*
X1831339Y-2915157D01*
X1960625Y-2915157D01*
D14*
X4533900Y-430784D02*
G01*
X4533900Y-508762D01*
X4538979Y-524255D01*
X4549393Y-534670D01*
X4565141Y-539750D01*
X4575556Y-539750D01*
X4591050Y-534670D01*
X4601463Y-524255D01*
X4606543Y-508762D01*
X4606543Y-430784D01*
X4646168Y-456692D02*
G01*
X4646168Y-451612D01*
X4651247Y-441197D01*
X4656581Y-435863D01*
X4666995Y-430784D01*
X4687570Y-430784D01*
X4697984Y-435863D01*
X4703318Y-441197D01*
X4708397Y-451612D01*
X4708397Y-462026D01*
X4703318Y-472439D01*
X4692904Y-487934D01*
X4640834Y-539750D01*
X4713731Y-539750D01*
D13*
X4140200Y-2708655D02*
G01*
X4140200Y-2902457D01*
X4140200Y-2708655D02*
G01*
X4260341Y-2708655D01*
X4140200Y-2800857D02*
G01*
X4214113Y-2800857D01*
X4140200Y-2902457D02*
G01*
X4260341Y-2902457D01*
X4450588Y-2736342D02*
G01*
X4432045Y-2717800D01*
X4404359Y-2708655D01*
X4367529Y-2708655D01*
X4339590Y-2717800D01*
X4321302Y-2736342D01*
X4321302Y-2754629D01*
X4330445Y-2773171D01*
X4339590Y-2782570D01*
X4358131Y-2791713D01*
X4413504Y-2810255D01*
X4432045Y-2819400D01*
X4441190Y-2828544D01*
X4450588Y-2847086D01*
X4450588Y-2874771D01*
X4432045Y-2893313D01*
X4404359Y-2902457D01*
X4367529Y-2902457D01*
X4339590Y-2893313D01*
X4321302Y-2874771D01*
X4511547Y-2708655D02*
G01*
X4511547Y-2902457D01*
X4511547Y-2708655D02*
G01*
X4594606Y-2708655D01*
X4622291Y-2717800D01*
X4631690Y-2726944D01*
X4640834Y-2745486D01*
X4640834Y-2773171D01*
X4631690Y-2791713D01*
X4622291Y-2800857D01*
X4594606Y-2810255D01*
X4511547Y-2810255D01*
X4720336Y-2708655D02*
G01*
X4821936Y-2708655D01*
X4766309Y-2782570D01*
X4794250Y-2782570D01*
X4812538Y-2791713D01*
X4821936Y-2800857D01*
X4831079Y-2828544D01*
X4831079Y-2847086D01*
X4821936Y-2874771D01*
X4803393Y-2893313D01*
X4775708Y-2902457D01*
X4748022Y-2902457D01*
X4720336Y-2893313D01*
X4710938Y-2884170D01*
X4701793Y-2865628D01*
X4901184Y-2754629D02*
G01*
X4901184Y-2745486D01*
X4910581Y-2726944D01*
X4919725Y-2717800D01*
X4938268Y-2708655D01*
X4975097Y-2708655D01*
X4993640Y-2717800D01*
X5002784Y-2726944D01*
X5012181Y-2745486D01*
X5012181Y-2764028D01*
X5002784Y-2782570D01*
X4984495Y-2810255D01*
X4892040Y-2902457D01*
X5021325Y-2902457D01*
D14*
X7632700Y-418084D02*
G01*
X7632700Y-496062D01*
X7637779Y-511555D01*
X7648193Y-521970D01*
X7663941Y-527050D01*
X7674356Y-527050D01*
X7689850Y-521970D01*
X7700263Y-511555D01*
X7705343Y-496062D01*
X7705343Y-418084D01*
X7750047Y-418084D02*
G01*
X7807197Y-418084D01*
X7776209Y-459739D01*
X7791704Y-459739D01*
X7802118Y-464820D01*
X7807197Y-469900D01*
X7812531Y-485647D01*
X7812531Y-496062D01*
X7807197Y-511555D01*
X7796784Y-521970D01*
X7781290Y-527050D01*
X7765795Y-527050D01*
X7750047Y-521970D01*
X7744968Y-516889D01*
X7739634Y-506476D01*
D13*
X7239000Y-2695955D02*
G01*
X7239000Y-2889757D01*
X7239000Y-2695955D02*
G01*
X7359141Y-2695955D01*
X7239000Y-2788157D02*
G01*
X7312913Y-2788157D01*
X7239000Y-2889757D02*
G01*
X7359141Y-2889757D01*
X7549388Y-2723642D02*
G01*
X7530845Y-2705100D01*
X7503159Y-2695955D01*
X7466329Y-2695955D01*
X7438390Y-2705100D01*
X7420102Y-2723642D01*
X7420102Y-2741929D01*
X7429245Y-2760471D01*
X7438390Y-2769870D01*
X7456931Y-2779013D01*
X7512304Y-2797555D01*
X7530845Y-2806700D01*
X7539990Y-2815844D01*
X7549388Y-2834386D01*
X7549388Y-2862071D01*
X7530845Y-2880613D01*
X7503159Y-2889757D01*
X7466329Y-2889757D01*
X7438390Y-2880613D01*
X7420102Y-2862071D01*
X7610347Y-2695955D02*
G01*
X7610347Y-2889757D01*
X7610347Y-2695955D02*
G01*
X7693406Y-2695955D01*
X7721091Y-2705100D01*
X7730490Y-2714244D01*
X7739634Y-2732786D01*
X7739634Y-2760471D01*
X7730490Y-2779013D01*
X7721091Y-2788157D01*
X7693406Y-2797555D01*
X7610347Y-2797555D01*
X7819136Y-2695955D02*
G01*
X7920736Y-2695955D01*
X7865109Y-2769870D01*
X7893050Y-2769870D01*
X7911338Y-2779013D01*
X7920736Y-2788157D01*
X7929879Y-2815844D01*
X7929879Y-2834386D01*
X7920736Y-2862071D01*
X7902193Y-2880613D01*
X7874508Y-2889757D01*
X7846822Y-2889757D01*
X7819136Y-2880613D01*
X7809738Y-2871470D01*
X7800593Y-2852928D01*
X7999984Y-2741929D02*
G01*
X7999984Y-2732786D01*
X8009381Y-2714244D01*
X8018525Y-2705100D01*
X8037068Y-2695955D01*
X8073897Y-2695955D01*
X8092440Y-2705100D01*
X8101584Y-2714244D01*
X8110981Y-2732786D01*
X8110981Y-2751328D01*
X8101584Y-2769870D01*
X8083295Y-2797555D01*
X7990840Y-2889757D01*
X8120125Y-2889757D01*
D14*
X10693400Y-443484D02*
G01*
X10693400Y-521462D01*
X10698479Y-536955D01*
X10708893Y-547370D01*
X10724641Y-552450D01*
X10735056Y-552450D01*
X10750550Y-547370D01*
X10760963Y-536955D01*
X10766043Y-521462D01*
X10766043Y-443484D01*
X10852404Y-443484D02*
G01*
X10800334Y-516128D01*
X10878311Y-516128D01*
X10852404Y-443484D02*
G01*
X10852404Y-552450D01*
D13*
X10299700Y-2721355D02*
G01*
X10299700Y-2915157D01*
X10299700Y-2721355D02*
G01*
X10419841Y-2721355D01*
X10299700Y-2813557D02*
G01*
X10373613Y-2813557D01*
X10299700Y-2915157D02*
G01*
X10419841Y-2915157D01*
X10610088Y-2749042D02*
G01*
X10591545Y-2730500D01*
X10563859Y-2721355D01*
X10527029Y-2721355D01*
X10499090Y-2730500D01*
X10480802Y-2749042D01*
X10480802Y-2767329D01*
X10489945Y-2785871D01*
X10499090Y-2795270D01*
X10517631Y-2804413D01*
X10573004Y-2822955D01*
X10591545Y-2832100D01*
X10600690Y-2841244D01*
X10610088Y-2859786D01*
X10610088Y-2887471D01*
X10591545Y-2906013D01*
X10563859Y-2915157D01*
X10527029Y-2915157D01*
X10499090Y-2906013D01*
X10480802Y-2887471D01*
X10671047Y-2721355D02*
G01*
X10671047Y-2915157D01*
X10671047Y-2721355D02*
G01*
X10754106Y-2721355D01*
X10781791Y-2730500D01*
X10791190Y-2739644D01*
X10800334Y-2758186D01*
X10800334Y-2785871D01*
X10791190Y-2804413D01*
X10781791Y-2813557D01*
X10754106Y-2822955D01*
X10671047Y-2822955D01*
X10879836Y-2721355D02*
G01*
X10981436Y-2721355D01*
X10925809Y-2795270D01*
X10953750Y-2795270D01*
X10972038Y-2804413D01*
X10981436Y-2813557D01*
X10990579Y-2841244D01*
X10990579Y-2859786D01*
X10981436Y-2887471D01*
X10962893Y-2906013D01*
X10935208Y-2915157D01*
X10907522Y-2915157D01*
X10879836Y-2906013D01*
X10870438Y-2896870D01*
X10861293Y-2878328D01*
X11060684Y-2767329D02*
G01*
X11060684Y-2758186D01*
X11070081Y-2739644D01*
X11079225Y-2730500D01*
X11097768Y-2721355D01*
X11134597Y-2721355D01*
X11153140Y-2730500D01*
X11162284Y-2739644D01*
X11171681Y-2758186D01*
X11171681Y-2776728D01*
X11162284Y-2795270D01*
X11143995Y-2822955D01*
X11051540Y-2915157D01*
X11180825Y-2915157D01*
D10*
X4044734Y-6309804D02*
G01*
X4044734Y-4868976D01*
X4043895Y-6309807D02*
G01*
X4943891Y-6309804D01*
X4044734Y-5981725D02*
G01*
X4944732Y-5981725D01*
X4044734Y-4868976D02*
G01*
X4262719Y-4868976D01*
X4715748Y-4868976D02*
G01*
X4943891Y-4868976D01*
X4943891Y-6309804D02*
G01*
X4943891Y-5429044D01*
X4943891Y-4985006D02*
G01*
X4943891Y-4868976D01*
X88900Y-584200D02*
G01*
X2882900Y-584200D01*
X2882900Y-5664200D01*
X88900Y-5664200D01*
X88900Y-584200D01*
X457200Y-711200D02*
G01*
X2489200Y-711200D01*
X2489200Y-3263900D01*
X457200Y-3263900D01*
X457200Y-711200D01*
X711200Y-1460500D02*
G01*
X711200Y-965200D01*
X952500Y-965200D01*
X965200Y-977900D01*
X965200Y-1219200D01*
X1219200Y-1219200D01*
X1219200Y-977900D01*
X1231900Y-965200D01*
X1473200Y-965200D01*
X1473200Y-1219200D01*
X1739900Y-1219200D01*
X1739900Y-965200D01*
X1981200Y-965200D01*
X1981200Y-1473200D01*
X1981200Y-965200D01*
X2235200Y-965200D01*
X2235200Y-1473200D01*
X3149600Y-571500D02*
G01*
X5943600Y-571500D01*
X5943600Y-5651500D01*
X3149600Y-5651500D01*
X3149600Y-571500D01*
X3517900Y-698500D02*
G01*
X5549900Y-698500D01*
X5549900Y-3251200D01*
X3517900Y-3251200D01*
X3517900Y-698500D01*
X3771900Y-1447800D02*
G01*
X3771900Y-952500D01*
X4013200Y-952500D01*
X4025900Y-965200D01*
X4025900Y-1206500D01*
X4279900Y-1206500D01*
X4279900Y-965200D01*
X4292600Y-952500D01*
X4533900Y-952500D01*
X4533900Y-1206500D01*
X4800600Y-1206500D01*
X4800600Y-952500D01*
X5041900Y-952500D01*
X5041900Y-1460500D01*
X5041900Y-952500D01*
X5295900Y-952500D01*
X5295900Y-1460500D01*
X6248400Y-558800D02*
G01*
X9042400Y-558800D01*
X9042400Y-5638800D01*
X6248400Y-5638800D01*
X6248400Y-558800D01*
X6616700Y-685800D02*
G01*
X8648700Y-685800D01*
X8648700Y-3238500D01*
X6616700Y-3238500D01*
X6616700Y-685800D01*
X6870700Y-1435100D02*
G01*
X6870700Y-939800D01*
X7112000Y-939800D01*
X7124700Y-952500D01*
X7124700Y-1193800D01*
X7378700Y-1193800D01*
X7378700Y-952500D01*
X7391400Y-939800D01*
X7632700Y-939800D01*
X7632700Y-1193800D01*
X7899400Y-1193800D01*
X7899400Y-939800D01*
X8140700Y-939800D01*
X8140700Y-1447800D01*
X8140700Y-939800D01*
X8394700Y-939800D01*
X8394700Y-1447800D01*
X9309100Y-584200D02*
G01*
X12103100Y-584200D01*
X12103100Y-5664200D01*
X9309100Y-5664200D01*
X9309100Y-584200D01*
X9677400Y-711200D02*
G01*
X11709400Y-711200D01*
X11709400Y-3263900D01*
X9677400Y-3263900D01*
X9677400Y-711200D01*
X9931400Y-1460500D02*
G01*
X9931400Y-965200D01*
X10172700Y-965200D01*
X10185400Y-977900D01*
X10185400Y-1219200D01*
X10439400Y-1219200D01*
X10439400Y-977900D01*
X10452100Y-965200D01*
X10693400Y-965200D01*
X10693400Y-1219200D01*
X10960100Y-1219200D01*
X10960100Y-965200D01*
X11201400Y-965200D01*
X11201400Y-1473200D01*
X11201400Y-965200D01*
X11455400Y-965200D01*
X11455400Y-1473200D01*
M02*
