G04 Layer: TopLayer*
G04 EasyEDA v6.4.19.5, 2021-06-03T21:19:05--4:00*
G04 414059cc890b428caf1b09701b66df98,e10cd4278cfb41548d653a77c6d3a388,10*
G04 Gerber Generator version 0.2*
G04 Scale: 100 percent, Rotated: No, Reflected: No *
G04 Dimensions in millimeters *
G04 leading zeros omitted , absolute positions ,4 integer and 5 decimal *
%FSLAX45Y45*%
%MOMM*%

%ADD11C,1.5240*%
%ADD12C,1.8000*%

%LPD*%
G36*
X35814Y-6273546D02*
G01*
X31902Y-6272784D01*
X28651Y-6270548D01*
X26416Y-6267297D01*
X25654Y-6263386D01*
X25654Y-35814D01*
X26416Y-31902D01*
X28651Y-28651D01*
X31902Y-26416D01*
X35814Y-25654D01*
X12168886Y-25654D01*
X12172797Y-26416D01*
X12176048Y-28651D01*
X12178284Y-31902D01*
X12179046Y-35814D01*
X12179046Y-6263386D01*
X12178284Y-6267297D01*
X12176048Y-6270548D01*
X12172797Y-6272784D01*
X12168886Y-6273546D01*
G37*

%LPC*%
G36*
X11904472Y-6196990D02*
G01*
X11922658Y-6195568D01*
X11940590Y-6192316D01*
X11958116Y-6187186D01*
X11975033Y-6180328D01*
X11991136Y-6171742D01*
X12006275Y-6161582D01*
X12020296Y-6149898D01*
X12033046Y-6136792D01*
X12044375Y-6122517D01*
X12054128Y-6107074D01*
X12062307Y-6090767D01*
X12068759Y-6073698D01*
X12073382Y-6056071D01*
X12076176Y-6038037D01*
X12077141Y-6019800D01*
X12076176Y-6001562D01*
X12073382Y-5983528D01*
X12068759Y-5965901D01*
X12062307Y-5948832D01*
X12054128Y-5932525D01*
X12044375Y-5917082D01*
X12033046Y-5902807D01*
X12020296Y-5889701D01*
X12006275Y-5878017D01*
X11991136Y-5867857D01*
X11975033Y-5859272D01*
X11958116Y-5852414D01*
X11940590Y-5847283D01*
X11922658Y-5844032D01*
X11904472Y-5842609D01*
X11886234Y-5843066D01*
X11868099Y-5845454D01*
X11850370Y-5849620D01*
X11833148Y-5855614D01*
X11816588Y-5863336D01*
X11800941Y-5872734D01*
X11786362Y-5883706D01*
X11772950Y-5896102D01*
X11760911Y-5909818D01*
X11750344Y-5924651D01*
X11741353Y-5940552D01*
X11734038Y-5957265D01*
X11728500Y-5974638D01*
X11724792Y-5992520D01*
X11722912Y-6010656D01*
X11722912Y-6028944D01*
X11724792Y-6047079D01*
X11728500Y-6064961D01*
X11734038Y-6082334D01*
X11741353Y-6099048D01*
X11750344Y-6114948D01*
X11760911Y-6129782D01*
X11772950Y-6143498D01*
X11786362Y-6155893D01*
X11800941Y-6166866D01*
X11816588Y-6176264D01*
X11833148Y-6183985D01*
X11850370Y-6189980D01*
X11868099Y-6194145D01*
X11886234Y-6196533D01*
G37*
G36*
X309372Y-6184290D02*
G01*
X327558Y-6182868D01*
X345490Y-6179616D01*
X363016Y-6174486D01*
X379933Y-6167628D01*
X396036Y-6159042D01*
X411175Y-6148882D01*
X425196Y-6137198D01*
X437946Y-6124092D01*
X449275Y-6109817D01*
X459028Y-6094374D01*
X467207Y-6078067D01*
X473659Y-6060998D01*
X478282Y-6043371D01*
X481076Y-6025337D01*
X482041Y-6007100D01*
X481076Y-5988862D01*
X478282Y-5970828D01*
X473659Y-5953201D01*
X467207Y-5936132D01*
X459028Y-5919825D01*
X449275Y-5904382D01*
X437946Y-5890107D01*
X425196Y-5877001D01*
X411175Y-5865317D01*
X396036Y-5855157D01*
X379933Y-5846572D01*
X363016Y-5839714D01*
X345490Y-5834583D01*
X327558Y-5831332D01*
X309372Y-5829909D01*
X291134Y-5830366D01*
X272999Y-5832754D01*
X255270Y-5836920D01*
X238048Y-5842914D01*
X221488Y-5850636D01*
X205841Y-5860034D01*
X191262Y-5871006D01*
X177850Y-5883402D01*
X165811Y-5897118D01*
X155244Y-5911951D01*
X146253Y-5927852D01*
X138938Y-5944565D01*
X133400Y-5961938D01*
X129692Y-5979820D01*
X127812Y-5997956D01*
X127812Y-6016244D01*
X129692Y-6034379D01*
X133400Y-6052261D01*
X138938Y-6069634D01*
X146253Y-6086348D01*
X155244Y-6102248D01*
X165811Y-6117082D01*
X177850Y-6130798D01*
X191262Y-6143193D01*
X205841Y-6154166D01*
X221488Y-6163564D01*
X238048Y-6171285D01*
X255270Y-6177280D01*
X272999Y-6181445D01*
X291134Y-6183833D01*
G37*
G36*
X4379569Y-5622645D02*
G01*
X4598924Y-5622645D01*
X4613706Y-5621731D01*
X4627981Y-5618988D01*
X4641799Y-5614517D01*
X4654956Y-5608320D01*
X4667199Y-5600547D01*
X4678375Y-5591302D01*
X4688332Y-5580735D01*
X4696866Y-5568950D01*
X4703876Y-5556250D01*
X4709210Y-5542737D01*
X4712817Y-5528665D01*
X4714646Y-5514289D01*
X4714646Y-5499760D01*
X4712817Y-5485333D01*
X4709210Y-5471261D01*
X4703876Y-5457748D01*
X4696866Y-5445048D01*
X4688332Y-5433314D01*
X4678375Y-5422696D01*
X4667199Y-5413451D01*
X4654956Y-5405678D01*
X4641799Y-5399481D01*
X4627981Y-5395010D01*
X4613706Y-5392267D01*
X4598924Y-5391353D01*
X4379569Y-5391353D01*
X4364736Y-5392267D01*
X4350461Y-5395010D01*
X4336643Y-5399481D01*
X4323537Y-5405678D01*
X4311243Y-5413451D01*
X4300067Y-5422696D01*
X4290161Y-5433314D01*
X4281576Y-5445048D01*
X4274616Y-5457748D01*
X4269282Y-5471261D01*
X4265625Y-5485333D01*
X4263847Y-5499760D01*
X4263847Y-5514289D01*
X4265625Y-5528665D01*
X4269282Y-5542737D01*
X4274616Y-5556250D01*
X4281576Y-5568950D01*
X4290161Y-5580735D01*
X4300067Y-5591302D01*
X4311243Y-5600547D01*
X4323537Y-5608320D01*
X4336643Y-5614517D01*
X4350461Y-5618988D01*
X4364736Y-5621731D01*
G37*
G36*
X4952288Y-5432450D02*
G01*
X4966817Y-5432450D01*
X4981244Y-5430621D01*
X4995316Y-5427014D01*
X5008778Y-5421630D01*
X5021529Y-5414670D01*
X5033264Y-5406136D01*
X5043881Y-5396179D01*
X5053126Y-5385003D01*
X5060899Y-5372709D01*
X5067096Y-5359603D01*
X5071567Y-5345785D01*
X5074310Y-5331510D01*
X5075224Y-5316728D01*
X5075224Y-5097322D01*
X5074310Y-5082540D01*
X5071567Y-5068265D01*
X5067096Y-5054447D01*
X5060899Y-5041341D01*
X5053126Y-5029047D01*
X5043881Y-5017871D01*
X5033264Y-5007914D01*
X5021529Y-4999380D01*
X5008778Y-4992420D01*
X4995316Y-4987036D01*
X4981244Y-4983429D01*
X4966817Y-4981600D01*
X4952288Y-4981600D01*
X4937912Y-4983429D01*
X4923840Y-4987036D01*
X4910328Y-4992420D01*
X4897628Y-4999380D01*
X4885842Y-5007914D01*
X4875276Y-5017871D01*
X4866030Y-5029047D01*
X4858258Y-5041341D01*
X4852060Y-5054447D01*
X4847539Y-5068265D01*
X4844846Y-5082540D01*
X4843932Y-5097322D01*
X4843932Y-5316728D01*
X4844846Y-5331510D01*
X4847539Y-5345785D01*
X4852060Y-5359603D01*
X4858258Y-5372709D01*
X4866030Y-5385003D01*
X4875276Y-5396179D01*
X4885842Y-5406136D01*
X4897628Y-5414670D01*
X4910328Y-5421630D01*
X4923840Y-5427014D01*
X4937912Y-5430621D01*
G37*
G36*
X4369562Y-5022646D02*
G01*
X4377893Y-5022646D01*
X4377893Y-4958334D01*
X4265777Y-4958334D01*
X4271619Y-4968951D01*
X4280154Y-4980736D01*
X4290060Y-4991303D01*
X4301286Y-5000548D01*
X4313529Y-5008321D01*
X4326686Y-5014518D01*
X4340453Y-5018989D01*
X4354728Y-5021732D01*
G37*
G36*
X4600600Y-5022646D02*
G01*
X4608931Y-5022646D01*
X4623714Y-5021732D01*
X4637989Y-5018989D01*
X4651806Y-5014518D01*
X4664964Y-5008321D01*
X4677206Y-5000548D01*
X4688382Y-4991303D01*
X4698339Y-4980736D01*
X4706874Y-4968951D01*
X4712716Y-4958334D01*
X4600600Y-4958334D01*
G37*
G36*
X11959996Y-4876952D02*
G01*
X11973610Y-4876495D01*
X11987022Y-4874260D01*
X11999976Y-4870246D01*
X12012320Y-4864506D01*
X12023801Y-4857191D01*
X12034215Y-4848402D01*
X12043308Y-4838293D01*
X12051030Y-4827117D01*
X12057126Y-4814976D01*
X12061596Y-4802124D01*
X12064339Y-4788763D01*
X12065254Y-4775200D01*
X12064339Y-4761636D01*
X12061596Y-4748276D01*
X12057126Y-4735423D01*
X12051030Y-4723282D01*
X12043308Y-4712106D01*
X12034215Y-4701997D01*
X12023801Y-4693208D01*
X12012320Y-4685893D01*
X11999976Y-4680153D01*
X11987022Y-4676140D01*
X11973610Y-4673904D01*
X11959996Y-4673447D01*
X11946483Y-4674768D01*
X11933224Y-4677918D01*
X11920524Y-4682845D01*
X11908586Y-4689348D01*
X11897664Y-4697425D01*
X11887860Y-4706874D01*
X11879427Y-4717592D01*
X11872518Y-4729276D01*
X11867184Y-4741773D01*
X11863628Y-4754930D01*
X11861800Y-4768392D01*
X11861800Y-4782007D01*
X11863628Y-4795469D01*
X11867184Y-4808626D01*
X11872518Y-4821123D01*
X11879427Y-4832807D01*
X11887860Y-4843526D01*
X11897664Y-4852974D01*
X11908586Y-4861052D01*
X11920524Y-4867554D01*
X11933224Y-4872482D01*
X11946483Y-4875631D01*
G37*
G36*
X2739796Y-4876952D02*
G01*
X2753410Y-4876495D01*
X2766822Y-4874260D01*
X2779776Y-4870246D01*
X2792120Y-4864506D01*
X2803601Y-4857191D01*
X2814015Y-4848402D01*
X2823108Y-4838293D01*
X2830830Y-4827117D01*
X2836926Y-4814976D01*
X2841396Y-4802124D01*
X2844139Y-4788763D01*
X2845054Y-4775200D01*
X2844139Y-4761636D01*
X2841396Y-4748276D01*
X2836926Y-4735423D01*
X2830830Y-4723282D01*
X2823108Y-4712106D01*
X2814015Y-4701997D01*
X2803601Y-4693208D01*
X2792120Y-4685893D01*
X2779776Y-4680153D01*
X2766822Y-4676140D01*
X2753410Y-4673904D01*
X2739796Y-4673447D01*
X2726283Y-4674768D01*
X2713024Y-4677918D01*
X2700324Y-4682845D01*
X2688386Y-4689348D01*
X2677464Y-4697425D01*
X2667660Y-4706874D01*
X2659227Y-4717592D01*
X2652318Y-4729276D01*
X2646984Y-4741773D01*
X2643428Y-4754930D01*
X2641600Y-4768392D01*
X2641600Y-4782007D01*
X2643428Y-4795469D01*
X2646984Y-4808626D01*
X2652318Y-4821123D01*
X2659227Y-4832807D01*
X2667660Y-4843526D01*
X2677464Y-4852974D01*
X2688386Y-4861052D01*
X2700324Y-4867554D01*
X2713024Y-4872482D01*
X2726283Y-4875631D01*
G37*
G36*
X158750Y-4866690D02*
G01*
X158750Y-4819650D01*
X111709Y-4819650D01*
X112318Y-4821123D01*
X119227Y-4832807D01*
X127660Y-4843526D01*
X137464Y-4852974D01*
X148386Y-4861052D01*
G37*
G36*
X9378950Y-4866690D02*
G01*
X9378950Y-4819650D01*
X9331909Y-4819650D01*
X9332518Y-4821123D01*
X9339427Y-4832807D01*
X9347860Y-4843526D01*
X9357664Y-4852974D01*
X9368586Y-4861052D01*
G37*
G36*
X9467850Y-4866589D02*
G01*
X9472320Y-4864506D01*
X9483801Y-4857191D01*
X9494215Y-4848402D01*
X9503308Y-4838293D01*
X9511030Y-4827117D01*
X9514789Y-4819650D01*
X9467850Y-4819650D01*
G37*
G36*
X247650Y-4866589D02*
G01*
X252120Y-4864506D01*
X263601Y-4857191D01*
X274015Y-4848402D01*
X283108Y-4838293D01*
X290830Y-4827117D01*
X294589Y-4819650D01*
X247650Y-4819650D01*
G37*
G36*
X5800496Y-4864252D02*
G01*
X5814110Y-4863795D01*
X5827522Y-4861560D01*
X5840476Y-4857546D01*
X5852820Y-4851806D01*
X5864301Y-4844491D01*
X5874715Y-4835702D01*
X5883808Y-4825593D01*
X5891530Y-4814417D01*
X5897626Y-4802276D01*
X5902096Y-4789424D01*
X5904839Y-4776063D01*
X5905754Y-4762500D01*
X5904839Y-4748936D01*
X5902096Y-4735576D01*
X5897626Y-4722723D01*
X5891530Y-4710582D01*
X5883808Y-4699406D01*
X5874715Y-4689297D01*
X5864301Y-4680508D01*
X5852820Y-4673193D01*
X5840476Y-4667453D01*
X5827522Y-4663440D01*
X5814110Y-4661204D01*
X5800496Y-4660747D01*
X5786983Y-4662068D01*
X5773724Y-4665218D01*
X5761024Y-4670145D01*
X5749086Y-4676648D01*
X5738164Y-4684725D01*
X5728360Y-4694174D01*
X5719927Y-4704892D01*
X5713018Y-4716576D01*
X5707684Y-4729073D01*
X5704128Y-4742230D01*
X5702300Y-4755692D01*
X5702300Y-4769307D01*
X5704128Y-4782769D01*
X5707684Y-4795926D01*
X5713018Y-4808423D01*
X5719927Y-4820107D01*
X5728360Y-4830826D01*
X5738164Y-4840274D01*
X5749086Y-4848352D01*
X5761024Y-4854854D01*
X5773724Y-4859782D01*
X5786983Y-4862931D01*
G37*
G36*
X4600600Y-4855667D02*
G01*
X4712716Y-4855667D01*
X4706874Y-4845050D01*
X4698339Y-4833315D01*
X4688382Y-4822698D01*
X4677206Y-4813452D01*
X4664964Y-4805680D01*
X4651806Y-4799482D01*
X4637989Y-4795012D01*
X4623714Y-4792268D01*
X4608931Y-4791354D01*
X4600600Y-4791354D01*
G37*
G36*
X4265777Y-4855667D02*
G01*
X4377893Y-4855667D01*
X4377893Y-4791354D01*
X4369562Y-4791354D01*
X4354728Y-4792268D01*
X4340453Y-4795012D01*
X4326686Y-4799482D01*
X4313529Y-4805680D01*
X4301286Y-4813452D01*
X4290060Y-4822698D01*
X4280154Y-4833315D01*
X4271619Y-4845050D01*
G37*
G36*
X3219450Y-4853990D02*
G01*
X3219450Y-4806950D01*
X3172409Y-4806950D01*
X3173018Y-4808423D01*
X3179927Y-4820107D01*
X3188360Y-4830826D01*
X3198164Y-4840274D01*
X3209086Y-4848352D01*
G37*
G36*
X3308350Y-4853889D02*
G01*
X3312820Y-4851806D01*
X3324301Y-4844491D01*
X3334715Y-4835702D01*
X3343808Y-4825593D01*
X3351529Y-4814417D01*
X3355289Y-4806950D01*
X3308350Y-4806950D01*
G37*
G36*
X8899296Y-4851552D02*
G01*
X8912910Y-4851095D01*
X8926322Y-4848860D01*
X8939276Y-4844846D01*
X8951620Y-4839106D01*
X8963101Y-4831791D01*
X8973515Y-4823002D01*
X8982608Y-4812893D01*
X8990330Y-4801717D01*
X8996426Y-4789576D01*
X9000896Y-4776724D01*
X9003639Y-4763363D01*
X9004554Y-4749800D01*
X9003639Y-4736236D01*
X9000896Y-4722876D01*
X8996426Y-4710023D01*
X8990330Y-4697882D01*
X8982608Y-4686706D01*
X8973515Y-4676597D01*
X8963101Y-4667808D01*
X8951620Y-4660493D01*
X8939276Y-4654753D01*
X8926322Y-4650740D01*
X8912910Y-4648504D01*
X8899296Y-4648047D01*
X8885783Y-4649368D01*
X8872524Y-4652518D01*
X8859824Y-4657445D01*
X8847886Y-4663948D01*
X8836964Y-4672025D01*
X8827160Y-4681474D01*
X8818727Y-4692192D01*
X8811818Y-4703876D01*
X8806484Y-4716373D01*
X8802928Y-4729530D01*
X8801100Y-4742992D01*
X8801100Y-4756607D01*
X8802928Y-4770069D01*
X8806484Y-4783226D01*
X8811818Y-4795723D01*
X8818727Y-4807407D01*
X8827160Y-4818126D01*
X8836964Y-4827574D01*
X8847886Y-4835652D01*
X8859824Y-4842154D01*
X8872524Y-4847082D01*
X8885783Y-4850231D01*
G37*
G36*
X6318250Y-4841290D02*
G01*
X6318250Y-4794250D01*
X6271209Y-4794250D01*
X6271818Y-4795723D01*
X6278727Y-4807407D01*
X6287160Y-4818126D01*
X6296964Y-4827574D01*
X6307886Y-4835652D01*
G37*
G36*
X6407150Y-4841189D02*
G01*
X6411620Y-4839106D01*
X6423101Y-4831791D01*
X6433515Y-4823002D01*
X6442608Y-4812893D01*
X6450330Y-4801717D01*
X6454089Y-4794250D01*
X6407150Y-4794250D01*
G37*
G36*
X9467850Y-4730750D02*
G01*
X9514789Y-4730750D01*
X9511030Y-4723282D01*
X9503308Y-4712106D01*
X9494215Y-4701997D01*
X9483801Y-4693208D01*
X9472320Y-4685893D01*
X9467850Y-4683810D01*
G37*
G36*
X247650Y-4730750D02*
G01*
X294589Y-4730750D01*
X290830Y-4723282D01*
X283108Y-4712106D01*
X274015Y-4701997D01*
X263601Y-4693208D01*
X252120Y-4685893D01*
X247650Y-4683810D01*
G37*
G36*
X111709Y-4730750D02*
G01*
X158750Y-4730750D01*
X158750Y-4683709D01*
X148386Y-4689348D01*
X137464Y-4697425D01*
X127660Y-4706874D01*
X119227Y-4717592D01*
X112318Y-4729276D01*
G37*
G36*
X9331909Y-4730750D02*
G01*
X9378950Y-4730750D01*
X9378950Y-4683709D01*
X9368586Y-4689348D01*
X9357664Y-4697425D01*
X9347860Y-4706874D01*
X9339427Y-4717592D01*
X9332518Y-4729276D01*
G37*
G36*
X3308350Y-4718050D02*
G01*
X3355289Y-4718050D01*
X3351529Y-4710582D01*
X3343808Y-4699406D01*
X3334715Y-4689297D01*
X3324301Y-4680508D01*
X3312820Y-4673193D01*
X3308350Y-4671110D01*
G37*
G36*
X3172409Y-4718050D02*
G01*
X3219450Y-4718050D01*
X3219450Y-4671009D01*
X3209086Y-4676648D01*
X3198164Y-4684725D01*
X3188360Y-4694174D01*
X3179927Y-4704892D01*
X3173018Y-4716576D01*
G37*
G36*
X6407150Y-4705350D02*
G01*
X6454089Y-4705350D01*
X6450330Y-4697882D01*
X6442608Y-4686706D01*
X6433515Y-4676597D01*
X6423101Y-4667808D01*
X6411620Y-4660493D01*
X6407150Y-4658410D01*
G37*
G36*
X6271209Y-4705350D02*
G01*
X6318250Y-4705350D01*
X6318250Y-4658309D01*
X6307886Y-4663948D01*
X6296964Y-4672025D01*
X6287160Y-4681474D01*
X6278727Y-4692192D01*
X6271818Y-4703876D01*
G37*
G36*
X9419996Y-4622952D02*
G01*
X9433610Y-4622495D01*
X9447022Y-4620260D01*
X9459976Y-4616246D01*
X9472320Y-4610506D01*
X9483801Y-4603191D01*
X9494215Y-4594402D01*
X9503308Y-4584293D01*
X9511030Y-4573117D01*
X9517126Y-4560976D01*
X9521596Y-4548124D01*
X9524339Y-4534763D01*
X9525254Y-4521200D01*
X9524339Y-4507636D01*
X9521596Y-4494276D01*
X9517126Y-4481423D01*
X9511030Y-4469282D01*
X9503308Y-4458106D01*
X9494215Y-4447997D01*
X9483801Y-4439208D01*
X9472320Y-4431893D01*
X9459976Y-4426153D01*
X9447022Y-4422140D01*
X9433610Y-4419904D01*
X9419996Y-4419447D01*
X9406483Y-4420768D01*
X9393224Y-4423918D01*
X9380524Y-4428845D01*
X9368586Y-4435348D01*
X9357664Y-4443425D01*
X9347860Y-4452874D01*
X9339427Y-4463592D01*
X9332518Y-4475276D01*
X9327184Y-4487773D01*
X9323628Y-4500930D01*
X9321800Y-4514392D01*
X9321800Y-4528007D01*
X9323628Y-4541469D01*
X9327184Y-4554626D01*
X9332518Y-4567123D01*
X9339427Y-4578807D01*
X9347860Y-4589526D01*
X9357664Y-4598974D01*
X9368586Y-4607052D01*
X9380524Y-4613554D01*
X9393224Y-4618482D01*
X9406483Y-4621631D01*
G37*
G36*
X11959996Y-4622952D02*
G01*
X11973610Y-4622495D01*
X11987022Y-4620260D01*
X11999976Y-4616246D01*
X12012320Y-4610506D01*
X12023801Y-4603191D01*
X12034215Y-4594402D01*
X12043308Y-4584293D01*
X12051030Y-4573117D01*
X12057126Y-4560976D01*
X12061596Y-4548124D01*
X12064339Y-4534763D01*
X12065254Y-4521200D01*
X12064339Y-4507636D01*
X12061596Y-4494276D01*
X12057126Y-4481423D01*
X12051030Y-4469282D01*
X12043308Y-4458106D01*
X12034215Y-4447997D01*
X12023801Y-4439208D01*
X12012320Y-4431893D01*
X11999976Y-4426153D01*
X11987022Y-4422140D01*
X11973610Y-4419904D01*
X11959996Y-4419447D01*
X11946483Y-4420768D01*
X11933224Y-4423918D01*
X11920524Y-4428845D01*
X11908586Y-4435348D01*
X11897664Y-4443425D01*
X11887860Y-4452874D01*
X11879427Y-4463592D01*
X11872518Y-4475276D01*
X11867184Y-4487773D01*
X11863628Y-4500930D01*
X11861800Y-4514392D01*
X11861800Y-4528007D01*
X11863628Y-4541469D01*
X11867184Y-4554626D01*
X11872518Y-4567123D01*
X11879427Y-4578807D01*
X11887860Y-4589526D01*
X11897664Y-4598974D01*
X11908586Y-4607052D01*
X11920524Y-4613554D01*
X11933224Y-4618482D01*
X11946483Y-4621631D01*
G37*
G36*
X2739796Y-4622952D02*
G01*
X2753410Y-4622495D01*
X2766822Y-4620260D01*
X2779776Y-4616246D01*
X2792120Y-4610506D01*
X2803601Y-4603191D01*
X2814015Y-4594402D01*
X2823108Y-4584293D01*
X2830830Y-4573117D01*
X2836926Y-4560976D01*
X2841396Y-4548124D01*
X2844139Y-4534763D01*
X2845054Y-4521200D01*
X2844139Y-4507636D01*
X2841396Y-4494276D01*
X2836926Y-4481423D01*
X2830830Y-4469282D01*
X2823108Y-4458106D01*
X2814015Y-4447997D01*
X2803601Y-4439208D01*
X2792120Y-4431893D01*
X2779776Y-4426153D01*
X2766822Y-4422140D01*
X2753410Y-4419904D01*
X2739796Y-4419447D01*
X2726283Y-4420768D01*
X2713024Y-4423918D01*
X2700324Y-4428845D01*
X2688386Y-4435348D01*
X2677464Y-4443425D01*
X2667660Y-4452874D01*
X2659227Y-4463592D01*
X2652318Y-4475276D01*
X2646984Y-4487773D01*
X2643428Y-4500930D01*
X2641600Y-4514392D01*
X2641600Y-4528007D01*
X2643428Y-4541469D01*
X2646984Y-4554626D01*
X2652318Y-4567123D01*
X2659227Y-4578807D01*
X2667660Y-4589526D01*
X2677464Y-4598974D01*
X2688386Y-4607052D01*
X2700324Y-4613554D01*
X2713024Y-4618482D01*
X2726283Y-4621631D01*
G37*
G36*
X158750Y-4612690D02*
G01*
X158750Y-4565650D01*
X111709Y-4565650D01*
X112318Y-4567123D01*
X119227Y-4578807D01*
X127660Y-4589526D01*
X137464Y-4598974D01*
X148386Y-4607052D01*
G37*
G36*
X247650Y-4612589D02*
G01*
X252120Y-4610506D01*
X263601Y-4603191D01*
X274015Y-4594402D01*
X283108Y-4584293D01*
X290830Y-4573117D01*
X294589Y-4565650D01*
X247650Y-4565650D01*
G37*
G36*
X5800496Y-4610252D02*
G01*
X5814110Y-4609795D01*
X5827522Y-4607560D01*
X5840476Y-4603546D01*
X5852820Y-4597806D01*
X5864301Y-4590491D01*
X5874715Y-4581702D01*
X5883808Y-4571593D01*
X5891530Y-4560417D01*
X5897626Y-4548276D01*
X5902096Y-4535424D01*
X5904839Y-4522063D01*
X5905754Y-4508500D01*
X5904839Y-4494936D01*
X5902096Y-4481576D01*
X5897626Y-4468723D01*
X5891530Y-4456582D01*
X5883808Y-4445406D01*
X5874715Y-4435297D01*
X5864301Y-4426508D01*
X5852820Y-4419193D01*
X5840476Y-4413453D01*
X5827522Y-4409440D01*
X5814110Y-4407204D01*
X5800496Y-4406747D01*
X5786983Y-4408068D01*
X5773724Y-4411218D01*
X5761024Y-4416145D01*
X5749086Y-4422648D01*
X5738164Y-4430725D01*
X5728360Y-4440174D01*
X5719927Y-4450892D01*
X5713018Y-4462576D01*
X5707684Y-4475073D01*
X5704128Y-4488230D01*
X5702300Y-4501692D01*
X5702300Y-4515307D01*
X5704128Y-4528769D01*
X5707684Y-4541926D01*
X5713018Y-4554423D01*
X5719927Y-4566107D01*
X5728360Y-4576826D01*
X5738164Y-4586274D01*
X5749086Y-4594352D01*
X5761024Y-4600854D01*
X5773724Y-4605782D01*
X5786983Y-4608931D01*
G37*
G36*
X3260496Y-4610252D02*
G01*
X3274110Y-4609795D01*
X3287522Y-4607560D01*
X3300476Y-4603546D01*
X3312820Y-4597806D01*
X3324301Y-4590491D01*
X3334715Y-4581702D01*
X3343808Y-4571593D01*
X3351529Y-4560417D01*
X3357626Y-4548276D01*
X3362096Y-4535424D01*
X3364839Y-4522063D01*
X3365754Y-4508500D01*
X3364839Y-4494936D01*
X3362096Y-4481576D01*
X3357626Y-4468723D01*
X3351529Y-4456582D01*
X3343808Y-4445406D01*
X3334715Y-4435297D01*
X3324301Y-4426508D01*
X3312820Y-4419193D01*
X3300476Y-4413453D01*
X3287522Y-4409440D01*
X3274110Y-4407204D01*
X3260496Y-4406747D01*
X3246983Y-4408068D01*
X3233724Y-4411218D01*
X3221024Y-4416145D01*
X3209086Y-4422648D01*
X3198164Y-4430725D01*
X3188360Y-4440174D01*
X3179927Y-4450892D01*
X3173018Y-4462576D01*
X3167684Y-4475073D01*
X3164128Y-4488230D01*
X3162300Y-4501692D01*
X3162300Y-4515307D01*
X3164128Y-4528769D01*
X3167684Y-4541926D01*
X3173018Y-4554423D01*
X3179927Y-4566107D01*
X3188360Y-4576826D01*
X3198164Y-4586274D01*
X3209086Y-4594352D01*
X3221024Y-4600854D01*
X3233724Y-4605782D01*
X3246983Y-4608931D01*
G37*
G36*
X6359296Y-4597552D02*
G01*
X6372910Y-4597095D01*
X6386322Y-4594860D01*
X6399276Y-4590846D01*
X6411620Y-4585106D01*
X6423101Y-4577791D01*
X6433515Y-4569002D01*
X6442608Y-4558893D01*
X6450330Y-4547717D01*
X6456426Y-4535576D01*
X6460896Y-4522724D01*
X6463639Y-4509363D01*
X6464554Y-4495800D01*
X6463639Y-4482236D01*
X6460896Y-4468876D01*
X6456426Y-4456023D01*
X6450330Y-4443882D01*
X6442608Y-4432706D01*
X6433515Y-4422597D01*
X6423101Y-4413808D01*
X6411620Y-4406493D01*
X6399276Y-4400753D01*
X6386322Y-4396740D01*
X6372910Y-4394504D01*
X6359296Y-4394047D01*
X6345783Y-4395368D01*
X6332524Y-4398518D01*
X6319824Y-4403445D01*
X6307886Y-4409948D01*
X6296964Y-4418025D01*
X6287160Y-4427474D01*
X6278727Y-4438192D01*
X6271818Y-4449876D01*
X6266484Y-4462373D01*
X6262928Y-4475530D01*
X6261100Y-4488992D01*
X6261100Y-4502607D01*
X6262928Y-4516069D01*
X6266484Y-4529226D01*
X6271818Y-4541723D01*
X6278727Y-4553407D01*
X6287160Y-4564126D01*
X6296964Y-4573574D01*
X6307886Y-4581652D01*
X6319824Y-4588154D01*
X6332524Y-4593082D01*
X6345783Y-4596231D01*
G37*
G36*
X8899296Y-4597552D02*
G01*
X8912910Y-4597095D01*
X8926322Y-4594860D01*
X8939276Y-4590846D01*
X8951620Y-4585106D01*
X8963101Y-4577791D01*
X8973515Y-4569002D01*
X8982608Y-4558893D01*
X8990330Y-4547717D01*
X8996426Y-4535576D01*
X9000896Y-4522724D01*
X9003639Y-4509363D01*
X9004554Y-4495800D01*
X9003639Y-4482236D01*
X9000896Y-4468876D01*
X8996426Y-4456023D01*
X8990330Y-4443882D01*
X8982608Y-4432706D01*
X8973515Y-4422597D01*
X8963101Y-4413808D01*
X8951620Y-4406493D01*
X8939276Y-4400753D01*
X8926322Y-4396740D01*
X8912910Y-4394504D01*
X8899296Y-4394047D01*
X8885783Y-4395368D01*
X8872524Y-4398518D01*
X8859824Y-4403445D01*
X8847886Y-4409948D01*
X8836964Y-4418025D01*
X8827160Y-4427474D01*
X8818727Y-4438192D01*
X8811818Y-4449876D01*
X8806484Y-4462373D01*
X8802928Y-4475530D01*
X8801100Y-4488992D01*
X8801100Y-4502607D01*
X8802928Y-4516069D01*
X8806484Y-4529226D01*
X8811818Y-4541723D01*
X8818727Y-4553407D01*
X8827160Y-4564126D01*
X8836964Y-4573574D01*
X8847886Y-4581652D01*
X8859824Y-4588154D01*
X8872524Y-4593082D01*
X8885783Y-4596231D01*
G37*
G36*
X247650Y-4476750D02*
G01*
X294589Y-4476750D01*
X290830Y-4469282D01*
X283108Y-4458106D01*
X274015Y-4447997D01*
X263601Y-4439208D01*
X252120Y-4431893D01*
X247650Y-4429810D01*
G37*
G36*
X111709Y-4476750D02*
G01*
X158750Y-4476750D01*
X158750Y-4429709D01*
X148386Y-4435348D01*
X137464Y-4443425D01*
X127660Y-4452874D01*
X119227Y-4463592D01*
X112318Y-4475276D01*
G37*
G36*
X199796Y-4368952D02*
G01*
X213410Y-4368495D01*
X226821Y-4366260D01*
X239775Y-4362246D01*
X252120Y-4356506D01*
X263601Y-4349191D01*
X274015Y-4340402D01*
X283108Y-4330293D01*
X290830Y-4319117D01*
X296926Y-4306976D01*
X301396Y-4294124D01*
X304139Y-4280763D01*
X305054Y-4267200D01*
X304139Y-4253636D01*
X301396Y-4240276D01*
X296926Y-4227423D01*
X290830Y-4215282D01*
X283108Y-4204106D01*
X274015Y-4193997D01*
X263601Y-4185208D01*
X252120Y-4177893D01*
X239775Y-4172153D01*
X226821Y-4168140D01*
X213410Y-4165904D01*
X199796Y-4165447D01*
X186283Y-4166768D01*
X173024Y-4169918D01*
X160324Y-4174845D01*
X148386Y-4181348D01*
X137464Y-4189425D01*
X127660Y-4198874D01*
X119227Y-4209592D01*
X112318Y-4221276D01*
X106984Y-4233773D01*
X103428Y-4246930D01*
X101600Y-4260392D01*
X101600Y-4274007D01*
X103428Y-4287469D01*
X106984Y-4300626D01*
X112318Y-4313123D01*
X119227Y-4324807D01*
X127660Y-4335526D01*
X137464Y-4344974D01*
X148386Y-4353052D01*
X160324Y-4359554D01*
X173024Y-4364482D01*
X186283Y-4367631D01*
G37*
G36*
X11959996Y-4368952D02*
G01*
X11973610Y-4368495D01*
X11987022Y-4366260D01*
X11999976Y-4362246D01*
X12012320Y-4356506D01*
X12023801Y-4349191D01*
X12034215Y-4340402D01*
X12043308Y-4330293D01*
X12051030Y-4319117D01*
X12057126Y-4306976D01*
X12061596Y-4294124D01*
X12064339Y-4280763D01*
X12065254Y-4267200D01*
X12064339Y-4253636D01*
X12061596Y-4240276D01*
X12057126Y-4227423D01*
X12051030Y-4215282D01*
X12043308Y-4204106D01*
X12034215Y-4193997D01*
X12023801Y-4185208D01*
X12012320Y-4177893D01*
X11999976Y-4172153D01*
X11987022Y-4168140D01*
X11973610Y-4165904D01*
X11959996Y-4165447D01*
X11946483Y-4166768D01*
X11933224Y-4169918D01*
X11920524Y-4174845D01*
X11908586Y-4181348D01*
X11897664Y-4189425D01*
X11887860Y-4198874D01*
X11879427Y-4209592D01*
X11872518Y-4221276D01*
X11867184Y-4233773D01*
X11863628Y-4246930D01*
X11861800Y-4260392D01*
X11861800Y-4274007D01*
X11863628Y-4287469D01*
X11867184Y-4300626D01*
X11872518Y-4313123D01*
X11879427Y-4324807D01*
X11887860Y-4335526D01*
X11897664Y-4344974D01*
X11908586Y-4353052D01*
X11920524Y-4359554D01*
X11933224Y-4364482D01*
X11946483Y-4367631D01*
G37*
G36*
X9419996Y-4368952D02*
G01*
X9433610Y-4368495D01*
X9447022Y-4366260D01*
X9459976Y-4362246D01*
X9472320Y-4356506D01*
X9483801Y-4349191D01*
X9494215Y-4340402D01*
X9503308Y-4330293D01*
X9511030Y-4319117D01*
X9517126Y-4306976D01*
X9521596Y-4294124D01*
X9524339Y-4280763D01*
X9525254Y-4267200D01*
X9524339Y-4253636D01*
X9521596Y-4240276D01*
X9517126Y-4227423D01*
X9511030Y-4215282D01*
X9503308Y-4204106D01*
X9494215Y-4193997D01*
X9483801Y-4185208D01*
X9472320Y-4177893D01*
X9459976Y-4172153D01*
X9447022Y-4168140D01*
X9433610Y-4165904D01*
X9419996Y-4165447D01*
X9406483Y-4166768D01*
X9393224Y-4169918D01*
X9380524Y-4174845D01*
X9368586Y-4181348D01*
X9357664Y-4189425D01*
X9347860Y-4198874D01*
X9339427Y-4209592D01*
X9332518Y-4221276D01*
X9327184Y-4233773D01*
X9323628Y-4246930D01*
X9321800Y-4260392D01*
X9321800Y-4274007D01*
X9323628Y-4287469D01*
X9327184Y-4300626D01*
X9332518Y-4313123D01*
X9339427Y-4324807D01*
X9347860Y-4335526D01*
X9357664Y-4344974D01*
X9368586Y-4353052D01*
X9380524Y-4359554D01*
X9393224Y-4364482D01*
X9406483Y-4367631D01*
G37*
G36*
X2739796Y-4368952D02*
G01*
X2753410Y-4368495D01*
X2766822Y-4366260D01*
X2779776Y-4362246D01*
X2792120Y-4356506D01*
X2803601Y-4349191D01*
X2814015Y-4340402D01*
X2823108Y-4330293D01*
X2830830Y-4319117D01*
X2836926Y-4306976D01*
X2841396Y-4294124D01*
X2844139Y-4280763D01*
X2845054Y-4267200D01*
X2844139Y-4253636D01*
X2841396Y-4240276D01*
X2836926Y-4227423D01*
X2830830Y-4215282D01*
X2823108Y-4204106D01*
X2814015Y-4193997D01*
X2803601Y-4185208D01*
X2792120Y-4177893D01*
X2779776Y-4172153D01*
X2766822Y-4168140D01*
X2753410Y-4165904D01*
X2739796Y-4165447D01*
X2726283Y-4166768D01*
X2713024Y-4169918D01*
X2700324Y-4174845D01*
X2688386Y-4181348D01*
X2677464Y-4189425D01*
X2667660Y-4198874D01*
X2659227Y-4209592D01*
X2652318Y-4221276D01*
X2646984Y-4233773D01*
X2643428Y-4246930D01*
X2641600Y-4260392D01*
X2641600Y-4274007D01*
X2643428Y-4287469D01*
X2646984Y-4300626D01*
X2652318Y-4313123D01*
X2659227Y-4324807D01*
X2667660Y-4335526D01*
X2677464Y-4344974D01*
X2688386Y-4353052D01*
X2700324Y-4359554D01*
X2713024Y-4364482D01*
X2726283Y-4367631D01*
G37*
G36*
X3260496Y-4356252D02*
G01*
X3274110Y-4355795D01*
X3287522Y-4353560D01*
X3300476Y-4349546D01*
X3312820Y-4343806D01*
X3324301Y-4336491D01*
X3334715Y-4327702D01*
X3343808Y-4317593D01*
X3351529Y-4306417D01*
X3357626Y-4294276D01*
X3362096Y-4281424D01*
X3364839Y-4268063D01*
X3365754Y-4254500D01*
X3364839Y-4240936D01*
X3362096Y-4227576D01*
X3357626Y-4214723D01*
X3351529Y-4202582D01*
X3343808Y-4191406D01*
X3334715Y-4181297D01*
X3324301Y-4172508D01*
X3312820Y-4165193D01*
X3300476Y-4159453D01*
X3287522Y-4155440D01*
X3274110Y-4153204D01*
X3260496Y-4152747D01*
X3246983Y-4154068D01*
X3233724Y-4157218D01*
X3221024Y-4162145D01*
X3209086Y-4168648D01*
X3198164Y-4176725D01*
X3188360Y-4186174D01*
X3179927Y-4196892D01*
X3173018Y-4208576D01*
X3167684Y-4221073D01*
X3164128Y-4234230D01*
X3162300Y-4247692D01*
X3162300Y-4261307D01*
X3164128Y-4274769D01*
X3167684Y-4287926D01*
X3173018Y-4300423D01*
X3179927Y-4312107D01*
X3188360Y-4322826D01*
X3198164Y-4332274D01*
X3209086Y-4340352D01*
X3221024Y-4346854D01*
X3233724Y-4351782D01*
X3246983Y-4354931D01*
G37*
G36*
X5800496Y-4356252D02*
G01*
X5814110Y-4355795D01*
X5827522Y-4353560D01*
X5840476Y-4349546D01*
X5852820Y-4343806D01*
X5864301Y-4336491D01*
X5874715Y-4327702D01*
X5883808Y-4317593D01*
X5891530Y-4306417D01*
X5897626Y-4294276D01*
X5902096Y-4281424D01*
X5904839Y-4268063D01*
X5905754Y-4254500D01*
X5904839Y-4240936D01*
X5902096Y-4227576D01*
X5897626Y-4214723D01*
X5891530Y-4202582D01*
X5883808Y-4191406D01*
X5874715Y-4181297D01*
X5864301Y-4172508D01*
X5852820Y-4165193D01*
X5840476Y-4159453D01*
X5827522Y-4155440D01*
X5814110Y-4153204D01*
X5800496Y-4152747D01*
X5786983Y-4154068D01*
X5773724Y-4157218D01*
X5761024Y-4162145D01*
X5749086Y-4168648D01*
X5738164Y-4176725D01*
X5728360Y-4186174D01*
X5719927Y-4196892D01*
X5713018Y-4208576D01*
X5707684Y-4221073D01*
X5704128Y-4234230D01*
X5702300Y-4247692D01*
X5702300Y-4261307D01*
X5704128Y-4274769D01*
X5707684Y-4287926D01*
X5713018Y-4300423D01*
X5719927Y-4312107D01*
X5728360Y-4322826D01*
X5738164Y-4332274D01*
X5749086Y-4340352D01*
X5761024Y-4346854D01*
X5773724Y-4351782D01*
X5786983Y-4354931D01*
G37*
G36*
X6359296Y-4343552D02*
G01*
X6372910Y-4343095D01*
X6386322Y-4340860D01*
X6399276Y-4336846D01*
X6411620Y-4331106D01*
X6423101Y-4323791D01*
X6433515Y-4315002D01*
X6442608Y-4304893D01*
X6450330Y-4293717D01*
X6456426Y-4281576D01*
X6460896Y-4268724D01*
X6463639Y-4255363D01*
X6464554Y-4241800D01*
X6463639Y-4228236D01*
X6460896Y-4214876D01*
X6456426Y-4202023D01*
X6450330Y-4189882D01*
X6442608Y-4178706D01*
X6433515Y-4168597D01*
X6423101Y-4159808D01*
X6411620Y-4152493D01*
X6399276Y-4146753D01*
X6386322Y-4142740D01*
X6372910Y-4140504D01*
X6359296Y-4140047D01*
X6345783Y-4141368D01*
X6332524Y-4144518D01*
X6319824Y-4149445D01*
X6307886Y-4155948D01*
X6296964Y-4164025D01*
X6287160Y-4173474D01*
X6278727Y-4184192D01*
X6271818Y-4195876D01*
X6266484Y-4208373D01*
X6262928Y-4221530D01*
X6261100Y-4234992D01*
X6261100Y-4248607D01*
X6262928Y-4262069D01*
X6266484Y-4275226D01*
X6271818Y-4287723D01*
X6278727Y-4299407D01*
X6287160Y-4310126D01*
X6296964Y-4319574D01*
X6307886Y-4327652D01*
X6319824Y-4334154D01*
X6332524Y-4339082D01*
X6345783Y-4342231D01*
G37*
G36*
X8899296Y-4343552D02*
G01*
X8912910Y-4343095D01*
X8926322Y-4340860D01*
X8939276Y-4336846D01*
X8951620Y-4331106D01*
X8963101Y-4323791D01*
X8973515Y-4315002D01*
X8982608Y-4304893D01*
X8990330Y-4293717D01*
X8996426Y-4281576D01*
X9000896Y-4268724D01*
X9003639Y-4255363D01*
X9004554Y-4241800D01*
X9003639Y-4228236D01*
X9000896Y-4214876D01*
X8996426Y-4202023D01*
X8990330Y-4189882D01*
X8982608Y-4178706D01*
X8973515Y-4168597D01*
X8963101Y-4159808D01*
X8951620Y-4152493D01*
X8939276Y-4146753D01*
X8926322Y-4142740D01*
X8912910Y-4140504D01*
X8899296Y-4140047D01*
X8885783Y-4141368D01*
X8872524Y-4144518D01*
X8859824Y-4149445D01*
X8847886Y-4155948D01*
X8836964Y-4164025D01*
X8827160Y-4173474D01*
X8818727Y-4184192D01*
X8811818Y-4195876D01*
X8806484Y-4208373D01*
X8802928Y-4221530D01*
X8801100Y-4234992D01*
X8801100Y-4248607D01*
X8802928Y-4262069D01*
X8806484Y-4275226D01*
X8811818Y-4287723D01*
X8818727Y-4299407D01*
X8827160Y-4310126D01*
X8836964Y-4319574D01*
X8847886Y-4327652D01*
X8859824Y-4334154D01*
X8872524Y-4339082D01*
X8885783Y-4342231D01*
G37*
G36*
X199796Y-4114952D02*
G01*
X213410Y-4114495D01*
X226821Y-4112260D01*
X239775Y-4108246D01*
X252120Y-4102506D01*
X263601Y-4095191D01*
X274015Y-4086402D01*
X283108Y-4076293D01*
X290830Y-4065117D01*
X296926Y-4052976D01*
X301396Y-4040124D01*
X304139Y-4026763D01*
X305054Y-4013200D01*
X304139Y-3999636D01*
X301396Y-3986276D01*
X296926Y-3973423D01*
X290830Y-3961282D01*
X283108Y-3950106D01*
X274015Y-3939997D01*
X263601Y-3931208D01*
X252120Y-3923893D01*
X239775Y-3918153D01*
X226821Y-3914140D01*
X213410Y-3911904D01*
X199796Y-3911447D01*
X186283Y-3912768D01*
X173024Y-3915918D01*
X160324Y-3920845D01*
X148386Y-3927348D01*
X137464Y-3935425D01*
X127660Y-3944874D01*
X119227Y-3955592D01*
X112318Y-3967276D01*
X106984Y-3979773D01*
X103428Y-3992930D01*
X101600Y-4006392D01*
X101600Y-4020007D01*
X103428Y-4033469D01*
X106984Y-4046626D01*
X112318Y-4059123D01*
X119227Y-4070807D01*
X127660Y-4081526D01*
X137464Y-4090974D01*
X148386Y-4099051D01*
X160324Y-4105554D01*
X173024Y-4110482D01*
X186283Y-4113631D01*
G37*
G36*
X2739796Y-4114952D02*
G01*
X2753410Y-4114495D01*
X2766822Y-4112260D01*
X2779776Y-4108246D01*
X2792120Y-4102506D01*
X2803601Y-4095191D01*
X2814015Y-4086402D01*
X2823108Y-4076293D01*
X2830830Y-4065117D01*
X2836926Y-4052976D01*
X2841396Y-4040124D01*
X2844139Y-4026763D01*
X2845054Y-4013200D01*
X2844139Y-3999636D01*
X2841396Y-3986276D01*
X2836926Y-3973423D01*
X2830830Y-3961282D01*
X2823108Y-3950106D01*
X2814015Y-3939997D01*
X2803601Y-3931208D01*
X2792120Y-3923893D01*
X2779776Y-3918153D01*
X2766822Y-3914140D01*
X2753410Y-3911904D01*
X2739796Y-3911447D01*
X2726283Y-3912768D01*
X2713024Y-3915918D01*
X2700324Y-3920845D01*
X2688386Y-3927348D01*
X2677464Y-3935425D01*
X2667660Y-3944874D01*
X2659227Y-3955592D01*
X2652318Y-3967276D01*
X2646984Y-3979773D01*
X2643428Y-3992930D01*
X2641600Y-4006392D01*
X2641600Y-4020007D01*
X2643428Y-4033469D01*
X2646984Y-4046626D01*
X2652318Y-4059123D01*
X2659227Y-4070807D01*
X2667660Y-4081526D01*
X2677464Y-4090974D01*
X2688386Y-4099051D01*
X2700324Y-4105554D01*
X2713024Y-4110482D01*
X2726283Y-4113631D01*
G37*
G36*
X11959996Y-4114952D02*
G01*
X11973610Y-4114495D01*
X11987022Y-4112260D01*
X11999976Y-4108246D01*
X12012320Y-4102506D01*
X12023801Y-4095191D01*
X12034215Y-4086402D01*
X12043308Y-4076293D01*
X12051030Y-4065117D01*
X12057126Y-4052976D01*
X12061596Y-4040124D01*
X12064339Y-4026763D01*
X12065254Y-4013200D01*
X12064339Y-3999636D01*
X12061596Y-3986276D01*
X12057126Y-3973423D01*
X12051030Y-3961282D01*
X12043308Y-3950106D01*
X12034215Y-3939997D01*
X12023801Y-3931208D01*
X12012320Y-3923893D01*
X11999976Y-3918153D01*
X11987022Y-3914140D01*
X11973610Y-3911904D01*
X11959996Y-3911447D01*
X11946483Y-3912768D01*
X11933224Y-3915918D01*
X11920524Y-3920845D01*
X11908586Y-3927348D01*
X11897664Y-3935425D01*
X11887860Y-3944874D01*
X11879427Y-3955592D01*
X11872518Y-3967276D01*
X11867184Y-3979773D01*
X11863628Y-3992930D01*
X11861800Y-4006392D01*
X11861800Y-4020007D01*
X11863628Y-4033469D01*
X11867184Y-4046626D01*
X11872518Y-4059123D01*
X11879427Y-4070807D01*
X11887860Y-4081526D01*
X11897664Y-4090974D01*
X11908586Y-4099051D01*
X11920524Y-4105554D01*
X11933224Y-4110482D01*
X11946483Y-4113631D01*
G37*
G36*
X9419996Y-4114952D02*
G01*
X9433610Y-4114495D01*
X9447022Y-4112260D01*
X9459976Y-4108246D01*
X9472320Y-4102506D01*
X9483801Y-4095191D01*
X9494215Y-4086402D01*
X9503308Y-4076293D01*
X9511030Y-4065117D01*
X9517126Y-4052976D01*
X9521596Y-4040124D01*
X9524339Y-4026763D01*
X9525254Y-4013200D01*
X9524339Y-3999636D01*
X9521596Y-3986276D01*
X9517126Y-3973423D01*
X9511030Y-3961282D01*
X9503308Y-3950106D01*
X9494215Y-3939997D01*
X9483801Y-3931208D01*
X9472320Y-3923893D01*
X9459976Y-3918153D01*
X9447022Y-3914140D01*
X9433610Y-3911904D01*
X9419996Y-3911447D01*
X9406483Y-3912768D01*
X9393224Y-3915918D01*
X9380524Y-3920845D01*
X9368586Y-3927348D01*
X9357664Y-3935425D01*
X9347860Y-3944874D01*
X9339427Y-3955592D01*
X9332518Y-3967276D01*
X9327184Y-3979773D01*
X9323628Y-3992930D01*
X9321800Y-4006392D01*
X9321800Y-4020007D01*
X9323628Y-4033469D01*
X9327184Y-4046626D01*
X9332518Y-4059123D01*
X9339427Y-4070807D01*
X9347860Y-4081526D01*
X9357664Y-4090974D01*
X9368586Y-4099051D01*
X9380524Y-4105554D01*
X9393224Y-4110482D01*
X9406483Y-4113631D01*
G37*
G36*
X3260496Y-4102252D02*
G01*
X3274110Y-4101795D01*
X3287522Y-4099560D01*
X3300476Y-4095546D01*
X3312820Y-4089806D01*
X3324301Y-4082491D01*
X3334715Y-4073702D01*
X3343808Y-4063593D01*
X3351529Y-4052417D01*
X3357626Y-4040276D01*
X3362096Y-4027424D01*
X3364839Y-4014063D01*
X3365754Y-4000500D01*
X3364839Y-3986936D01*
X3362096Y-3973576D01*
X3357626Y-3960723D01*
X3351529Y-3948582D01*
X3343808Y-3937406D01*
X3334715Y-3927297D01*
X3324301Y-3918508D01*
X3312820Y-3911193D01*
X3300476Y-3905453D01*
X3287522Y-3901440D01*
X3274110Y-3899204D01*
X3260496Y-3898747D01*
X3246983Y-3900068D01*
X3233724Y-3903218D01*
X3221024Y-3908145D01*
X3209086Y-3914648D01*
X3198164Y-3922725D01*
X3188360Y-3932174D01*
X3179927Y-3942892D01*
X3173018Y-3954576D01*
X3167684Y-3967073D01*
X3164128Y-3980230D01*
X3162300Y-3993692D01*
X3162300Y-4007307D01*
X3164128Y-4020769D01*
X3167684Y-4033926D01*
X3173018Y-4046423D01*
X3179927Y-4058107D01*
X3188360Y-4068826D01*
X3198164Y-4078274D01*
X3209086Y-4086351D01*
X3221024Y-4092854D01*
X3233724Y-4097782D01*
X3246983Y-4100931D01*
G37*
G36*
X5800496Y-4102252D02*
G01*
X5814110Y-4101795D01*
X5827522Y-4099560D01*
X5840476Y-4095546D01*
X5852820Y-4089806D01*
X5864301Y-4082491D01*
X5874715Y-4073702D01*
X5883808Y-4063593D01*
X5891530Y-4052417D01*
X5897626Y-4040276D01*
X5902096Y-4027424D01*
X5904839Y-4014063D01*
X5905754Y-4000500D01*
X5904839Y-3986936D01*
X5902096Y-3973576D01*
X5897626Y-3960723D01*
X5891530Y-3948582D01*
X5883808Y-3937406D01*
X5874715Y-3927297D01*
X5864301Y-3918508D01*
X5852820Y-3911193D01*
X5840476Y-3905453D01*
X5827522Y-3901440D01*
X5814110Y-3899204D01*
X5800496Y-3898747D01*
X5786983Y-3900068D01*
X5773724Y-3903218D01*
X5761024Y-3908145D01*
X5749086Y-3914648D01*
X5738164Y-3922725D01*
X5728360Y-3932174D01*
X5719927Y-3942892D01*
X5713018Y-3954576D01*
X5707684Y-3967073D01*
X5704128Y-3980230D01*
X5702300Y-3993692D01*
X5702300Y-4007307D01*
X5704128Y-4020769D01*
X5707684Y-4033926D01*
X5713018Y-4046423D01*
X5719927Y-4058107D01*
X5728360Y-4068826D01*
X5738164Y-4078274D01*
X5749086Y-4086351D01*
X5761024Y-4092854D01*
X5773724Y-4097782D01*
X5786983Y-4100931D01*
G37*
G36*
X6359296Y-4089552D02*
G01*
X6372910Y-4089095D01*
X6386322Y-4086860D01*
X6399276Y-4082846D01*
X6411620Y-4077106D01*
X6423101Y-4069791D01*
X6433515Y-4061002D01*
X6442608Y-4050893D01*
X6450330Y-4039717D01*
X6456426Y-4027576D01*
X6460896Y-4014724D01*
X6463639Y-4001363D01*
X6464554Y-3987800D01*
X6463639Y-3974236D01*
X6460896Y-3960876D01*
X6456426Y-3948023D01*
X6450330Y-3935882D01*
X6442608Y-3924706D01*
X6433515Y-3914597D01*
X6423101Y-3905808D01*
X6411620Y-3898493D01*
X6399276Y-3892753D01*
X6386322Y-3888740D01*
X6372910Y-3886504D01*
X6359296Y-3886047D01*
X6345783Y-3887368D01*
X6332524Y-3890518D01*
X6319824Y-3895445D01*
X6307886Y-3901948D01*
X6296964Y-3910025D01*
X6287160Y-3919474D01*
X6278727Y-3930192D01*
X6271818Y-3941876D01*
X6266484Y-3954373D01*
X6262928Y-3967530D01*
X6261100Y-3980992D01*
X6261100Y-3994607D01*
X6262928Y-4008069D01*
X6266484Y-4021226D01*
X6271818Y-4033723D01*
X6278727Y-4045407D01*
X6287160Y-4056126D01*
X6296964Y-4065574D01*
X6307886Y-4073651D01*
X6319824Y-4080154D01*
X6332524Y-4085082D01*
X6345783Y-4088231D01*
G37*
G36*
X8899296Y-4089552D02*
G01*
X8912910Y-4089095D01*
X8926322Y-4086860D01*
X8939276Y-4082846D01*
X8951620Y-4077106D01*
X8963101Y-4069791D01*
X8973515Y-4061002D01*
X8982608Y-4050893D01*
X8990330Y-4039717D01*
X8996426Y-4027576D01*
X9000896Y-4014724D01*
X9003639Y-4001363D01*
X9004554Y-3987800D01*
X9003639Y-3974236D01*
X9000896Y-3960876D01*
X8996426Y-3948023D01*
X8990330Y-3935882D01*
X8982608Y-3924706D01*
X8973515Y-3914597D01*
X8963101Y-3905808D01*
X8951620Y-3898493D01*
X8939276Y-3892753D01*
X8926322Y-3888740D01*
X8912910Y-3886504D01*
X8899296Y-3886047D01*
X8885783Y-3887368D01*
X8872524Y-3890518D01*
X8859824Y-3895445D01*
X8847886Y-3901948D01*
X8836964Y-3910025D01*
X8827160Y-3919474D01*
X8818727Y-3930192D01*
X8811818Y-3941876D01*
X8806484Y-3954373D01*
X8802928Y-3967530D01*
X8801100Y-3980992D01*
X8801100Y-3994607D01*
X8802928Y-4008069D01*
X8806484Y-4021226D01*
X8811818Y-4033723D01*
X8818727Y-4045407D01*
X8827160Y-4056126D01*
X8836964Y-4065574D01*
X8847886Y-4073651D01*
X8859824Y-4080154D01*
X8872524Y-4085082D01*
X8885783Y-4088231D01*
G37*
G36*
X199796Y-3860952D02*
G01*
X213410Y-3860495D01*
X226821Y-3858260D01*
X239775Y-3854246D01*
X252120Y-3848506D01*
X263601Y-3841191D01*
X274015Y-3832402D01*
X283108Y-3822293D01*
X290830Y-3811117D01*
X296926Y-3798976D01*
X301396Y-3786124D01*
X304139Y-3772763D01*
X305054Y-3759200D01*
X304139Y-3745636D01*
X301396Y-3732276D01*
X296926Y-3719423D01*
X290830Y-3707282D01*
X283108Y-3696106D01*
X274015Y-3685997D01*
X263601Y-3677208D01*
X252120Y-3669893D01*
X239775Y-3664153D01*
X226821Y-3660140D01*
X213410Y-3657904D01*
X199796Y-3657447D01*
X186283Y-3658768D01*
X173024Y-3661918D01*
X160324Y-3666845D01*
X148386Y-3673348D01*
X137464Y-3681425D01*
X127660Y-3690874D01*
X119227Y-3701592D01*
X112318Y-3713276D01*
X106984Y-3725773D01*
X103428Y-3738930D01*
X101600Y-3752392D01*
X101600Y-3766007D01*
X103428Y-3779469D01*
X106984Y-3792626D01*
X112318Y-3805123D01*
X119227Y-3816807D01*
X127660Y-3827526D01*
X137464Y-3836974D01*
X148386Y-3845051D01*
X160324Y-3851554D01*
X173024Y-3856482D01*
X186283Y-3859631D01*
G37*
G36*
X11959996Y-3860952D02*
G01*
X11973610Y-3860495D01*
X11987022Y-3858260D01*
X11999976Y-3854246D01*
X12012320Y-3848506D01*
X12023801Y-3841191D01*
X12034215Y-3832402D01*
X12043308Y-3822293D01*
X12051030Y-3811117D01*
X12057126Y-3798976D01*
X12061596Y-3786124D01*
X12064339Y-3772763D01*
X12065254Y-3759200D01*
X12064339Y-3745636D01*
X12061596Y-3732276D01*
X12057126Y-3719423D01*
X12051030Y-3707282D01*
X12043308Y-3696106D01*
X12034215Y-3685997D01*
X12023801Y-3677208D01*
X12012320Y-3669893D01*
X11999976Y-3664153D01*
X11987022Y-3660140D01*
X11973610Y-3657904D01*
X11959996Y-3657447D01*
X11946483Y-3658768D01*
X11933224Y-3661918D01*
X11920524Y-3666845D01*
X11908586Y-3673348D01*
X11897664Y-3681425D01*
X11887860Y-3690874D01*
X11879427Y-3701592D01*
X11872518Y-3713276D01*
X11867184Y-3725773D01*
X11863628Y-3738930D01*
X11861800Y-3752392D01*
X11861800Y-3766007D01*
X11863628Y-3779469D01*
X11867184Y-3792626D01*
X11872518Y-3805123D01*
X11879427Y-3816807D01*
X11887860Y-3827526D01*
X11897664Y-3836974D01*
X11908586Y-3845051D01*
X11920524Y-3851554D01*
X11933224Y-3856482D01*
X11946483Y-3859631D01*
G37*
G36*
X9419996Y-3860952D02*
G01*
X9433610Y-3860495D01*
X9447022Y-3858260D01*
X9459976Y-3854246D01*
X9472320Y-3848506D01*
X9483801Y-3841191D01*
X9494215Y-3832402D01*
X9503308Y-3822293D01*
X9511030Y-3811117D01*
X9517126Y-3798976D01*
X9521596Y-3786124D01*
X9524339Y-3772763D01*
X9525254Y-3759200D01*
X9524339Y-3745636D01*
X9521596Y-3732276D01*
X9517126Y-3719423D01*
X9511030Y-3707282D01*
X9503308Y-3696106D01*
X9494215Y-3685997D01*
X9483801Y-3677208D01*
X9472320Y-3669893D01*
X9459976Y-3664153D01*
X9447022Y-3660140D01*
X9433610Y-3657904D01*
X9419996Y-3657447D01*
X9406483Y-3658768D01*
X9393224Y-3661918D01*
X9380524Y-3666845D01*
X9368586Y-3673348D01*
X9357664Y-3681425D01*
X9347860Y-3690874D01*
X9339427Y-3701592D01*
X9332518Y-3713276D01*
X9327184Y-3725773D01*
X9323628Y-3738930D01*
X9321800Y-3752392D01*
X9321800Y-3766007D01*
X9323628Y-3779469D01*
X9327184Y-3792626D01*
X9332518Y-3805123D01*
X9339427Y-3816807D01*
X9347860Y-3827526D01*
X9357664Y-3836974D01*
X9368586Y-3845051D01*
X9380524Y-3851554D01*
X9393224Y-3856482D01*
X9406483Y-3859631D01*
G37*
G36*
X2739796Y-3860952D02*
G01*
X2753410Y-3860495D01*
X2766822Y-3858260D01*
X2779776Y-3854246D01*
X2792120Y-3848506D01*
X2803601Y-3841191D01*
X2814015Y-3832402D01*
X2823108Y-3822293D01*
X2830830Y-3811117D01*
X2836926Y-3798976D01*
X2841396Y-3786124D01*
X2844139Y-3772763D01*
X2845054Y-3759200D01*
X2844139Y-3745636D01*
X2841396Y-3732276D01*
X2836926Y-3719423D01*
X2830830Y-3707282D01*
X2823108Y-3696106D01*
X2814015Y-3685997D01*
X2803601Y-3677208D01*
X2792120Y-3669893D01*
X2779776Y-3664153D01*
X2766822Y-3660140D01*
X2753410Y-3657904D01*
X2739796Y-3657447D01*
X2726283Y-3658768D01*
X2713024Y-3661918D01*
X2700324Y-3666845D01*
X2688386Y-3673348D01*
X2677464Y-3681425D01*
X2667660Y-3690874D01*
X2659227Y-3701592D01*
X2652318Y-3713276D01*
X2646984Y-3725773D01*
X2643428Y-3738930D01*
X2641600Y-3752392D01*
X2641600Y-3766007D01*
X2643428Y-3779469D01*
X2646984Y-3792626D01*
X2652318Y-3805123D01*
X2659227Y-3816807D01*
X2667660Y-3827526D01*
X2677464Y-3836974D01*
X2688386Y-3845051D01*
X2700324Y-3851554D01*
X2713024Y-3856482D01*
X2726283Y-3859631D01*
G37*
G36*
X5800496Y-3848252D02*
G01*
X5814110Y-3847795D01*
X5827522Y-3845560D01*
X5840476Y-3841546D01*
X5852820Y-3835806D01*
X5864301Y-3828491D01*
X5874715Y-3819702D01*
X5883808Y-3809593D01*
X5891530Y-3798417D01*
X5897626Y-3786276D01*
X5902096Y-3773424D01*
X5904839Y-3760063D01*
X5905754Y-3746500D01*
X5904839Y-3732936D01*
X5902096Y-3719576D01*
X5897626Y-3706723D01*
X5891530Y-3694582D01*
X5883808Y-3683406D01*
X5874715Y-3673297D01*
X5864301Y-3664508D01*
X5852820Y-3657193D01*
X5840476Y-3651453D01*
X5827522Y-3647440D01*
X5814110Y-3645204D01*
X5800496Y-3644747D01*
X5786983Y-3646068D01*
X5773724Y-3649218D01*
X5761024Y-3654145D01*
X5749086Y-3660648D01*
X5738164Y-3668725D01*
X5728360Y-3678174D01*
X5719927Y-3688892D01*
X5713018Y-3700576D01*
X5707684Y-3713073D01*
X5704128Y-3726230D01*
X5702300Y-3739692D01*
X5702300Y-3753307D01*
X5704128Y-3766769D01*
X5707684Y-3779926D01*
X5713018Y-3792423D01*
X5719927Y-3804107D01*
X5728360Y-3814826D01*
X5738164Y-3824274D01*
X5749086Y-3832351D01*
X5761024Y-3838854D01*
X5773724Y-3843782D01*
X5786983Y-3846931D01*
G37*
G36*
X3260496Y-3848252D02*
G01*
X3274110Y-3847795D01*
X3287522Y-3845560D01*
X3300476Y-3841546D01*
X3312820Y-3835806D01*
X3324301Y-3828491D01*
X3334715Y-3819702D01*
X3343808Y-3809593D01*
X3351529Y-3798417D01*
X3357626Y-3786276D01*
X3362096Y-3773424D01*
X3364839Y-3760063D01*
X3365754Y-3746500D01*
X3364839Y-3732936D01*
X3362096Y-3719576D01*
X3357626Y-3706723D01*
X3351529Y-3694582D01*
X3343808Y-3683406D01*
X3334715Y-3673297D01*
X3324301Y-3664508D01*
X3312820Y-3657193D01*
X3300476Y-3651453D01*
X3287522Y-3647440D01*
X3274110Y-3645204D01*
X3260496Y-3644747D01*
X3246983Y-3646068D01*
X3233724Y-3649218D01*
X3221024Y-3654145D01*
X3209086Y-3660648D01*
X3198164Y-3668725D01*
X3188360Y-3678174D01*
X3179927Y-3688892D01*
X3173018Y-3700576D01*
X3167684Y-3713073D01*
X3164128Y-3726230D01*
X3162300Y-3739692D01*
X3162300Y-3753307D01*
X3164128Y-3766769D01*
X3167684Y-3779926D01*
X3173018Y-3792423D01*
X3179927Y-3804107D01*
X3188360Y-3814826D01*
X3198164Y-3824274D01*
X3209086Y-3832351D01*
X3221024Y-3838854D01*
X3233724Y-3843782D01*
X3246983Y-3846931D01*
G37*
G36*
X8899296Y-3835552D02*
G01*
X8912910Y-3835095D01*
X8926322Y-3832860D01*
X8939276Y-3828846D01*
X8951620Y-3823106D01*
X8963101Y-3815791D01*
X8973515Y-3807002D01*
X8982608Y-3796893D01*
X8990330Y-3785717D01*
X8996426Y-3773576D01*
X9000896Y-3760724D01*
X9003639Y-3747363D01*
X9004554Y-3733800D01*
X9003639Y-3720236D01*
X9000896Y-3706876D01*
X8996426Y-3694023D01*
X8990330Y-3681882D01*
X8982608Y-3670706D01*
X8973515Y-3660597D01*
X8963101Y-3651808D01*
X8951620Y-3644493D01*
X8939276Y-3638753D01*
X8926322Y-3634740D01*
X8912910Y-3632504D01*
X8899296Y-3632047D01*
X8885783Y-3633368D01*
X8872524Y-3636518D01*
X8859824Y-3641445D01*
X8847886Y-3647948D01*
X8836964Y-3656025D01*
X8827160Y-3665474D01*
X8818727Y-3676192D01*
X8811818Y-3687876D01*
X8806484Y-3700373D01*
X8802928Y-3713530D01*
X8801100Y-3726992D01*
X8801100Y-3740607D01*
X8802928Y-3754069D01*
X8806484Y-3767226D01*
X8811818Y-3779723D01*
X8818727Y-3791407D01*
X8827160Y-3802126D01*
X8836964Y-3811574D01*
X8847886Y-3819651D01*
X8859824Y-3826154D01*
X8872524Y-3831082D01*
X8885783Y-3834231D01*
G37*
G36*
X6359296Y-3835552D02*
G01*
X6372910Y-3835095D01*
X6386322Y-3832860D01*
X6399276Y-3828846D01*
X6411620Y-3823106D01*
X6423101Y-3815791D01*
X6433515Y-3807002D01*
X6442608Y-3796893D01*
X6450330Y-3785717D01*
X6456426Y-3773576D01*
X6460896Y-3760724D01*
X6463639Y-3747363D01*
X6464554Y-3733800D01*
X6463639Y-3720236D01*
X6460896Y-3706876D01*
X6456426Y-3694023D01*
X6450330Y-3681882D01*
X6442608Y-3670706D01*
X6433515Y-3660597D01*
X6423101Y-3651808D01*
X6411620Y-3644493D01*
X6399276Y-3638753D01*
X6386322Y-3634740D01*
X6372910Y-3632504D01*
X6359296Y-3632047D01*
X6345783Y-3633368D01*
X6332524Y-3636518D01*
X6319824Y-3641445D01*
X6307886Y-3647948D01*
X6296964Y-3656025D01*
X6287160Y-3665474D01*
X6278727Y-3676192D01*
X6271818Y-3687876D01*
X6266484Y-3700373D01*
X6262928Y-3713530D01*
X6261100Y-3726992D01*
X6261100Y-3740607D01*
X6262928Y-3754069D01*
X6266484Y-3767226D01*
X6271818Y-3779723D01*
X6278727Y-3791407D01*
X6287160Y-3802126D01*
X6296964Y-3811574D01*
X6307886Y-3819651D01*
X6319824Y-3826154D01*
X6332524Y-3831082D01*
X6345783Y-3834231D01*
G37*
G36*
X199796Y-3606952D02*
G01*
X213410Y-3606495D01*
X226821Y-3604260D01*
X239775Y-3600246D01*
X252120Y-3594506D01*
X263601Y-3587191D01*
X274015Y-3578402D01*
X283108Y-3568293D01*
X290830Y-3557117D01*
X296926Y-3544976D01*
X301396Y-3532124D01*
X304139Y-3518763D01*
X305054Y-3505200D01*
X304139Y-3491636D01*
X301396Y-3478276D01*
X296926Y-3465423D01*
X290830Y-3453282D01*
X283108Y-3442106D01*
X274015Y-3431997D01*
X263601Y-3423208D01*
X252120Y-3415893D01*
X239775Y-3410153D01*
X226821Y-3406140D01*
X213410Y-3403904D01*
X199796Y-3403447D01*
X186283Y-3404768D01*
X173024Y-3407918D01*
X160324Y-3412845D01*
X148386Y-3419348D01*
X137464Y-3427425D01*
X127660Y-3436874D01*
X119227Y-3447592D01*
X112318Y-3459276D01*
X106984Y-3471773D01*
X103428Y-3484930D01*
X101600Y-3498392D01*
X101600Y-3512007D01*
X103428Y-3525469D01*
X106984Y-3538626D01*
X112318Y-3551123D01*
X119227Y-3562807D01*
X127660Y-3573526D01*
X137464Y-3582974D01*
X148386Y-3591051D01*
X160324Y-3597554D01*
X173024Y-3602482D01*
X186283Y-3605631D01*
G37*
G36*
X2739796Y-3606952D02*
G01*
X2753410Y-3606495D01*
X2766822Y-3604260D01*
X2779776Y-3600246D01*
X2792120Y-3594506D01*
X2803601Y-3587191D01*
X2814015Y-3578402D01*
X2823108Y-3568293D01*
X2830830Y-3557117D01*
X2836926Y-3544976D01*
X2841396Y-3532124D01*
X2844139Y-3518763D01*
X2845054Y-3505200D01*
X2844139Y-3491636D01*
X2841396Y-3478276D01*
X2836926Y-3465423D01*
X2830830Y-3453282D01*
X2823108Y-3442106D01*
X2814015Y-3431997D01*
X2803601Y-3423208D01*
X2792120Y-3415893D01*
X2779776Y-3410153D01*
X2766822Y-3406140D01*
X2753410Y-3403904D01*
X2739796Y-3403447D01*
X2726283Y-3404768D01*
X2713024Y-3407918D01*
X2700324Y-3412845D01*
X2688386Y-3419348D01*
X2677464Y-3427425D01*
X2667660Y-3436874D01*
X2659227Y-3447592D01*
X2652318Y-3459276D01*
X2646984Y-3471773D01*
X2643428Y-3484930D01*
X2641600Y-3498392D01*
X2641600Y-3512007D01*
X2643428Y-3525469D01*
X2646984Y-3538626D01*
X2652318Y-3551123D01*
X2659227Y-3562807D01*
X2667660Y-3573526D01*
X2677464Y-3582974D01*
X2688386Y-3591051D01*
X2700324Y-3597554D01*
X2713024Y-3602482D01*
X2726283Y-3605631D01*
G37*
G36*
X9419996Y-3606952D02*
G01*
X9433610Y-3606495D01*
X9447022Y-3604260D01*
X9459976Y-3600246D01*
X9472320Y-3594506D01*
X9483801Y-3587191D01*
X9494215Y-3578402D01*
X9503308Y-3568293D01*
X9511030Y-3557117D01*
X9517126Y-3544976D01*
X9521596Y-3532124D01*
X9524339Y-3518763D01*
X9525254Y-3505200D01*
X9524339Y-3491636D01*
X9521596Y-3478276D01*
X9517126Y-3465423D01*
X9511030Y-3453282D01*
X9503308Y-3442106D01*
X9494215Y-3431997D01*
X9483801Y-3423208D01*
X9472320Y-3415893D01*
X9459976Y-3410153D01*
X9447022Y-3406140D01*
X9433610Y-3403904D01*
X9419996Y-3403447D01*
X9406483Y-3404768D01*
X9393224Y-3407918D01*
X9380524Y-3412845D01*
X9368586Y-3419348D01*
X9357664Y-3427425D01*
X9347860Y-3436874D01*
X9339427Y-3447592D01*
X9332518Y-3459276D01*
X9327184Y-3471773D01*
X9323628Y-3484930D01*
X9321800Y-3498392D01*
X9321800Y-3512007D01*
X9323628Y-3525469D01*
X9327184Y-3538626D01*
X9332518Y-3551123D01*
X9339427Y-3562807D01*
X9347860Y-3573526D01*
X9357664Y-3582974D01*
X9368586Y-3591051D01*
X9380524Y-3597554D01*
X9393224Y-3602482D01*
X9406483Y-3605631D01*
G37*
G36*
X11959996Y-3606952D02*
G01*
X11973610Y-3606495D01*
X11987022Y-3604260D01*
X11999976Y-3600246D01*
X12012320Y-3594506D01*
X12023801Y-3587191D01*
X12034215Y-3578402D01*
X12043308Y-3568293D01*
X12051030Y-3557117D01*
X12057126Y-3544976D01*
X12061596Y-3532124D01*
X12064339Y-3518763D01*
X12065254Y-3505200D01*
X12064339Y-3491636D01*
X12061596Y-3478276D01*
X12057126Y-3465423D01*
X12051030Y-3453282D01*
X12043308Y-3442106D01*
X12034215Y-3431997D01*
X12023801Y-3423208D01*
X12012320Y-3415893D01*
X11999976Y-3410153D01*
X11987022Y-3406140D01*
X11973610Y-3403904D01*
X11959996Y-3403447D01*
X11946483Y-3404768D01*
X11933224Y-3407918D01*
X11920524Y-3412845D01*
X11908586Y-3419348D01*
X11897664Y-3427425D01*
X11887860Y-3436874D01*
X11879427Y-3447592D01*
X11872518Y-3459276D01*
X11867184Y-3471773D01*
X11863628Y-3484930D01*
X11861800Y-3498392D01*
X11861800Y-3512007D01*
X11863628Y-3525469D01*
X11867184Y-3538626D01*
X11872518Y-3551123D01*
X11879427Y-3562807D01*
X11887860Y-3573526D01*
X11897664Y-3582974D01*
X11908586Y-3591051D01*
X11920524Y-3597554D01*
X11933224Y-3602482D01*
X11946483Y-3605631D01*
G37*
G36*
X5800496Y-3594252D02*
G01*
X5814110Y-3593795D01*
X5827522Y-3591560D01*
X5840476Y-3587546D01*
X5852820Y-3581806D01*
X5864301Y-3574491D01*
X5874715Y-3565702D01*
X5883808Y-3555593D01*
X5891530Y-3544417D01*
X5897626Y-3532276D01*
X5902096Y-3519424D01*
X5904839Y-3506063D01*
X5905754Y-3492500D01*
X5904839Y-3478936D01*
X5902096Y-3465576D01*
X5897626Y-3452723D01*
X5891530Y-3440582D01*
X5883808Y-3429406D01*
X5874715Y-3419297D01*
X5864301Y-3410508D01*
X5852820Y-3403193D01*
X5840476Y-3397453D01*
X5827522Y-3393440D01*
X5814110Y-3391204D01*
X5800496Y-3390747D01*
X5786983Y-3392068D01*
X5773724Y-3395218D01*
X5761024Y-3400145D01*
X5749086Y-3406648D01*
X5738164Y-3414725D01*
X5728360Y-3424174D01*
X5719927Y-3434892D01*
X5713018Y-3446576D01*
X5707684Y-3459073D01*
X5704128Y-3472230D01*
X5702300Y-3485692D01*
X5702300Y-3499307D01*
X5704128Y-3512769D01*
X5707684Y-3525926D01*
X5713018Y-3538423D01*
X5719927Y-3550107D01*
X5728360Y-3560826D01*
X5738164Y-3570274D01*
X5749086Y-3578351D01*
X5761024Y-3584854D01*
X5773724Y-3589782D01*
X5786983Y-3592931D01*
G37*
G36*
X3260496Y-3594252D02*
G01*
X3274110Y-3593795D01*
X3287522Y-3591560D01*
X3300476Y-3587546D01*
X3312820Y-3581806D01*
X3324301Y-3574491D01*
X3334715Y-3565702D01*
X3343808Y-3555593D01*
X3351529Y-3544417D01*
X3357626Y-3532276D01*
X3362096Y-3519424D01*
X3364839Y-3506063D01*
X3365754Y-3492500D01*
X3364839Y-3478936D01*
X3362096Y-3465576D01*
X3357626Y-3452723D01*
X3351529Y-3440582D01*
X3343808Y-3429406D01*
X3334715Y-3419297D01*
X3324301Y-3410508D01*
X3312820Y-3403193D01*
X3300476Y-3397453D01*
X3287522Y-3393440D01*
X3274110Y-3391204D01*
X3260496Y-3390747D01*
X3246983Y-3392068D01*
X3233724Y-3395218D01*
X3221024Y-3400145D01*
X3209086Y-3406648D01*
X3198164Y-3414725D01*
X3188360Y-3424174D01*
X3179927Y-3434892D01*
X3173018Y-3446576D01*
X3167684Y-3459073D01*
X3164128Y-3472230D01*
X3162300Y-3485692D01*
X3162300Y-3499307D01*
X3164128Y-3512769D01*
X3167684Y-3525926D01*
X3173018Y-3538423D01*
X3179927Y-3550107D01*
X3188360Y-3560826D01*
X3198164Y-3570274D01*
X3209086Y-3578351D01*
X3221024Y-3584854D01*
X3233724Y-3589782D01*
X3246983Y-3592931D01*
G37*
G36*
X6359296Y-3581552D02*
G01*
X6372910Y-3581095D01*
X6386322Y-3578860D01*
X6399276Y-3574846D01*
X6411620Y-3569106D01*
X6423101Y-3561791D01*
X6433515Y-3553002D01*
X6442608Y-3542893D01*
X6450330Y-3531717D01*
X6456426Y-3519576D01*
X6460896Y-3506724D01*
X6463639Y-3493363D01*
X6464554Y-3479800D01*
X6463639Y-3466236D01*
X6460896Y-3452876D01*
X6456426Y-3440023D01*
X6450330Y-3427882D01*
X6442608Y-3416706D01*
X6433515Y-3406597D01*
X6423101Y-3397808D01*
X6411620Y-3390493D01*
X6399276Y-3384753D01*
X6386322Y-3380740D01*
X6372910Y-3378504D01*
X6359296Y-3378047D01*
X6345783Y-3379368D01*
X6332524Y-3382518D01*
X6319824Y-3387445D01*
X6307886Y-3393948D01*
X6296964Y-3402025D01*
X6287160Y-3411474D01*
X6278727Y-3422192D01*
X6271818Y-3433876D01*
X6266484Y-3446373D01*
X6262928Y-3459530D01*
X6261100Y-3472992D01*
X6261100Y-3486607D01*
X6262928Y-3500069D01*
X6266484Y-3513226D01*
X6271818Y-3525723D01*
X6278727Y-3537407D01*
X6287160Y-3548126D01*
X6296964Y-3557574D01*
X6307886Y-3565651D01*
X6319824Y-3572154D01*
X6332524Y-3577082D01*
X6345783Y-3580231D01*
G37*
G36*
X8899296Y-3581552D02*
G01*
X8912910Y-3581095D01*
X8926322Y-3578860D01*
X8939276Y-3574846D01*
X8951620Y-3569106D01*
X8963101Y-3561791D01*
X8973515Y-3553002D01*
X8982608Y-3542893D01*
X8990330Y-3531717D01*
X8996426Y-3519576D01*
X9000896Y-3506724D01*
X9003639Y-3493363D01*
X9004554Y-3479800D01*
X9003639Y-3466236D01*
X9000896Y-3452876D01*
X8996426Y-3440023D01*
X8990330Y-3427882D01*
X8982608Y-3416706D01*
X8973515Y-3406597D01*
X8963101Y-3397808D01*
X8951620Y-3390493D01*
X8939276Y-3384753D01*
X8926322Y-3380740D01*
X8912910Y-3378504D01*
X8899296Y-3378047D01*
X8885783Y-3379368D01*
X8872524Y-3382518D01*
X8859824Y-3387445D01*
X8847886Y-3393948D01*
X8836964Y-3402025D01*
X8827160Y-3411474D01*
X8818727Y-3422192D01*
X8811818Y-3433876D01*
X8806484Y-3446373D01*
X8802928Y-3459530D01*
X8801100Y-3472992D01*
X8801100Y-3486607D01*
X8802928Y-3500069D01*
X8806484Y-3513226D01*
X8811818Y-3525723D01*
X8818727Y-3537407D01*
X8827160Y-3548126D01*
X8836964Y-3557574D01*
X8847886Y-3565651D01*
X8859824Y-3572154D01*
X8872524Y-3577082D01*
X8885783Y-3580231D01*
G37*
G36*
X199796Y-3352952D02*
G01*
X213410Y-3352495D01*
X226821Y-3350260D01*
X239775Y-3346246D01*
X252120Y-3340506D01*
X263601Y-3333191D01*
X274015Y-3324402D01*
X283108Y-3314293D01*
X290830Y-3303117D01*
X296926Y-3290976D01*
X301396Y-3278124D01*
X304139Y-3264763D01*
X305054Y-3251200D01*
X304139Y-3237636D01*
X301396Y-3224276D01*
X296926Y-3211423D01*
X290830Y-3199282D01*
X283108Y-3188106D01*
X274015Y-3177997D01*
X263601Y-3169208D01*
X252120Y-3161893D01*
X239775Y-3156153D01*
X226821Y-3152140D01*
X213410Y-3149904D01*
X199796Y-3149447D01*
X186283Y-3150768D01*
X173024Y-3153918D01*
X160324Y-3158845D01*
X148386Y-3165348D01*
X137464Y-3173425D01*
X127660Y-3182874D01*
X119227Y-3193592D01*
X112318Y-3205276D01*
X106984Y-3217773D01*
X103428Y-3230930D01*
X101600Y-3244392D01*
X101600Y-3258007D01*
X103428Y-3271469D01*
X106984Y-3284626D01*
X112318Y-3297123D01*
X119227Y-3308807D01*
X127660Y-3319526D01*
X137464Y-3328974D01*
X148386Y-3337051D01*
X160324Y-3343554D01*
X173024Y-3348482D01*
X186283Y-3351631D01*
G37*
G36*
X2739796Y-3352952D02*
G01*
X2753410Y-3352495D01*
X2766822Y-3350260D01*
X2779776Y-3346246D01*
X2792120Y-3340506D01*
X2803601Y-3333191D01*
X2814015Y-3324402D01*
X2823108Y-3314293D01*
X2830830Y-3303117D01*
X2836926Y-3290976D01*
X2841396Y-3278124D01*
X2844139Y-3264763D01*
X2845054Y-3251200D01*
X2844139Y-3237636D01*
X2841396Y-3224276D01*
X2836926Y-3211423D01*
X2830830Y-3199282D01*
X2823108Y-3188106D01*
X2814015Y-3177997D01*
X2803601Y-3169208D01*
X2792120Y-3161893D01*
X2779776Y-3156153D01*
X2766822Y-3152140D01*
X2753410Y-3149904D01*
X2739796Y-3149447D01*
X2726283Y-3150768D01*
X2713024Y-3153918D01*
X2700324Y-3158845D01*
X2688386Y-3165348D01*
X2677464Y-3173425D01*
X2667660Y-3182874D01*
X2659227Y-3193592D01*
X2652318Y-3205276D01*
X2646984Y-3217773D01*
X2643428Y-3230930D01*
X2641600Y-3244392D01*
X2641600Y-3258007D01*
X2643428Y-3271469D01*
X2646984Y-3284626D01*
X2652318Y-3297123D01*
X2659227Y-3308807D01*
X2667660Y-3319526D01*
X2677464Y-3328974D01*
X2688386Y-3337051D01*
X2700324Y-3343554D01*
X2713024Y-3348482D01*
X2726283Y-3351631D01*
G37*
G36*
X9419996Y-3352952D02*
G01*
X9433610Y-3352495D01*
X9447022Y-3350260D01*
X9459976Y-3346246D01*
X9472320Y-3340506D01*
X9483801Y-3333191D01*
X9494215Y-3324402D01*
X9503308Y-3314293D01*
X9511030Y-3303117D01*
X9517126Y-3290976D01*
X9521596Y-3278124D01*
X9524339Y-3264763D01*
X9525254Y-3251200D01*
X9524339Y-3237636D01*
X9521596Y-3224276D01*
X9517126Y-3211423D01*
X9511030Y-3199282D01*
X9503308Y-3188106D01*
X9494215Y-3177997D01*
X9483801Y-3169208D01*
X9472320Y-3161893D01*
X9459976Y-3156153D01*
X9447022Y-3152140D01*
X9433610Y-3149904D01*
X9419996Y-3149447D01*
X9406483Y-3150768D01*
X9393224Y-3153918D01*
X9380524Y-3158845D01*
X9368586Y-3165348D01*
X9357664Y-3173425D01*
X9347860Y-3182874D01*
X9339427Y-3193592D01*
X9332518Y-3205276D01*
X9327184Y-3217773D01*
X9323628Y-3230930D01*
X9321800Y-3244392D01*
X9321800Y-3258007D01*
X9323628Y-3271469D01*
X9327184Y-3284626D01*
X9332518Y-3297123D01*
X9339427Y-3308807D01*
X9347860Y-3319526D01*
X9357664Y-3328974D01*
X9368586Y-3337051D01*
X9380524Y-3343554D01*
X9393224Y-3348482D01*
X9406483Y-3351631D01*
G37*
G36*
X11959996Y-3352952D02*
G01*
X11973610Y-3352495D01*
X11987022Y-3350260D01*
X11999976Y-3346246D01*
X12012320Y-3340506D01*
X12023801Y-3333191D01*
X12034215Y-3324402D01*
X12043308Y-3314293D01*
X12051030Y-3303117D01*
X12057126Y-3290976D01*
X12061596Y-3278124D01*
X12064339Y-3264763D01*
X12065254Y-3251200D01*
X12064339Y-3237636D01*
X12061596Y-3224276D01*
X12057126Y-3211423D01*
X12051030Y-3199282D01*
X12043308Y-3188106D01*
X12034215Y-3177997D01*
X12023801Y-3169208D01*
X12012320Y-3161893D01*
X11999976Y-3156153D01*
X11987022Y-3152140D01*
X11973610Y-3149904D01*
X11959996Y-3149447D01*
X11946483Y-3150768D01*
X11933224Y-3153918D01*
X11920524Y-3158845D01*
X11908586Y-3165348D01*
X11897664Y-3173425D01*
X11887860Y-3182874D01*
X11879427Y-3193592D01*
X11872518Y-3205276D01*
X11867184Y-3217773D01*
X11863628Y-3230930D01*
X11861800Y-3244392D01*
X11861800Y-3258007D01*
X11863628Y-3271469D01*
X11867184Y-3284626D01*
X11872518Y-3297123D01*
X11879427Y-3308807D01*
X11887860Y-3319526D01*
X11897664Y-3328974D01*
X11908586Y-3337051D01*
X11920524Y-3343554D01*
X11933224Y-3348482D01*
X11946483Y-3351631D01*
G37*
G36*
X5800496Y-3340252D02*
G01*
X5814110Y-3339795D01*
X5827522Y-3337560D01*
X5840476Y-3333546D01*
X5852820Y-3327806D01*
X5864301Y-3320491D01*
X5874715Y-3311702D01*
X5883808Y-3301593D01*
X5891530Y-3290417D01*
X5897626Y-3278276D01*
X5902096Y-3265424D01*
X5904839Y-3252063D01*
X5905754Y-3238500D01*
X5904839Y-3224936D01*
X5902096Y-3211576D01*
X5897626Y-3198723D01*
X5891530Y-3186582D01*
X5883808Y-3175406D01*
X5874715Y-3165297D01*
X5864301Y-3156508D01*
X5852820Y-3149193D01*
X5840476Y-3143453D01*
X5827522Y-3139440D01*
X5814110Y-3137204D01*
X5800496Y-3136747D01*
X5786983Y-3138068D01*
X5773724Y-3141218D01*
X5761024Y-3146145D01*
X5749086Y-3152648D01*
X5738164Y-3160725D01*
X5728360Y-3170174D01*
X5719927Y-3180892D01*
X5713018Y-3192576D01*
X5707684Y-3205073D01*
X5704128Y-3218230D01*
X5702300Y-3231692D01*
X5702300Y-3245307D01*
X5704128Y-3258769D01*
X5707684Y-3271926D01*
X5713018Y-3284423D01*
X5719927Y-3296107D01*
X5728360Y-3306826D01*
X5738164Y-3316274D01*
X5749086Y-3324351D01*
X5761024Y-3330854D01*
X5773724Y-3335782D01*
X5786983Y-3338931D01*
G37*
G36*
X3260496Y-3340252D02*
G01*
X3274110Y-3339795D01*
X3287522Y-3337560D01*
X3300476Y-3333546D01*
X3312820Y-3327806D01*
X3324301Y-3320491D01*
X3334715Y-3311702D01*
X3343808Y-3301593D01*
X3351529Y-3290417D01*
X3357626Y-3278276D01*
X3362096Y-3265424D01*
X3364839Y-3252063D01*
X3365754Y-3238500D01*
X3364839Y-3224936D01*
X3362096Y-3211576D01*
X3357626Y-3198723D01*
X3351529Y-3186582D01*
X3343808Y-3175406D01*
X3334715Y-3165297D01*
X3324301Y-3156508D01*
X3312820Y-3149193D01*
X3300476Y-3143453D01*
X3287522Y-3139440D01*
X3274110Y-3137204D01*
X3260496Y-3136747D01*
X3246983Y-3138068D01*
X3233724Y-3141218D01*
X3221024Y-3146145D01*
X3209086Y-3152648D01*
X3198164Y-3160725D01*
X3188360Y-3170174D01*
X3179927Y-3180892D01*
X3173018Y-3192576D01*
X3167684Y-3205073D01*
X3164128Y-3218230D01*
X3162300Y-3231692D01*
X3162300Y-3245307D01*
X3164128Y-3258769D01*
X3167684Y-3271926D01*
X3173018Y-3284423D01*
X3179927Y-3296107D01*
X3188360Y-3306826D01*
X3198164Y-3316274D01*
X3209086Y-3324351D01*
X3221024Y-3330854D01*
X3233724Y-3335782D01*
X3246983Y-3338931D01*
G37*
G36*
X8899296Y-3327552D02*
G01*
X8912910Y-3327095D01*
X8926322Y-3324860D01*
X8939276Y-3320846D01*
X8951620Y-3315106D01*
X8963101Y-3307791D01*
X8973515Y-3299002D01*
X8982608Y-3288893D01*
X8990330Y-3277717D01*
X8996426Y-3265576D01*
X9000896Y-3252724D01*
X9003639Y-3239363D01*
X9004554Y-3225800D01*
X9003639Y-3212236D01*
X9000896Y-3198876D01*
X8996426Y-3186023D01*
X8990330Y-3173882D01*
X8982608Y-3162706D01*
X8973515Y-3152597D01*
X8963101Y-3143808D01*
X8951620Y-3136493D01*
X8939276Y-3130753D01*
X8926322Y-3126740D01*
X8912910Y-3124504D01*
X8899296Y-3124047D01*
X8885783Y-3125368D01*
X8872524Y-3128518D01*
X8859824Y-3133445D01*
X8847886Y-3139948D01*
X8836964Y-3148025D01*
X8827160Y-3157474D01*
X8818727Y-3168192D01*
X8811818Y-3179876D01*
X8806484Y-3192373D01*
X8802928Y-3205530D01*
X8801100Y-3218992D01*
X8801100Y-3232607D01*
X8802928Y-3246069D01*
X8806484Y-3259226D01*
X8811818Y-3271723D01*
X8818727Y-3283407D01*
X8827160Y-3294126D01*
X8836964Y-3303574D01*
X8847886Y-3311651D01*
X8859824Y-3318154D01*
X8872524Y-3323082D01*
X8885783Y-3326231D01*
G37*
G36*
X6359296Y-3327552D02*
G01*
X6372910Y-3327095D01*
X6386322Y-3324860D01*
X6399276Y-3320846D01*
X6411620Y-3315106D01*
X6423101Y-3307791D01*
X6433515Y-3299002D01*
X6442608Y-3288893D01*
X6450330Y-3277717D01*
X6456426Y-3265576D01*
X6460896Y-3252724D01*
X6463639Y-3239363D01*
X6464554Y-3225800D01*
X6463639Y-3212236D01*
X6460896Y-3198876D01*
X6456426Y-3186023D01*
X6450330Y-3173882D01*
X6442608Y-3162706D01*
X6433515Y-3152597D01*
X6423101Y-3143808D01*
X6411620Y-3136493D01*
X6399276Y-3130753D01*
X6386322Y-3126740D01*
X6372910Y-3124504D01*
X6359296Y-3124047D01*
X6345783Y-3125368D01*
X6332524Y-3128518D01*
X6319824Y-3133445D01*
X6307886Y-3139948D01*
X6296964Y-3148025D01*
X6287160Y-3157474D01*
X6278727Y-3168192D01*
X6271818Y-3179876D01*
X6266484Y-3192373D01*
X6262928Y-3205530D01*
X6261100Y-3218992D01*
X6261100Y-3232607D01*
X6262928Y-3246069D01*
X6266484Y-3259226D01*
X6271818Y-3271723D01*
X6278727Y-3283407D01*
X6287160Y-3294126D01*
X6296964Y-3303574D01*
X6307886Y-3311651D01*
X6319824Y-3318154D01*
X6332524Y-3323082D01*
X6345783Y-3326231D01*
G37*
G36*
X199796Y-3098952D02*
G01*
X213410Y-3098495D01*
X226821Y-3096260D01*
X239775Y-3092246D01*
X252120Y-3086506D01*
X263601Y-3079191D01*
X274015Y-3070402D01*
X283108Y-3060293D01*
X290830Y-3049117D01*
X296926Y-3036976D01*
X301396Y-3024124D01*
X304139Y-3010763D01*
X305054Y-2997200D01*
X304139Y-2983636D01*
X301396Y-2970276D01*
X296926Y-2957423D01*
X290830Y-2945282D01*
X283108Y-2934106D01*
X274015Y-2923997D01*
X263601Y-2915208D01*
X252120Y-2907893D01*
X239775Y-2902153D01*
X226821Y-2898140D01*
X213410Y-2895904D01*
X199796Y-2895447D01*
X186283Y-2896768D01*
X173024Y-2899918D01*
X160324Y-2904845D01*
X148386Y-2911348D01*
X137464Y-2919425D01*
X127660Y-2928874D01*
X119227Y-2939592D01*
X112318Y-2951276D01*
X106984Y-2963773D01*
X103428Y-2976930D01*
X101600Y-2990392D01*
X101600Y-3004007D01*
X103428Y-3017469D01*
X106984Y-3030626D01*
X112318Y-3043123D01*
X119227Y-3054807D01*
X127660Y-3065526D01*
X137464Y-3074974D01*
X148386Y-3083052D01*
X160324Y-3089554D01*
X173024Y-3094482D01*
X186283Y-3097631D01*
G37*
G36*
X2739796Y-3098952D02*
G01*
X2753410Y-3098495D01*
X2766822Y-3096260D01*
X2779776Y-3092246D01*
X2792120Y-3086506D01*
X2803601Y-3079191D01*
X2814015Y-3070402D01*
X2823108Y-3060293D01*
X2830830Y-3049117D01*
X2836926Y-3036976D01*
X2841396Y-3024124D01*
X2844139Y-3010763D01*
X2845054Y-2997200D01*
X2844139Y-2983636D01*
X2841396Y-2970276D01*
X2836926Y-2957423D01*
X2830830Y-2945282D01*
X2823108Y-2934106D01*
X2814015Y-2923997D01*
X2803601Y-2915208D01*
X2792120Y-2907893D01*
X2779776Y-2902153D01*
X2766822Y-2898140D01*
X2753410Y-2895904D01*
X2739796Y-2895447D01*
X2726283Y-2896768D01*
X2713024Y-2899918D01*
X2700324Y-2904845D01*
X2688386Y-2911348D01*
X2677464Y-2919425D01*
X2667660Y-2928874D01*
X2659227Y-2939592D01*
X2652318Y-2951276D01*
X2646984Y-2963773D01*
X2643428Y-2976930D01*
X2641600Y-2990392D01*
X2641600Y-3004007D01*
X2643428Y-3017469D01*
X2646984Y-3030626D01*
X2652318Y-3043123D01*
X2659227Y-3054807D01*
X2667660Y-3065526D01*
X2677464Y-3074974D01*
X2688386Y-3083052D01*
X2700324Y-3089554D01*
X2713024Y-3094482D01*
X2726283Y-3097631D01*
G37*
G36*
X9419996Y-3098952D02*
G01*
X9433610Y-3098495D01*
X9447022Y-3096260D01*
X9459976Y-3092246D01*
X9472320Y-3086506D01*
X9483801Y-3079191D01*
X9494215Y-3070402D01*
X9503308Y-3060293D01*
X9511030Y-3049117D01*
X9517126Y-3036976D01*
X9521596Y-3024124D01*
X9524339Y-3010763D01*
X9525254Y-2997200D01*
X9524339Y-2983636D01*
X9521596Y-2970276D01*
X9517126Y-2957423D01*
X9511030Y-2945282D01*
X9503308Y-2934106D01*
X9494215Y-2923997D01*
X9483801Y-2915208D01*
X9472320Y-2907893D01*
X9459976Y-2902153D01*
X9447022Y-2898140D01*
X9433610Y-2895904D01*
X9419996Y-2895447D01*
X9406483Y-2896768D01*
X9393224Y-2899918D01*
X9380524Y-2904845D01*
X9368586Y-2911348D01*
X9357664Y-2919425D01*
X9347860Y-2928874D01*
X9339427Y-2939592D01*
X9332518Y-2951276D01*
X9327184Y-2963773D01*
X9323628Y-2976930D01*
X9321800Y-2990392D01*
X9321800Y-3004007D01*
X9323628Y-3017469D01*
X9327184Y-3030626D01*
X9332518Y-3043123D01*
X9339427Y-3054807D01*
X9347860Y-3065526D01*
X9357664Y-3074974D01*
X9368586Y-3083052D01*
X9380524Y-3089554D01*
X9393224Y-3094482D01*
X9406483Y-3097631D01*
G37*
G36*
X11959996Y-3098952D02*
G01*
X11973610Y-3098495D01*
X11987022Y-3096260D01*
X11999976Y-3092246D01*
X12012320Y-3086506D01*
X12023801Y-3079191D01*
X12034215Y-3070402D01*
X12043308Y-3060293D01*
X12051030Y-3049117D01*
X12057126Y-3036976D01*
X12061596Y-3024124D01*
X12064339Y-3010763D01*
X12065254Y-2997200D01*
X12064339Y-2983636D01*
X12061596Y-2970276D01*
X12057126Y-2957423D01*
X12051030Y-2945282D01*
X12043308Y-2934106D01*
X12034215Y-2923997D01*
X12023801Y-2915208D01*
X12012320Y-2907893D01*
X11999976Y-2902153D01*
X11987022Y-2898140D01*
X11973610Y-2895904D01*
X11959996Y-2895447D01*
X11946483Y-2896768D01*
X11933224Y-2899918D01*
X11920524Y-2904845D01*
X11908586Y-2911348D01*
X11897664Y-2919425D01*
X11887860Y-2928874D01*
X11879427Y-2939592D01*
X11872518Y-2951276D01*
X11867184Y-2963773D01*
X11863628Y-2976930D01*
X11861800Y-2990392D01*
X11861800Y-3004007D01*
X11863628Y-3017469D01*
X11867184Y-3030626D01*
X11872518Y-3043123D01*
X11879427Y-3054807D01*
X11887860Y-3065526D01*
X11897664Y-3074974D01*
X11908586Y-3083052D01*
X11920524Y-3089554D01*
X11933224Y-3094482D01*
X11946483Y-3097631D01*
G37*
G36*
X5800496Y-3086252D02*
G01*
X5814110Y-3085795D01*
X5827522Y-3083560D01*
X5840476Y-3079546D01*
X5852820Y-3073806D01*
X5864301Y-3066491D01*
X5874715Y-3057702D01*
X5883808Y-3047593D01*
X5891530Y-3036417D01*
X5897626Y-3024276D01*
X5902096Y-3011424D01*
X5904839Y-2998063D01*
X5905754Y-2984500D01*
X5904839Y-2970936D01*
X5902096Y-2957576D01*
X5897626Y-2944723D01*
X5891530Y-2932582D01*
X5883808Y-2921406D01*
X5874715Y-2911297D01*
X5864301Y-2902508D01*
X5852820Y-2895193D01*
X5840476Y-2889453D01*
X5827522Y-2885440D01*
X5814110Y-2883204D01*
X5800496Y-2882747D01*
X5786983Y-2884068D01*
X5773724Y-2887218D01*
X5761024Y-2892145D01*
X5749086Y-2898648D01*
X5738164Y-2906725D01*
X5728360Y-2916174D01*
X5719927Y-2926892D01*
X5713018Y-2938576D01*
X5707684Y-2951073D01*
X5704128Y-2964230D01*
X5702300Y-2977692D01*
X5702300Y-2991307D01*
X5704128Y-3004769D01*
X5707684Y-3017926D01*
X5713018Y-3030423D01*
X5719927Y-3042107D01*
X5728360Y-3052826D01*
X5738164Y-3062274D01*
X5749086Y-3070352D01*
X5761024Y-3076854D01*
X5773724Y-3081782D01*
X5786983Y-3084931D01*
G37*
G36*
X3260496Y-3086252D02*
G01*
X3274110Y-3085795D01*
X3287522Y-3083560D01*
X3300476Y-3079546D01*
X3312820Y-3073806D01*
X3324301Y-3066491D01*
X3334715Y-3057702D01*
X3343808Y-3047593D01*
X3351529Y-3036417D01*
X3357626Y-3024276D01*
X3362096Y-3011424D01*
X3364839Y-2998063D01*
X3365754Y-2984500D01*
X3364839Y-2970936D01*
X3362096Y-2957576D01*
X3357626Y-2944723D01*
X3351529Y-2932582D01*
X3343808Y-2921406D01*
X3334715Y-2911297D01*
X3324301Y-2902508D01*
X3312820Y-2895193D01*
X3300476Y-2889453D01*
X3287522Y-2885440D01*
X3274110Y-2883204D01*
X3260496Y-2882747D01*
X3246983Y-2884068D01*
X3233724Y-2887218D01*
X3221024Y-2892145D01*
X3209086Y-2898648D01*
X3198164Y-2906725D01*
X3188360Y-2916174D01*
X3179927Y-2926892D01*
X3173018Y-2938576D01*
X3167684Y-2951073D01*
X3164128Y-2964230D01*
X3162300Y-2977692D01*
X3162300Y-2991307D01*
X3164128Y-3004769D01*
X3167684Y-3017926D01*
X3173018Y-3030423D01*
X3179927Y-3042107D01*
X3188360Y-3052826D01*
X3198164Y-3062274D01*
X3209086Y-3070352D01*
X3221024Y-3076854D01*
X3233724Y-3081782D01*
X3246983Y-3084931D01*
G37*
G36*
X8899296Y-3073552D02*
G01*
X8912910Y-3073095D01*
X8926322Y-3070860D01*
X8939276Y-3066846D01*
X8951620Y-3061106D01*
X8963101Y-3053791D01*
X8973515Y-3045002D01*
X8982608Y-3034893D01*
X8990330Y-3023717D01*
X8996426Y-3011576D01*
X9000896Y-2998724D01*
X9003639Y-2985363D01*
X9004554Y-2971800D01*
X9003639Y-2958236D01*
X9000896Y-2944876D01*
X8996426Y-2932023D01*
X8990330Y-2919882D01*
X8982608Y-2908706D01*
X8973515Y-2898597D01*
X8963101Y-2889808D01*
X8951620Y-2882493D01*
X8939276Y-2876753D01*
X8926322Y-2872740D01*
X8912910Y-2870504D01*
X8899296Y-2870047D01*
X8885783Y-2871368D01*
X8872524Y-2874518D01*
X8859824Y-2879445D01*
X8847886Y-2885948D01*
X8836964Y-2894025D01*
X8827160Y-2903474D01*
X8818727Y-2914192D01*
X8811818Y-2925876D01*
X8806484Y-2938373D01*
X8802928Y-2951530D01*
X8801100Y-2964992D01*
X8801100Y-2978607D01*
X8802928Y-2992069D01*
X8806484Y-3005226D01*
X8811818Y-3017723D01*
X8818727Y-3029407D01*
X8827160Y-3040126D01*
X8836964Y-3049574D01*
X8847886Y-3057652D01*
X8859824Y-3064154D01*
X8872524Y-3069082D01*
X8885783Y-3072231D01*
G37*
G36*
X6359296Y-3073552D02*
G01*
X6372910Y-3073095D01*
X6386322Y-3070860D01*
X6399276Y-3066846D01*
X6411620Y-3061106D01*
X6423101Y-3053791D01*
X6433515Y-3045002D01*
X6442608Y-3034893D01*
X6450330Y-3023717D01*
X6456426Y-3011576D01*
X6460896Y-2998724D01*
X6463639Y-2985363D01*
X6464554Y-2971800D01*
X6463639Y-2958236D01*
X6460896Y-2944876D01*
X6456426Y-2932023D01*
X6450330Y-2919882D01*
X6442608Y-2908706D01*
X6433515Y-2898597D01*
X6423101Y-2889808D01*
X6411620Y-2882493D01*
X6399276Y-2876753D01*
X6386322Y-2872740D01*
X6372910Y-2870504D01*
X6359296Y-2870047D01*
X6345783Y-2871368D01*
X6332524Y-2874518D01*
X6319824Y-2879445D01*
X6307886Y-2885948D01*
X6296964Y-2894025D01*
X6287160Y-2903474D01*
X6278727Y-2914192D01*
X6271818Y-2925876D01*
X6266484Y-2938373D01*
X6262928Y-2951530D01*
X6261100Y-2964992D01*
X6261100Y-2978607D01*
X6262928Y-2992069D01*
X6266484Y-3005226D01*
X6271818Y-3017723D01*
X6278727Y-3029407D01*
X6287160Y-3040126D01*
X6296964Y-3049574D01*
X6307886Y-3057652D01*
X6319824Y-3064154D01*
X6332524Y-3069082D01*
X6345783Y-3072231D01*
G37*
G36*
X199796Y-2844952D02*
G01*
X213410Y-2844495D01*
X226821Y-2842260D01*
X239775Y-2838246D01*
X252120Y-2832506D01*
X263601Y-2825191D01*
X274015Y-2816402D01*
X283108Y-2806293D01*
X290830Y-2795117D01*
X296926Y-2782976D01*
X301396Y-2770124D01*
X304139Y-2756763D01*
X305054Y-2743200D01*
X304139Y-2729636D01*
X301396Y-2716276D01*
X296926Y-2703423D01*
X290830Y-2691282D01*
X283108Y-2680106D01*
X274015Y-2669997D01*
X263601Y-2661208D01*
X252120Y-2653893D01*
X239775Y-2648153D01*
X226821Y-2644140D01*
X213410Y-2641904D01*
X199796Y-2641447D01*
X186283Y-2642768D01*
X173024Y-2645918D01*
X160324Y-2650845D01*
X148386Y-2657348D01*
X137464Y-2665425D01*
X127660Y-2674874D01*
X119227Y-2685592D01*
X112318Y-2697276D01*
X106984Y-2709773D01*
X103428Y-2722930D01*
X101600Y-2736392D01*
X101600Y-2750007D01*
X103428Y-2763469D01*
X106984Y-2776626D01*
X112318Y-2789123D01*
X119227Y-2800807D01*
X127660Y-2811526D01*
X137464Y-2820974D01*
X148386Y-2829052D01*
X160324Y-2835554D01*
X173024Y-2840482D01*
X186283Y-2843631D01*
G37*
G36*
X11959996Y-2844952D02*
G01*
X11973610Y-2844495D01*
X11987022Y-2842260D01*
X11999976Y-2838246D01*
X12012320Y-2832506D01*
X12023801Y-2825191D01*
X12034215Y-2816402D01*
X12043308Y-2806293D01*
X12051030Y-2795117D01*
X12057126Y-2782976D01*
X12061596Y-2770124D01*
X12064339Y-2756763D01*
X12065254Y-2743200D01*
X12064339Y-2729636D01*
X12061596Y-2716276D01*
X12057126Y-2703423D01*
X12051030Y-2691282D01*
X12043308Y-2680106D01*
X12034215Y-2669997D01*
X12023801Y-2661208D01*
X12012320Y-2653893D01*
X11999976Y-2648153D01*
X11987022Y-2644140D01*
X11973610Y-2641904D01*
X11959996Y-2641447D01*
X11946483Y-2642768D01*
X11933224Y-2645918D01*
X11920524Y-2650845D01*
X11908586Y-2657348D01*
X11897664Y-2665425D01*
X11887860Y-2674874D01*
X11879427Y-2685592D01*
X11872518Y-2697276D01*
X11867184Y-2709773D01*
X11863628Y-2722930D01*
X11861800Y-2736392D01*
X11861800Y-2750007D01*
X11863628Y-2763469D01*
X11867184Y-2776626D01*
X11872518Y-2789123D01*
X11879427Y-2800807D01*
X11887860Y-2811526D01*
X11897664Y-2820974D01*
X11908586Y-2829052D01*
X11920524Y-2835554D01*
X11933224Y-2840482D01*
X11946483Y-2843631D01*
G37*
G36*
X9419996Y-2844952D02*
G01*
X9433610Y-2844495D01*
X9447022Y-2842260D01*
X9459976Y-2838246D01*
X9472320Y-2832506D01*
X9483801Y-2825191D01*
X9494215Y-2816402D01*
X9503308Y-2806293D01*
X9511030Y-2795117D01*
X9517126Y-2782976D01*
X9521596Y-2770124D01*
X9524339Y-2756763D01*
X9525254Y-2743200D01*
X9524339Y-2729636D01*
X9521596Y-2716276D01*
X9517126Y-2703423D01*
X9511030Y-2691282D01*
X9503308Y-2680106D01*
X9494215Y-2669997D01*
X9483801Y-2661208D01*
X9472320Y-2653893D01*
X9459976Y-2648153D01*
X9447022Y-2644140D01*
X9433610Y-2641904D01*
X9419996Y-2641447D01*
X9406483Y-2642768D01*
X9393224Y-2645918D01*
X9380524Y-2650845D01*
X9368586Y-2657348D01*
X9357664Y-2665425D01*
X9347860Y-2674874D01*
X9339427Y-2685592D01*
X9332518Y-2697276D01*
X9327184Y-2709773D01*
X9323628Y-2722930D01*
X9321800Y-2736392D01*
X9321800Y-2750007D01*
X9323628Y-2763469D01*
X9327184Y-2776626D01*
X9332518Y-2789123D01*
X9339427Y-2800807D01*
X9347860Y-2811526D01*
X9357664Y-2820974D01*
X9368586Y-2829052D01*
X9380524Y-2835554D01*
X9393224Y-2840482D01*
X9406483Y-2843631D01*
G37*
G36*
X2739796Y-2844952D02*
G01*
X2753410Y-2844495D01*
X2766822Y-2842260D01*
X2779776Y-2838246D01*
X2792120Y-2832506D01*
X2803601Y-2825191D01*
X2814015Y-2816402D01*
X2823108Y-2806293D01*
X2830830Y-2795117D01*
X2836926Y-2782976D01*
X2841396Y-2770124D01*
X2844139Y-2756763D01*
X2845054Y-2743200D01*
X2844139Y-2729636D01*
X2841396Y-2716276D01*
X2836926Y-2703423D01*
X2830830Y-2691282D01*
X2823108Y-2680106D01*
X2814015Y-2669997D01*
X2803601Y-2661208D01*
X2792120Y-2653893D01*
X2779776Y-2648153D01*
X2766822Y-2644140D01*
X2753410Y-2641904D01*
X2739796Y-2641447D01*
X2726283Y-2642768D01*
X2713024Y-2645918D01*
X2700324Y-2650845D01*
X2688386Y-2657348D01*
X2677464Y-2665425D01*
X2667660Y-2674874D01*
X2659227Y-2685592D01*
X2652318Y-2697276D01*
X2646984Y-2709773D01*
X2643428Y-2722930D01*
X2641600Y-2736392D01*
X2641600Y-2750007D01*
X2643428Y-2763469D01*
X2646984Y-2776626D01*
X2652318Y-2789123D01*
X2659227Y-2800807D01*
X2667660Y-2811526D01*
X2677464Y-2820974D01*
X2688386Y-2829052D01*
X2700324Y-2835554D01*
X2713024Y-2840482D01*
X2726283Y-2843631D01*
G37*
G36*
X3260496Y-2832252D02*
G01*
X3274110Y-2831795D01*
X3287522Y-2829560D01*
X3300476Y-2825546D01*
X3312820Y-2819806D01*
X3324301Y-2812491D01*
X3334715Y-2803702D01*
X3343808Y-2793593D01*
X3351529Y-2782417D01*
X3357626Y-2770276D01*
X3362096Y-2757424D01*
X3364839Y-2744063D01*
X3365754Y-2730500D01*
X3364839Y-2716936D01*
X3362096Y-2703576D01*
X3357626Y-2690723D01*
X3351529Y-2678582D01*
X3343808Y-2667406D01*
X3334715Y-2657297D01*
X3324301Y-2648508D01*
X3312820Y-2641193D01*
X3300476Y-2635453D01*
X3287522Y-2631440D01*
X3274110Y-2629204D01*
X3260496Y-2628747D01*
X3246983Y-2630068D01*
X3233724Y-2633218D01*
X3221024Y-2638145D01*
X3209086Y-2644648D01*
X3198164Y-2652725D01*
X3188360Y-2662174D01*
X3179927Y-2672892D01*
X3173018Y-2684576D01*
X3167684Y-2697073D01*
X3164128Y-2710230D01*
X3162300Y-2723692D01*
X3162300Y-2737307D01*
X3164128Y-2750769D01*
X3167684Y-2763926D01*
X3173018Y-2776423D01*
X3179927Y-2788107D01*
X3188360Y-2798826D01*
X3198164Y-2808274D01*
X3209086Y-2816352D01*
X3221024Y-2822854D01*
X3233724Y-2827782D01*
X3246983Y-2830931D01*
G37*
G36*
X5800496Y-2832252D02*
G01*
X5814110Y-2831795D01*
X5827522Y-2829560D01*
X5840476Y-2825546D01*
X5852820Y-2819806D01*
X5864301Y-2812491D01*
X5874715Y-2803702D01*
X5883808Y-2793593D01*
X5891530Y-2782417D01*
X5897626Y-2770276D01*
X5902096Y-2757424D01*
X5904839Y-2744063D01*
X5905754Y-2730500D01*
X5904839Y-2716936D01*
X5902096Y-2703576D01*
X5897626Y-2690723D01*
X5891530Y-2678582D01*
X5883808Y-2667406D01*
X5874715Y-2657297D01*
X5864301Y-2648508D01*
X5852820Y-2641193D01*
X5840476Y-2635453D01*
X5827522Y-2631440D01*
X5814110Y-2629204D01*
X5800496Y-2628747D01*
X5786983Y-2630068D01*
X5773724Y-2633218D01*
X5761024Y-2638145D01*
X5749086Y-2644648D01*
X5738164Y-2652725D01*
X5728360Y-2662174D01*
X5719927Y-2672892D01*
X5713018Y-2684576D01*
X5707684Y-2697073D01*
X5704128Y-2710230D01*
X5702300Y-2723692D01*
X5702300Y-2737307D01*
X5704128Y-2750769D01*
X5707684Y-2763926D01*
X5713018Y-2776423D01*
X5719927Y-2788107D01*
X5728360Y-2798826D01*
X5738164Y-2808274D01*
X5749086Y-2816352D01*
X5761024Y-2822854D01*
X5773724Y-2827782D01*
X5786983Y-2830931D01*
G37*
G36*
X8899296Y-2819552D02*
G01*
X8912910Y-2819095D01*
X8926322Y-2816860D01*
X8939276Y-2812846D01*
X8951620Y-2807106D01*
X8963101Y-2799791D01*
X8973515Y-2791002D01*
X8982608Y-2780893D01*
X8990330Y-2769717D01*
X8996426Y-2757576D01*
X9000896Y-2744724D01*
X9003639Y-2731363D01*
X9004554Y-2717800D01*
X9003639Y-2704236D01*
X9000896Y-2690876D01*
X8996426Y-2678023D01*
X8990330Y-2665882D01*
X8982608Y-2654706D01*
X8973515Y-2644597D01*
X8963101Y-2635808D01*
X8951620Y-2628493D01*
X8939276Y-2622753D01*
X8926322Y-2618740D01*
X8912910Y-2616504D01*
X8899296Y-2616047D01*
X8885783Y-2617368D01*
X8872524Y-2620518D01*
X8859824Y-2625445D01*
X8847886Y-2631948D01*
X8836964Y-2640025D01*
X8827160Y-2649474D01*
X8818727Y-2660192D01*
X8811818Y-2671876D01*
X8806484Y-2684373D01*
X8802928Y-2697530D01*
X8801100Y-2710992D01*
X8801100Y-2724607D01*
X8802928Y-2738069D01*
X8806484Y-2751226D01*
X8811818Y-2763723D01*
X8818727Y-2775407D01*
X8827160Y-2786126D01*
X8836964Y-2795574D01*
X8847886Y-2803652D01*
X8859824Y-2810154D01*
X8872524Y-2815082D01*
X8885783Y-2818231D01*
G37*
G36*
X6359296Y-2819552D02*
G01*
X6372910Y-2819095D01*
X6386322Y-2816860D01*
X6399276Y-2812846D01*
X6411620Y-2807106D01*
X6423101Y-2799791D01*
X6433515Y-2791002D01*
X6442608Y-2780893D01*
X6450330Y-2769717D01*
X6456426Y-2757576D01*
X6460896Y-2744724D01*
X6463639Y-2731363D01*
X6464554Y-2717800D01*
X6463639Y-2704236D01*
X6460896Y-2690876D01*
X6456426Y-2678023D01*
X6450330Y-2665882D01*
X6442608Y-2654706D01*
X6433515Y-2644597D01*
X6423101Y-2635808D01*
X6411620Y-2628493D01*
X6399276Y-2622753D01*
X6386322Y-2618740D01*
X6372910Y-2616504D01*
X6359296Y-2616047D01*
X6345783Y-2617368D01*
X6332524Y-2620518D01*
X6319824Y-2625445D01*
X6307886Y-2631948D01*
X6296964Y-2640025D01*
X6287160Y-2649474D01*
X6278727Y-2660192D01*
X6271818Y-2671876D01*
X6266484Y-2684373D01*
X6262928Y-2697530D01*
X6261100Y-2710992D01*
X6261100Y-2724607D01*
X6262928Y-2738069D01*
X6266484Y-2751226D01*
X6271818Y-2763723D01*
X6278727Y-2775407D01*
X6287160Y-2786126D01*
X6296964Y-2795574D01*
X6307886Y-2803652D01*
X6319824Y-2810154D01*
X6332524Y-2815082D01*
X6345783Y-2818231D01*
G37*
G36*
X199796Y-2590952D02*
G01*
X213410Y-2590495D01*
X226821Y-2588260D01*
X239775Y-2584246D01*
X252120Y-2578506D01*
X263601Y-2571191D01*
X274015Y-2562402D01*
X283108Y-2552293D01*
X290830Y-2541117D01*
X296926Y-2528976D01*
X301396Y-2516124D01*
X304139Y-2502763D01*
X305054Y-2489200D01*
X304139Y-2475636D01*
X301396Y-2462276D01*
X296926Y-2449423D01*
X290830Y-2437282D01*
X283108Y-2426106D01*
X274015Y-2415997D01*
X263601Y-2407208D01*
X252120Y-2399893D01*
X239775Y-2394153D01*
X226821Y-2390140D01*
X213410Y-2387904D01*
X199796Y-2387447D01*
X186283Y-2388768D01*
X173024Y-2391918D01*
X160324Y-2396845D01*
X148386Y-2403348D01*
X137464Y-2411425D01*
X127660Y-2420874D01*
X119227Y-2431592D01*
X112318Y-2443276D01*
X106984Y-2455773D01*
X103428Y-2468930D01*
X101600Y-2482392D01*
X101600Y-2496007D01*
X103428Y-2509469D01*
X106984Y-2522626D01*
X112318Y-2535123D01*
X119227Y-2546807D01*
X127660Y-2557526D01*
X137464Y-2566974D01*
X148386Y-2575052D01*
X160324Y-2581554D01*
X173024Y-2586482D01*
X186283Y-2589631D01*
G37*
G36*
X11959996Y-2590952D02*
G01*
X11973610Y-2590495D01*
X11987022Y-2588260D01*
X11999976Y-2584246D01*
X12012320Y-2578506D01*
X12023801Y-2571191D01*
X12034215Y-2562402D01*
X12043308Y-2552293D01*
X12051030Y-2541117D01*
X12057126Y-2528976D01*
X12061596Y-2516124D01*
X12064339Y-2502763D01*
X12065254Y-2489200D01*
X12064339Y-2475636D01*
X12061596Y-2462276D01*
X12057126Y-2449423D01*
X12051030Y-2437282D01*
X12043308Y-2426106D01*
X12034215Y-2415997D01*
X12023801Y-2407208D01*
X12012320Y-2399893D01*
X11999976Y-2394153D01*
X11987022Y-2390140D01*
X11973610Y-2387904D01*
X11959996Y-2387447D01*
X11946483Y-2388768D01*
X11933224Y-2391918D01*
X11920524Y-2396845D01*
X11908586Y-2403348D01*
X11897664Y-2411425D01*
X11887860Y-2420874D01*
X11879427Y-2431592D01*
X11872518Y-2443276D01*
X11867184Y-2455773D01*
X11863628Y-2468930D01*
X11861800Y-2482392D01*
X11861800Y-2496007D01*
X11863628Y-2509469D01*
X11867184Y-2522626D01*
X11872518Y-2535123D01*
X11879427Y-2546807D01*
X11887860Y-2557526D01*
X11897664Y-2566974D01*
X11908586Y-2575052D01*
X11920524Y-2581554D01*
X11933224Y-2586482D01*
X11946483Y-2589631D01*
G37*
G36*
X9419996Y-2590952D02*
G01*
X9433610Y-2590495D01*
X9447022Y-2588260D01*
X9459976Y-2584246D01*
X9472320Y-2578506D01*
X9483801Y-2571191D01*
X9494215Y-2562402D01*
X9503308Y-2552293D01*
X9511030Y-2541117D01*
X9517126Y-2528976D01*
X9521596Y-2516124D01*
X9524339Y-2502763D01*
X9525254Y-2489200D01*
X9524339Y-2475636D01*
X9521596Y-2462276D01*
X9517126Y-2449423D01*
X9511030Y-2437282D01*
X9503308Y-2426106D01*
X9494215Y-2415997D01*
X9483801Y-2407208D01*
X9472320Y-2399893D01*
X9459976Y-2394153D01*
X9447022Y-2390140D01*
X9433610Y-2387904D01*
X9419996Y-2387447D01*
X9406483Y-2388768D01*
X9393224Y-2391918D01*
X9380524Y-2396845D01*
X9368586Y-2403348D01*
X9357664Y-2411425D01*
X9347860Y-2420874D01*
X9339427Y-2431592D01*
X9332518Y-2443276D01*
X9327184Y-2455773D01*
X9323628Y-2468930D01*
X9321800Y-2482392D01*
X9321800Y-2496007D01*
X9323628Y-2509469D01*
X9327184Y-2522626D01*
X9332518Y-2535123D01*
X9339427Y-2546807D01*
X9347860Y-2557526D01*
X9357664Y-2566974D01*
X9368586Y-2575052D01*
X9380524Y-2581554D01*
X9393224Y-2586482D01*
X9406483Y-2589631D01*
G37*
G36*
X2739796Y-2590952D02*
G01*
X2753410Y-2590495D01*
X2766822Y-2588260D01*
X2779776Y-2584246D01*
X2792120Y-2578506D01*
X2803601Y-2571191D01*
X2814015Y-2562402D01*
X2823108Y-2552293D01*
X2830830Y-2541117D01*
X2836926Y-2528976D01*
X2841396Y-2516124D01*
X2844139Y-2502763D01*
X2845054Y-2489200D01*
X2844139Y-2475636D01*
X2841396Y-2462276D01*
X2836926Y-2449423D01*
X2830830Y-2437282D01*
X2823108Y-2426106D01*
X2814015Y-2415997D01*
X2803601Y-2407208D01*
X2792120Y-2399893D01*
X2779776Y-2394153D01*
X2766822Y-2390140D01*
X2753410Y-2387904D01*
X2739796Y-2387447D01*
X2726283Y-2388768D01*
X2713024Y-2391918D01*
X2700324Y-2396845D01*
X2688386Y-2403348D01*
X2677464Y-2411425D01*
X2667660Y-2420874D01*
X2659227Y-2431592D01*
X2652318Y-2443276D01*
X2646984Y-2455773D01*
X2643428Y-2468930D01*
X2641600Y-2482392D01*
X2641600Y-2496007D01*
X2643428Y-2509469D01*
X2646984Y-2522626D01*
X2652318Y-2535123D01*
X2659227Y-2546807D01*
X2667660Y-2557526D01*
X2677464Y-2566974D01*
X2688386Y-2575052D01*
X2700324Y-2581554D01*
X2713024Y-2586482D01*
X2726283Y-2589631D01*
G37*
G36*
X3260496Y-2578252D02*
G01*
X3274110Y-2577795D01*
X3287522Y-2575560D01*
X3300476Y-2571546D01*
X3312820Y-2565806D01*
X3324301Y-2558491D01*
X3334715Y-2549702D01*
X3343808Y-2539593D01*
X3351529Y-2528417D01*
X3357626Y-2516276D01*
X3362096Y-2503424D01*
X3364839Y-2490063D01*
X3365754Y-2476500D01*
X3364839Y-2462936D01*
X3362096Y-2449576D01*
X3357626Y-2436723D01*
X3351529Y-2424582D01*
X3343808Y-2413406D01*
X3334715Y-2403297D01*
X3324301Y-2394508D01*
X3312820Y-2387193D01*
X3300476Y-2381453D01*
X3287522Y-2377440D01*
X3274110Y-2375204D01*
X3260496Y-2374747D01*
X3246983Y-2376068D01*
X3233724Y-2379218D01*
X3221024Y-2384145D01*
X3209086Y-2390648D01*
X3198164Y-2398725D01*
X3188360Y-2408174D01*
X3179927Y-2418892D01*
X3173018Y-2430576D01*
X3167684Y-2443073D01*
X3164128Y-2456230D01*
X3162300Y-2469692D01*
X3162300Y-2483307D01*
X3164128Y-2496769D01*
X3167684Y-2509926D01*
X3173018Y-2522423D01*
X3179927Y-2534107D01*
X3188360Y-2544826D01*
X3198164Y-2554274D01*
X3209086Y-2562352D01*
X3221024Y-2568854D01*
X3233724Y-2573782D01*
X3246983Y-2576931D01*
G37*
G36*
X5800496Y-2578252D02*
G01*
X5814110Y-2577795D01*
X5827522Y-2575560D01*
X5840476Y-2571546D01*
X5852820Y-2565806D01*
X5864301Y-2558491D01*
X5874715Y-2549702D01*
X5883808Y-2539593D01*
X5891530Y-2528417D01*
X5897626Y-2516276D01*
X5902096Y-2503424D01*
X5904839Y-2490063D01*
X5905754Y-2476500D01*
X5904839Y-2462936D01*
X5902096Y-2449576D01*
X5897626Y-2436723D01*
X5891530Y-2424582D01*
X5883808Y-2413406D01*
X5874715Y-2403297D01*
X5864301Y-2394508D01*
X5852820Y-2387193D01*
X5840476Y-2381453D01*
X5827522Y-2377440D01*
X5814110Y-2375204D01*
X5800496Y-2374747D01*
X5786983Y-2376068D01*
X5773724Y-2379218D01*
X5761024Y-2384145D01*
X5749086Y-2390648D01*
X5738164Y-2398725D01*
X5728360Y-2408174D01*
X5719927Y-2418892D01*
X5713018Y-2430576D01*
X5707684Y-2443073D01*
X5704128Y-2456230D01*
X5702300Y-2469692D01*
X5702300Y-2483307D01*
X5704128Y-2496769D01*
X5707684Y-2509926D01*
X5713018Y-2522423D01*
X5719927Y-2534107D01*
X5728360Y-2544826D01*
X5738164Y-2554274D01*
X5749086Y-2562352D01*
X5761024Y-2568854D01*
X5773724Y-2573782D01*
X5786983Y-2576931D01*
G37*
G36*
X8899296Y-2565552D02*
G01*
X8912910Y-2565095D01*
X8926322Y-2562860D01*
X8939276Y-2558846D01*
X8951620Y-2553106D01*
X8963101Y-2545791D01*
X8973515Y-2537002D01*
X8982608Y-2526893D01*
X8990330Y-2515717D01*
X8996426Y-2503576D01*
X9000896Y-2490724D01*
X9003639Y-2477363D01*
X9004554Y-2463800D01*
X9003639Y-2450236D01*
X9000896Y-2436876D01*
X8996426Y-2424023D01*
X8990330Y-2411882D01*
X8982608Y-2400706D01*
X8973515Y-2390597D01*
X8963101Y-2381808D01*
X8951620Y-2374493D01*
X8939276Y-2368753D01*
X8926322Y-2364740D01*
X8912910Y-2362504D01*
X8899296Y-2362047D01*
X8885783Y-2363368D01*
X8872524Y-2366518D01*
X8859824Y-2371445D01*
X8847886Y-2377948D01*
X8836964Y-2386025D01*
X8827160Y-2395474D01*
X8818727Y-2406192D01*
X8811818Y-2417876D01*
X8806484Y-2430373D01*
X8802928Y-2443530D01*
X8801100Y-2456992D01*
X8801100Y-2470607D01*
X8802928Y-2484069D01*
X8806484Y-2497226D01*
X8811818Y-2509723D01*
X8818727Y-2521407D01*
X8827160Y-2532126D01*
X8836964Y-2541574D01*
X8847886Y-2549652D01*
X8859824Y-2556154D01*
X8872524Y-2561082D01*
X8885783Y-2564231D01*
G37*
G36*
X6359296Y-2565552D02*
G01*
X6372910Y-2565095D01*
X6386322Y-2562860D01*
X6399276Y-2558846D01*
X6411620Y-2553106D01*
X6423101Y-2545791D01*
X6433515Y-2537002D01*
X6442608Y-2526893D01*
X6450330Y-2515717D01*
X6456426Y-2503576D01*
X6460896Y-2490724D01*
X6463639Y-2477363D01*
X6464554Y-2463800D01*
X6463639Y-2450236D01*
X6460896Y-2436876D01*
X6456426Y-2424023D01*
X6450330Y-2411882D01*
X6442608Y-2400706D01*
X6433515Y-2390597D01*
X6423101Y-2381808D01*
X6411620Y-2374493D01*
X6399276Y-2368753D01*
X6386322Y-2364740D01*
X6372910Y-2362504D01*
X6359296Y-2362047D01*
X6345783Y-2363368D01*
X6332524Y-2366518D01*
X6319824Y-2371445D01*
X6307886Y-2377948D01*
X6296964Y-2386025D01*
X6287160Y-2395474D01*
X6278727Y-2406192D01*
X6271818Y-2417876D01*
X6266484Y-2430373D01*
X6262928Y-2443530D01*
X6261100Y-2456992D01*
X6261100Y-2470607D01*
X6262928Y-2484069D01*
X6266484Y-2497226D01*
X6271818Y-2509723D01*
X6278727Y-2521407D01*
X6287160Y-2532126D01*
X6296964Y-2541574D01*
X6307886Y-2549652D01*
X6319824Y-2556154D01*
X6332524Y-2561082D01*
X6345783Y-2564231D01*
G37*
G36*
X199796Y-2336952D02*
G01*
X213410Y-2336495D01*
X226821Y-2334260D01*
X239775Y-2330246D01*
X252120Y-2324506D01*
X263601Y-2317191D01*
X274015Y-2308402D01*
X283108Y-2298293D01*
X290830Y-2287117D01*
X296926Y-2274976D01*
X301396Y-2262124D01*
X304139Y-2248763D01*
X305054Y-2235200D01*
X304139Y-2221636D01*
X301396Y-2208276D01*
X296926Y-2195423D01*
X290830Y-2183282D01*
X283108Y-2172106D01*
X274015Y-2161997D01*
X263601Y-2153208D01*
X252120Y-2145893D01*
X239775Y-2140153D01*
X226821Y-2136140D01*
X213410Y-2133904D01*
X199796Y-2133447D01*
X186283Y-2134768D01*
X173024Y-2137918D01*
X160324Y-2142845D01*
X148386Y-2149348D01*
X137464Y-2157425D01*
X127660Y-2166874D01*
X119227Y-2177592D01*
X112318Y-2189276D01*
X106984Y-2201773D01*
X103428Y-2214930D01*
X101600Y-2228392D01*
X101600Y-2242007D01*
X103428Y-2255469D01*
X106984Y-2268626D01*
X112318Y-2281123D01*
X119227Y-2292807D01*
X127660Y-2303526D01*
X137464Y-2312974D01*
X148386Y-2321052D01*
X160324Y-2327554D01*
X173024Y-2332482D01*
X186283Y-2335631D01*
G37*
G36*
X11959996Y-2336952D02*
G01*
X11973610Y-2336495D01*
X11987022Y-2334260D01*
X11999976Y-2330246D01*
X12012320Y-2324506D01*
X12023801Y-2317191D01*
X12034215Y-2308402D01*
X12043308Y-2298293D01*
X12051030Y-2287117D01*
X12057126Y-2274976D01*
X12061596Y-2262124D01*
X12064339Y-2248763D01*
X12065254Y-2235200D01*
X12064339Y-2221636D01*
X12061596Y-2208276D01*
X12057126Y-2195423D01*
X12051030Y-2183282D01*
X12043308Y-2172106D01*
X12034215Y-2161997D01*
X12023801Y-2153208D01*
X12012320Y-2145893D01*
X11999976Y-2140153D01*
X11987022Y-2136140D01*
X11973610Y-2133904D01*
X11959996Y-2133447D01*
X11946483Y-2134768D01*
X11933224Y-2137918D01*
X11920524Y-2142845D01*
X11908586Y-2149348D01*
X11897664Y-2157425D01*
X11887860Y-2166874D01*
X11879427Y-2177592D01*
X11872518Y-2189276D01*
X11867184Y-2201773D01*
X11863628Y-2214930D01*
X11861800Y-2228392D01*
X11861800Y-2242007D01*
X11863628Y-2255469D01*
X11867184Y-2268626D01*
X11872518Y-2281123D01*
X11879427Y-2292807D01*
X11887860Y-2303526D01*
X11897664Y-2312974D01*
X11908586Y-2321052D01*
X11920524Y-2327554D01*
X11933224Y-2332482D01*
X11946483Y-2335631D01*
G37*
G36*
X2739796Y-2336952D02*
G01*
X2753410Y-2336495D01*
X2766822Y-2334260D01*
X2779776Y-2330246D01*
X2792120Y-2324506D01*
X2803601Y-2317191D01*
X2814015Y-2308402D01*
X2823108Y-2298293D01*
X2830830Y-2287117D01*
X2836926Y-2274976D01*
X2841396Y-2262124D01*
X2844139Y-2248763D01*
X2845054Y-2235200D01*
X2844139Y-2221636D01*
X2841396Y-2208276D01*
X2836926Y-2195423D01*
X2830830Y-2183282D01*
X2823108Y-2172106D01*
X2814015Y-2161997D01*
X2803601Y-2153208D01*
X2792120Y-2145893D01*
X2779776Y-2140153D01*
X2766822Y-2136140D01*
X2753410Y-2133904D01*
X2739796Y-2133447D01*
X2726283Y-2134768D01*
X2713024Y-2137918D01*
X2700324Y-2142845D01*
X2688386Y-2149348D01*
X2677464Y-2157425D01*
X2667660Y-2166874D01*
X2659227Y-2177592D01*
X2652318Y-2189276D01*
X2646984Y-2201773D01*
X2643428Y-2214930D01*
X2641600Y-2228392D01*
X2641600Y-2242007D01*
X2643428Y-2255469D01*
X2646984Y-2268626D01*
X2652318Y-2281123D01*
X2659227Y-2292807D01*
X2667660Y-2303526D01*
X2677464Y-2312974D01*
X2688386Y-2321052D01*
X2700324Y-2327554D01*
X2713024Y-2332482D01*
X2726283Y-2335631D01*
G37*
G36*
X9419996Y-2336952D02*
G01*
X9433610Y-2336495D01*
X9447022Y-2334260D01*
X9459976Y-2330246D01*
X9472320Y-2324506D01*
X9483801Y-2317191D01*
X9494215Y-2308402D01*
X9503308Y-2298293D01*
X9511030Y-2287117D01*
X9517126Y-2274976D01*
X9521596Y-2262124D01*
X9524339Y-2248763D01*
X9525254Y-2235200D01*
X9524339Y-2221636D01*
X9521596Y-2208276D01*
X9517126Y-2195423D01*
X9511030Y-2183282D01*
X9503308Y-2172106D01*
X9494215Y-2161997D01*
X9483801Y-2153208D01*
X9472320Y-2145893D01*
X9459976Y-2140153D01*
X9447022Y-2136140D01*
X9433610Y-2133904D01*
X9419996Y-2133447D01*
X9406483Y-2134768D01*
X9393224Y-2137918D01*
X9380524Y-2142845D01*
X9368586Y-2149348D01*
X9357664Y-2157425D01*
X9347860Y-2166874D01*
X9339427Y-2177592D01*
X9332518Y-2189276D01*
X9327184Y-2201773D01*
X9323628Y-2214930D01*
X9321800Y-2228392D01*
X9321800Y-2242007D01*
X9323628Y-2255469D01*
X9327184Y-2268626D01*
X9332518Y-2281123D01*
X9339427Y-2292807D01*
X9347860Y-2303526D01*
X9357664Y-2312974D01*
X9368586Y-2321052D01*
X9380524Y-2327554D01*
X9393224Y-2332482D01*
X9406483Y-2335631D01*
G37*
G36*
X3260496Y-2324252D02*
G01*
X3274110Y-2323795D01*
X3287522Y-2321560D01*
X3300476Y-2317546D01*
X3312820Y-2311806D01*
X3324301Y-2304491D01*
X3334715Y-2295702D01*
X3343808Y-2285593D01*
X3351529Y-2274417D01*
X3357626Y-2262276D01*
X3362096Y-2249424D01*
X3364839Y-2236063D01*
X3365754Y-2222500D01*
X3364839Y-2208936D01*
X3362096Y-2195576D01*
X3357626Y-2182723D01*
X3351529Y-2170582D01*
X3343808Y-2159406D01*
X3334715Y-2149297D01*
X3324301Y-2140508D01*
X3312820Y-2133193D01*
X3300476Y-2127453D01*
X3287522Y-2123440D01*
X3274110Y-2121204D01*
X3260496Y-2120747D01*
X3246983Y-2122068D01*
X3233724Y-2125218D01*
X3221024Y-2130145D01*
X3209086Y-2136648D01*
X3198164Y-2144725D01*
X3188360Y-2154174D01*
X3179927Y-2164892D01*
X3173018Y-2176576D01*
X3167684Y-2189073D01*
X3164128Y-2202230D01*
X3162300Y-2215692D01*
X3162300Y-2229307D01*
X3164128Y-2242769D01*
X3167684Y-2255926D01*
X3173018Y-2268423D01*
X3179927Y-2280107D01*
X3188360Y-2290826D01*
X3198164Y-2300274D01*
X3209086Y-2308352D01*
X3221024Y-2314854D01*
X3233724Y-2319782D01*
X3246983Y-2322931D01*
G37*
G36*
X5800496Y-2324252D02*
G01*
X5814110Y-2323795D01*
X5827522Y-2321560D01*
X5840476Y-2317546D01*
X5852820Y-2311806D01*
X5864301Y-2304491D01*
X5874715Y-2295702D01*
X5883808Y-2285593D01*
X5891530Y-2274417D01*
X5897626Y-2262276D01*
X5902096Y-2249424D01*
X5904839Y-2236063D01*
X5905754Y-2222500D01*
X5904839Y-2208936D01*
X5902096Y-2195576D01*
X5897626Y-2182723D01*
X5891530Y-2170582D01*
X5883808Y-2159406D01*
X5874715Y-2149297D01*
X5864301Y-2140508D01*
X5852820Y-2133193D01*
X5840476Y-2127453D01*
X5827522Y-2123440D01*
X5814110Y-2121204D01*
X5800496Y-2120747D01*
X5786983Y-2122068D01*
X5773724Y-2125218D01*
X5761024Y-2130145D01*
X5749086Y-2136648D01*
X5738164Y-2144725D01*
X5728360Y-2154174D01*
X5719927Y-2164892D01*
X5713018Y-2176576D01*
X5707684Y-2189073D01*
X5704128Y-2202230D01*
X5702300Y-2215692D01*
X5702300Y-2229307D01*
X5704128Y-2242769D01*
X5707684Y-2255926D01*
X5713018Y-2268423D01*
X5719927Y-2280107D01*
X5728360Y-2290826D01*
X5738164Y-2300274D01*
X5749086Y-2308352D01*
X5761024Y-2314854D01*
X5773724Y-2319782D01*
X5786983Y-2322931D01*
G37*
G36*
X6359296Y-2311552D02*
G01*
X6372910Y-2311095D01*
X6386322Y-2308860D01*
X6399276Y-2304846D01*
X6411620Y-2299106D01*
X6423101Y-2291791D01*
X6433515Y-2283002D01*
X6442608Y-2272893D01*
X6450330Y-2261717D01*
X6456426Y-2249576D01*
X6460896Y-2236724D01*
X6463639Y-2223363D01*
X6464554Y-2209800D01*
X6463639Y-2196236D01*
X6460896Y-2182876D01*
X6456426Y-2170023D01*
X6450330Y-2157882D01*
X6442608Y-2146706D01*
X6433515Y-2136597D01*
X6423101Y-2127808D01*
X6411620Y-2120493D01*
X6399276Y-2114753D01*
X6386322Y-2110740D01*
X6372910Y-2108504D01*
X6359296Y-2108047D01*
X6345783Y-2109368D01*
X6332524Y-2112518D01*
X6319824Y-2117445D01*
X6307886Y-2123948D01*
X6296964Y-2132025D01*
X6287160Y-2141474D01*
X6278727Y-2152192D01*
X6271818Y-2163876D01*
X6266484Y-2176373D01*
X6262928Y-2189530D01*
X6261100Y-2202992D01*
X6261100Y-2216607D01*
X6262928Y-2230069D01*
X6266484Y-2243226D01*
X6271818Y-2255723D01*
X6278727Y-2267407D01*
X6287160Y-2278126D01*
X6296964Y-2287574D01*
X6307886Y-2295652D01*
X6319824Y-2302154D01*
X6332524Y-2307082D01*
X6345783Y-2310231D01*
G37*
G36*
X8899296Y-2311552D02*
G01*
X8912910Y-2311095D01*
X8926322Y-2308860D01*
X8939276Y-2304846D01*
X8951620Y-2299106D01*
X8963101Y-2291791D01*
X8973515Y-2283002D01*
X8982608Y-2272893D01*
X8990330Y-2261717D01*
X8996426Y-2249576D01*
X9000896Y-2236724D01*
X9003639Y-2223363D01*
X9004554Y-2209800D01*
X9003639Y-2196236D01*
X9000896Y-2182876D01*
X8996426Y-2170023D01*
X8990330Y-2157882D01*
X8982608Y-2146706D01*
X8973515Y-2136597D01*
X8963101Y-2127808D01*
X8951620Y-2120493D01*
X8939276Y-2114753D01*
X8926322Y-2110740D01*
X8912910Y-2108504D01*
X8899296Y-2108047D01*
X8885783Y-2109368D01*
X8872524Y-2112518D01*
X8859824Y-2117445D01*
X8847886Y-2123948D01*
X8836964Y-2132025D01*
X8827160Y-2141474D01*
X8818727Y-2152192D01*
X8811818Y-2163876D01*
X8806484Y-2176373D01*
X8802928Y-2189530D01*
X8801100Y-2202992D01*
X8801100Y-2216607D01*
X8802928Y-2230069D01*
X8806484Y-2243226D01*
X8811818Y-2255723D01*
X8818727Y-2267407D01*
X8827160Y-2278126D01*
X8836964Y-2287574D01*
X8847886Y-2295652D01*
X8859824Y-2302154D01*
X8872524Y-2307082D01*
X8885783Y-2310231D01*
G37*
G36*
X199796Y-2082952D02*
G01*
X213410Y-2082495D01*
X226821Y-2080260D01*
X239775Y-2076246D01*
X252120Y-2070506D01*
X263601Y-2063191D01*
X274015Y-2054402D01*
X283108Y-2044293D01*
X290830Y-2033117D01*
X296926Y-2020976D01*
X301396Y-2008124D01*
X304139Y-1994763D01*
X305054Y-1981200D01*
X304139Y-1967636D01*
X301396Y-1954275D01*
X296926Y-1941423D01*
X290830Y-1929282D01*
X283108Y-1918106D01*
X274015Y-1907997D01*
X263601Y-1899208D01*
X252120Y-1891893D01*
X239775Y-1886153D01*
X226821Y-1882139D01*
X213410Y-1879904D01*
X199796Y-1879447D01*
X186283Y-1880768D01*
X173024Y-1883918D01*
X160324Y-1888845D01*
X148386Y-1895348D01*
X137464Y-1903425D01*
X127660Y-1912874D01*
X119227Y-1923592D01*
X112318Y-1935276D01*
X106984Y-1947773D01*
X103428Y-1960930D01*
X101600Y-1974392D01*
X101600Y-1988007D01*
X103428Y-2001469D01*
X106984Y-2014626D01*
X112318Y-2027123D01*
X119227Y-2038807D01*
X127660Y-2049525D01*
X137464Y-2058974D01*
X148386Y-2067052D01*
X160324Y-2073554D01*
X173024Y-2078482D01*
X186283Y-2081631D01*
G37*
G36*
X2739796Y-2082952D02*
G01*
X2753410Y-2082495D01*
X2766822Y-2080260D01*
X2779776Y-2076246D01*
X2792120Y-2070506D01*
X2803601Y-2063191D01*
X2814015Y-2054402D01*
X2823108Y-2044293D01*
X2830830Y-2033117D01*
X2836926Y-2020976D01*
X2841396Y-2008124D01*
X2844139Y-1994763D01*
X2845054Y-1981200D01*
X2844139Y-1967636D01*
X2841396Y-1954275D01*
X2836926Y-1941423D01*
X2830830Y-1929282D01*
X2823108Y-1918106D01*
X2814015Y-1907997D01*
X2803601Y-1899208D01*
X2792120Y-1891893D01*
X2779776Y-1886153D01*
X2766822Y-1882139D01*
X2753410Y-1879904D01*
X2739796Y-1879447D01*
X2726283Y-1880768D01*
X2713024Y-1883918D01*
X2700324Y-1888845D01*
X2688386Y-1895348D01*
X2677464Y-1903425D01*
X2667660Y-1912874D01*
X2659227Y-1923592D01*
X2652318Y-1935276D01*
X2646984Y-1947773D01*
X2643428Y-1960930D01*
X2641600Y-1974392D01*
X2641600Y-1988007D01*
X2643428Y-2001469D01*
X2646984Y-2014626D01*
X2652318Y-2027123D01*
X2659227Y-2038807D01*
X2667660Y-2049525D01*
X2677464Y-2058974D01*
X2688386Y-2067052D01*
X2700324Y-2073554D01*
X2713024Y-2078482D01*
X2726283Y-2081631D01*
G37*
G36*
X11959996Y-2082952D02*
G01*
X11973610Y-2082495D01*
X11987022Y-2080260D01*
X11999976Y-2076246D01*
X12012320Y-2070506D01*
X12023801Y-2063191D01*
X12034215Y-2054402D01*
X12043308Y-2044293D01*
X12051030Y-2033117D01*
X12057126Y-2020976D01*
X12061596Y-2008124D01*
X12064339Y-1994763D01*
X12065254Y-1981200D01*
X12064339Y-1967636D01*
X12061596Y-1954275D01*
X12057126Y-1941423D01*
X12051030Y-1929282D01*
X12043308Y-1918106D01*
X12034215Y-1907997D01*
X12023801Y-1899208D01*
X12012320Y-1891893D01*
X11999976Y-1886153D01*
X11987022Y-1882139D01*
X11973610Y-1879904D01*
X11959996Y-1879447D01*
X11946483Y-1880768D01*
X11933224Y-1883918D01*
X11920524Y-1888845D01*
X11908586Y-1895348D01*
X11897664Y-1903425D01*
X11887860Y-1912874D01*
X11879427Y-1923592D01*
X11872518Y-1935276D01*
X11867184Y-1947773D01*
X11863628Y-1960930D01*
X11861800Y-1974392D01*
X11861800Y-1988007D01*
X11863628Y-2001469D01*
X11867184Y-2014626D01*
X11872518Y-2027123D01*
X11879427Y-2038807D01*
X11887860Y-2049525D01*
X11897664Y-2058974D01*
X11908586Y-2067052D01*
X11920524Y-2073554D01*
X11933224Y-2078482D01*
X11946483Y-2081631D01*
G37*
G36*
X9419996Y-2082952D02*
G01*
X9433610Y-2082495D01*
X9447022Y-2080260D01*
X9459976Y-2076246D01*
X9472320Y-2070506D01*
X9483801Y-2063191D01*
X9494215Y-2054402D01*
X9503308Y-2044293D01*
X9511030Y-2033117D01*
X9517126Y-2020976D01*
X9521596Y-2008124D01*
X9524339Y-1994763D01*
X9525254Y-1981200D01*
X9524339Y-1967636D01*
X9521596Y-1954275D01*
X9517126Y-1941423D01*
X9511030Y-1929282D01*
X9503308Y-1918106D01*
X9494215Y-1907997D01*
X9483801Y-1899208D01*
X9472320Y-1891893D01*
X9459976Y-1886153D01*
X9447022Y-1882139D01*
X9433610Y-1879904D01*
X9419996Y-1879447D01*
X9406483Y-1880768D01*
X9393224Y-1883918D01*
X9380524Y-1888845D01*
X9368586Y-1895348D01*
X9357664Y-1903425D01*
X9347860Y-1912874D01*
X9339427Y-1923592D01*
X9332518Y-1935276D01*
X9327184Y-1947773D01*
X9323628Y-1960930D01*
X9321800Y-1974392D01*
X9321800Y-1988007D01*
X9323628Y-2001469D01*
X9327184Y-2014626D01*
X9332518Y-2027123D01*
X9339427Y-2038807D01*
X9347860Y-2049525D01*
X9357664Y-2058974D01*
X9368586Y-2067052D01*
X9380524Y-2073554D01*
X9393224Y-2078482D01*
X9406483Y-2081631D01*
G37*
G36*
X5800496Y-2070252D02*
G01*
X5814110Y-2069795D01*
X5827522Y-2067560D01*
X5840476Y-2063546D01*
X5852820Y-2057806D01*
X5864301Y-2050491D01*
X5874715Y-2041702D01*
X5883808Y-2031593D01*
X5891530Y-2020417D01*
X5897626Y-2008276D01*
X5902096Y-1995424D01*
X5904839Y-1982063D01*
X5905754Y-1968500D01*
X5904839Y-1954936D01*
X5902096Y-1941575D01*
X5897626Y-1928723D01*
X5891530Y-1916582D01*
X5883808Y-1905406D01*
X5874715Y-1895297D01*
X5864301Y-1886508D01*
X5852820Y-1879193D01*
X5840476Y-1873453D01*
X5827522Y-1869439D01*
X5814110Y-1867204D01*
X5800496Y-1866747D01*
X5786983Y-1868068D01*
X5773724Y-1871218D01*
X5761024Y-1876145D01*
X5749086Y-1882648D01*
X5738164Y-1890725D01*
X5728360Y-1900174D01*
X5719927Y-1910892D01*
X5713018Y-1922576D01*
X5707684Y-1935073D01*
X5704128Y-1948230D01*
X5702300Y-1961692D01*
X5702300Y-1975307D01*
X5704128Y-1988769D01*
X5707684Y-2001926D01*
X5713018Y-2014423D01*
X5719927Y-2026107D01*
X5728360Y-2036825D01*
X5738164Y-2046274D01*
X5749086Y-2054352D01*
X5761024Y-2060854D01*
X5773724Y-2065782D01*
X5786983Y-2068931D01*
G37*
G36*
X3260496Y-2070252D02*
G01*
X3274110Y-2069795D01*
X3287522Y-2067560D01*
X3300476Y-2063546D01*
X3312820Y-2057806D01*
X3324301Y-2050491D01*
X3334715Y-2041702D01*
X3343808Y-2031593D01*
X3351529Y-2020417D01*
X3357626Y-2008276D01*
X3362096Y-1995424D01*
X3364839Y-1982063D01*
X3365754Y-1968500D01*
X3364839Y-1954936D01*
X3362096Y-1941575D01*
X3357626Y-1928723D01*
X3351529Y-1916582D01*
X3343808Y-1905406D01*
X3334715Y-1895297D01*
X3324301Y-1886508D01*
X3312820Y-1879193D01*
X3300476Y-1873453D01*
X3287522Y-1869439D01*
X3274110Y-1867204D01*
X3260496Y-1866747D01*
X3246983Y-1868068D01*
X3233724Y-1871218D01*
X3221024Y-1876145D01*
X3209086Y-1882648D01*
X3198164Y-1890725D01*
X3188360Y-1900174D01*
X3179927Y-1910892D01*
X3173018Y-1922576D01*
X3167684Y-1935073D01*
X3164128Y-1948230D01*
X3162300Y-1961692D01*
X3162300Y-1975307D01*
X3164128Y-1988769D01*
X3167684Y-2001926D01*
X3173018Y-2014423D01*
X3179927Y-2026107D01*
X3188360Y-2036825D01*
X3198164Y-2046274D01*
X3209086Y-2054352D01*
X3221024Y-2060854D01*
X3233724Y-2065782D01*
X3246983Y-2068931D01*
G37*
G36*
X6359296Y-2057552D02*
G01*
X6372910Y-2057095D01*
X6386322Y-2054860D01*
X6399276Y-2050846D01*
X6411620Y-2045106D01*
X6423101Y-2037791D01*
X6433515Y-2029002D01*
X6442608Y-2018893D01*
X6450330Y-2007717D01*
X6456426Y-1995576D01*
X6460896Y-1982724D01*
X6463639Y-1969363D01*
X6464554Y-1955800D01*
X6463639Y-1942236D01*
X6460896Y-1928875D01*
X6456426Y-1916023D01*
X6450330Y-1903882D01*
X6442608Y-1892706D01*
X6433515Y-1882597D01*
X6423101Y-1873808D01*
X6411620Y-1866493D01*
X6399276Y-1860753D01*
X6386322Y-1856739D01*
X6372910Y-1854504D01*
X6359296Y-1854047D01*
X6345783Y-1855368D01*
X6332524Y-1858518D01*
X6319824Y-1863445D01*
X6307886Y-1869948D01*
X6296964Y-1878025D01*
X6287160Y-1887474D01*
X6278727Y-1898192D01*
X6271818Y-1909876D01*
X6266484Y-1922373D01*
X6262928Y-1935530D01*
X6261100Y-1948992D01*
X6261100Y-1962607D01*
X6262928Y-1976069D01*
X6266484Y-1989226D01*
X6271818Y-2001723D01*
X6278727Y-2013407D01*
X6287160Y-2024125D01*
X6296964Y-2033574D01*
X6307886Y-2041652D01*
X6319824Y-2048154D01*
X6332524Y-2053082D01*
X6345783Y-2056231D01*
G37*
G36*
X8899296Y-2057552D02*
G01*
X8912910Y-2057095D01*
X8926322Y-2054860D01*
X8939276Y-2050846D01*
X8951620Y-2045106D01*
X8963101Y-2037791D01*
X8973515Y-2029002D01*
X8982608Y-2018893D01*
X8990330Y-2007717D01*
X8996426Y-1995576D01*
X9000896Y-1982724D01*
X9003639Y-1969363D01*
X9004554Y-1955800D01*
X9003639Y-1942236D01*
X9000896Y-1928875D01*
X8996426Y-1916023D01*
X8990330Y-1903882D01*
X8982608Y-1892706D01*
X8973515Y-1882597D01*
X8963101Y-1873808D01*
X8951620Y-1866493D01*
X8939276Y-1860753D01*
X8926322Y-1856739D01*
X8912910Y-1854504D01*
X8899296Y-1854047D01*
X8885783Y-1855368D01*
X8872524Y-1858518D01*
X8859824Y-1863445D01*
X8847886Y-1869948D01*
X8836964Y-1878025D01*
X8827160Y-1887474D01*
X8818727Y-1898192D01*
X8811818Y-1909876D01*
X8806484Y-1922373D01*
X8802928Y-1935530D01*
X8801100Y-1948992D01*
X8801100Y-1962607D01*
X8802928Y-1976069D01*
X8806484Y-1989226D01*
X8811818Y-2001723D01*
X8818727Y-2013407D01*
X8827160Y-2024125D01*
X8836964Y-2033574D01*
X8847886Y-2041652D01*
X8859824Y-2048154D01*
X8872524Y-2053082D01*
X8885783Y-2056231D01*
G37*
G36*
X199796Y-1828952D02*
G01*
X213410Y-1828495D01*
X226821Y-1826260D01*
X239775Y-1822246D01*
X252120Y-1816506D01*
X263601Y-1809191D01*
X274015Y-1800402D01*
X283108Y-1790293D01*
X290830Y-1779117D01*
X296926Y-1766976D01*
X301396Y-1754124D01*
X304139Y-1740763D01*
X305054Y-1727200D01*
X304139Y-1713636D01*
X301396Y-1700275D01*
X296926Y-1687423D01*
X290830Y-1675282D01*
X283108Y-1664106D01*
X274015Y-1653997D01*
X263601Y-1645208D01*
X252120Y-1637893D01*
X239775Y-1632153D01*
X226821Y-1628139D01*
X213410Y-1625904D01*
X199796Y-1625447D01*
X186283Y-1626768D01*
X173024Y-1629918D01*
X160324Y-1634845D01*
X148386Y-1641348D01*
X137464Y-1649425D01*
X127660Y-1658874D01*
X119227Y-1669592D01*
X112318Y-1681276D01*
X106984Y-1693773D01*
X103428Y-1706930D01*
X101600Y-1720392D01*
X101600Y-1734007D01*
X103428Y-1747469D01*
X106984Y-1760626D01*
X112318Y-1773123D01*
X119227Y-1784807D01*
X127660Y-1795525D01*
X137464Y-1804974D01*
X148386Y-1813052D01*
X160324Y-1819554D01*
X173024Y-1824482D01*
X186283Y-1827631D01*
G37*
G36*
X2739796Y-1828952D02*
G01*
X2753410Y-1828495D01*
X2766822Y-1826260D01*
X2779776Y-1822246D01*
X2792120Y-1816506D01*
X2803601Y-1809191D01*
X2814015Y-1800402D01*
X2823108Y-1790293D01*
X2830830Y-1779117D01*
X2836926Y-1766976D01*
X2841396Y-1754124D01*
X2844139Y-1740763D01*
X2845054Y-1727200D01*
X2844139Y-1713636D01*
X2841396Y-1700275D01*
X2836926Y-1687423D01*
X2830830Y-1675282D01*
X2823108Y-1664106D01*
X2814015Y-1653997D01*
X2803601Y-1645208D01*
X2792120Y-1637893D01*
X2779776Y-1632153D01*
X2766822Y-1628139D01*
X2753410Y-1625904D01*
X2739796Y-1625447D01*
X2726283Y-1626768D01*
X2713024Y-1629918D01*
X2700324Y-1634845D01*
X2688386Y-1641348D01*
X2677464Y-1649425D01*
X2667660Y-1658874D01*
X2659227Y-1669592D01*
X2652318Y-1681276D01*
X2646984Y-1693773D01*
X2643428Y-1706930D01*
X2641600Y-1720392D01*
X2641600Y-1734007D01*
X2643428Y-1747469D01*
X2646984Y-1760626D01*
X2652318Y-1773123D01*
X2659227Y-1784807D01*
X2667660Y-1795525D01*
X2677464Y-1804974D01*
X2688386Y-1813052D01*
X2700324Y-1819554D01*
X2713024Y-1824482D01*
X2726283Y-1827631D01*
G37*
G36*
X9419996Y-1828952D02*
G01*
X9433610Y-1828495D01*
X9447022Y-1826260D01*
X9459976Y-1822246D01*
X9472320Y-1816506D01*
X9483801Y-1809191D01*
X9494215Y-1800402D01*
X9503308Y-1790293D01*
X9511030Y-1779117D01*
X9517126Y-1766976D01*
X9521596Y-1754124D01*
X9524339Y-1740763D01*
X9525254Y-1727200D01*
X9524339Y-1713636D01*
X9521596Y-1700275D01*
X9517126Y-1687423D01*
X9511030Y-1675282D01*
X9503308Y-1664106D01*
X9494215Y-1653997D01*
X9483801Y-1645208D01*
X9472320Y-1637893D01*
X9459976Y-1632153D01*
X9447022Y-1628139D01*
X9433610Y-1625904D01*
X9419996Y-1625447D01*
X9406483Y-1626768D01*
X9393224Y-1629918D01*
X9380524Y-1634845D01*
X9368586Y-1641348D01*
X9357664Y-1649425D01*
X9347860Y-1658874D01*
X9339427Y-1669592D01*
X9332518Y-1681276D01*
X9327184Y-1693773D01*
X9323628Y-1706930D01*
X9321800Y-1720392D01*
X9321800Y-1734007D01*
X9323628Y-1747469D01*
X9327184Y-1760626D01*
X9332518Y-1773123D01*
X9339427Y-1784807D01*
X9347860Y-1795525D01*
X9357664Y-1804974D01*
X9368586Y-1813052D01*
X9380524Y-1819554D01*
X9393224Y-1824482D01*
X9406483Y-1827631D01*
G37*
G36*
X11959996Y-1828952D02*
G01*
X11973610Y-1828495D01*
X11987022Y-1826260D01*
X11999976Y-1822246D01*
X12012320Y-1816506D01*
X12023801Y-1809191D01*
X12034215Y-1800402D01*
X12043308Y-1790293D01*
X12051030Y-1779117D01*
X12057126Y-1766976D01*
X12061596Y-1754124D01*
X12064339Y-1740763D01*
X12065254Y-1727200D01*
X12064339Y-1713636D01*
X12061596Y-1700275D01*
X12057126Y-1687423D01*
X12051030Y-1675282D01*
X12043308Y-1664106D01*
X12034215Y-1653997D01*
X12023801Y-1645208D01*
X12012320Y-1637893D01*
X11999976Y-1632153D01*
X11987022Y-1628139D01*
X11973610Y-1625904D01*
X11959996Y-1625447D01*
X11946483Y-1626768D01*
X11933224Y-1629918D01*
X11920524Y-1634845D01*
X11908586Y-1641348D01*
X11897664Y-1649425D01*
X11887860Y-1658874D01*
X11879427Y-1669592D01*
X11872518Y-1681276D01*
X11867184Y-1693773D01*
X11863628Y-1706930D01*
X11861800Y-1720392D01*
X11861800Y-1734007D01*
X11863628Y-1747469D01*
X11867184Y-1760626D01*
X11872518Y-1773123D01*
X11879427Y-1784807D01*
X11887860Y-1795525D01*
X11897664Y-1804974D01*
X11908586Y-1813052D01*
X11920524Y-1819554D01*
X11933224Y-1824482D01*
X11946483Y-1827631D01*
G37*
G36*
X5800496Y-1816252D02*
G01*
X5814110Y-1815795D01*
X5827522Y-1813560D01*
X5840476Y-1809546D01*
X5852820Y-1803806D01*
X5864301Y-1796491D01*
X5874715Y-1787702D01*
X5883808Y-1777593D01*
X5891530Y-1766417D01*
X5897626Y-1754276D01*
X5902096Y-1741424D01*
X5904839Y-1728063D01*
X5905754Y-1714500D01*
X5904839Y-1700936D01*
X5902096Y-1687575D01*
X5897626Y-1674723D01*
X5891530Y-1662582D01*
X5883808Y-1651406D01*
X5874715Y-1641297D01*
X5864301Y-1632508D01*
X5852820Y-1625193D01*
X5840476Y-1619453D01*
X5827522Y-1615440D01*
X5814110Y-1613204D01*
X5800496Y-1612747D01*
X5786983Y-1614068D01*
X5773724Y-1617218D01*
X5761024Y-1622145D01*
X5749086Y-1628648D01*
X5738164Y-1636725D01*
X5728360Y-1646174D01*
X5719927Y-1656892D01*
X5713018Y-1668576D01*
X5707684Y-1681073D01*
X5704128Y-1694230D01*
X5702300Y-1707692D01*
X5702300Y-1721307D01*
X5704128Y-1734769D01*
X5707684Y-1747926D01*
X5713018Y-1760423D01*
X5719927Y-1772107D01*
X5728360Y-1782825D01*
X5738164Y-1792274D01*
X5749086Y-1800352D01*
X5761024Y-1806854D01*
X5773724Y-1811782D01*
X5786983Y-1814931D01*
G37*
G36*
X3260496Y-1816252D02*
G01*
X3274110Y-1815795D01*
X3287522Y-1813560D01*
X3300476Y-1809546D01*
X3312820Y-1803806D01*
X3324301Y-1796491D01*
X3334715Y-1787702D01*
X3343808Y-1777593D01*
X3351529Y-1766417D01*
X3357626Y-1754276D01*
X3362096Y-1741424D01*
X3364839Y-1728063D01*
X3365754Y-1714500D01*
X3364839Y-1700936D01*
X3362096Y-1687575D01*
X3357626Y-1674723D01*
X3351529Y-1662582D01*
X3343808Y-1651406D01*
X3334715Y-1641297D01*
X3324301Y-1632508D01*
X3312820Y-1625193D01*
X3300476Y-1619453D01*
X3287522Y-1615440D01*
X3274110Y-1613204D01*
X3260496Y-1612747D01*
X3246983Y-1614068D01*
X3233724Y-1617218D01*
X3221024Y-1622145D01*
X3209086Y-1628648D01*
X3198164Y-1636725D01*
X3188360Y-1646174D01*
X3179927Y-1656892D01*
X3173018Y-1668576D01*
X3167684Y-1681073D01*
X3164128Y-1694230D01*
X3162300Y-1707692D01*
X3162300Y-1721307D01*
X3164128Y-1734769D01*
X3167684Y-1747926D01*
X3173018Y-1760423D01*
X3179927Y-1772107D01*
X3188360Y-1782825D01*
X3198164Y-1792274D01*
X3209086Y-1800352D01*
X3221024Y-1806854D01*
X3233724Y-1811782D01*
X3246983Y-1814931D01*
G37*
G36*
X6359296Y-1803552D02*
G01*
X6372910Y-1803095D01*
X6386322Y-1800860D01*
X6399276Y-1796846D01*
X6411620Y-1791106D01*
X6423101Y-1783791D01*
X6433515Y-1775002D01*
X6442608Y-1764893D01*
X6450330Y-1753717D01*
X6456426Y-1741576D01*
X6460896Y-1728724D01*
X6463639Y-1715363D01*
X6464554Y-1701800D01*
X6463639Y-1688236D01*
X6460896Y-1674875D01*
X6456426Y-1662023D01*
X6450330Y-1649882D01*
X6442608Y-1638706D01*
X6433515Y-1628597D01*
X6423101Y-1619808D01*
X6411620Y-1612493D01*
X6399276Y-1606753D01*
X6386322Y-1602740D01*
X6372910Y-1600504D01*
X6359296Y-1600047D01*
X6345783Y-1601368D01*
X6332524Y-1604518D01*
X6319824Y-1609445D01*
X6307886Y-1615948D01*
X6296964Y-1624025D01*
X6287160Y-1633474D01*
X6278727Y-1644192D01*
X6271818Y-1655876D01*
X6266484Y-1668373D01*
X6262928Y-1681530D01*
X6261100Y-1694992D01*
X6261100Y-1708607D01*
X6262928Y-1722069D01*
X6266484Y-1735226D01*
X6271818Y-1747723D01*
X6278727Y-1759407D01*
X6287160Y-1770125D01*
X6296964Y-1779574D01*
X6307886Y-1787652D01*
X6319824Y-1794154D01*
X6332524Y-1799082D01*
X6345783Y-1802231D01*
G37*
G36*
X8899296Y-1803552D02*
G01*
X8912910Y-1803095D01*
X8926322Y-1800860D01*
X8939276Y-1796846D01*
X8951620Y-1791106D01*
X8963101Y-1783791D01*
X8973515Y-1775002D01*
X8982608Y-1764893D01*
X8990330Y-1753717D01*
X8996426Y-1741576D01*
X9000896Y-1728724D01*
X9003639Y-1715363D01*
X9004554Y-1701800D01*
X9003639Y-1688236D01*
X9000896Y-1674875D01*
X8996426Y-1662023D01*
X8990330Y-1649882D01*
X8982608Y-1638706D01*
X8973515Y-1628597D01*
X8963101Y-1619808D01*
X8951620Y-1612493D01*
X8939276Y-1606753D01*
X8926322Y-1602740D01*
X8912910Y-1600504D01*
X8899296Y-1600047D01*
X8885783Y-1601368D01*
X8872524Y-1604518D01*
X8859824Y-1609445D01*
X8847886Y-1615948D01*
X8836964Y-1624025D01*
X8827160Y-1633474D01*
X8818727Y-1644192D01*
X8811818Y-1655876D01*
X8806484Y-1668373D01*
X8802928Y-1681530D01*
X8801100Y-1694992D01*
X8801100Y-1708607D01*
X8802928Y-1722069D01*
X8806484Y-1735226D01*
X8811818Y-1747723D01*
X8818727Y-1759407D01*
X8827160Y-1770125D01*
X8836964Y-1779574D01*
X8847886Y-1787652D01*
X8859824Y-1794154D01*
X8872524Y-1799082D01*
X8885783Y-1802231D01*
G37*
G36*
X199796Y-1574952D02*
G01*
X213410Y-1574495D01*
X226821Y-1572260D01*
X239775Y-1568246D01*
X252120Y-1562506D01*
X263601Y-1555191D01*
X274015Y-1546402D01*
X283108Y-1536293D01*
X290830Y-1525117D01*
X296926Y-1512976D01*
X301396Y-1500124D01*
X304139Y-1486763D01*
X305054Y-1473200D01*
X304139Y-1459636D01*
X301396Y-1446276D01*
X296926Y-1433423D01*
X290830Y-1421282D01*
X283108Y-1410106D01*
X274015Y-1399997D01*
X263601Y-1391208D01*
X252120Y-1383893D01*
X239775Y-1378153D01*
X226821Y-1374140D01*
X213410Y-1371904D01*
X199796Y-1371447D01*
X186283Y-1372768D01*
X173024Y-1375918D01*
X160324Y-1380845D01*
X148386Y-1387348D01*
X137464Y-1395425D01*
X127660Y-1404874D01*
X119227Y-1415592D01*
X112318Y-1427276D01*
X106984Y-1439773D01*
X103428Y-1452930D01*
X101600Y-1466392D01*
X101600Y-1480007D01*
X103428Y-1493469D01*
X106984Y-1506626D01*
X112318Y-1519123D01*
X119227Y-1530807D01*
X127660Y-1541526D01*
X137464Y-1550974D01*
X148386Y-1559052D01*
X160324Y-1565554D01*
X173024Y-1570482D01*
X186283Y-1573631D01*
G37*
G36*
X2739796Y-1574952D02*
G01*
X2753410Y-1574495D01*
X2766822Y-1572260D01*
X2779776Y-1568246D01*
X2792120Y-1562506D01*
X2803601Y-1555191D01*
X2814015Y-1546402D01*
X2823108Y-1536293D01*
X2830830Y-1525117D01*
X2836926Y-1512976D01*
X2841396Y-1500124D01*
X2844139Y-1486763D01*
X2845054Y-1473200D01*
X2844139Y-1459636D01*
X2841396Y-1446276D01*
X2836926Y-1433423D01*
X2830830Y-1421282D01*
X2823108Y-1410106D01*
X2814015Y-1399997D01*
X2803601Y-1391208D01*
X2792120Y-1383893D01*
X2779776Y-1378153D01*
X2766822Y-1374140D01*
X2753410Y-1371904D01*
X2739796Y-1371447D01*
X2726283Y-1372768D01*
X2713024Y-1375918D01*
X2700324Y-1380845D01*
X2688386Y-1387348D01*
X2677464Y-1395425D01*
X2667660Y-1404874D01*
X2659227Y-1415592D01*
X2652318Y-1427276D01*
X2646984Y-1439773D01*
X2643428Y-1452930D01*
X2641600Y-1466392D01*
X2641600Y-1480007D01*
X2643428Y-1493469D01*
X2646984Y-1506626D01*
X2652318Y-1519123D01*
X2659227Y-1530807D01*
X2667660Y-1541526D01*
X2677464Y-1550974D01*
X2688386Y-1559052D01*
X2700324Y-1565554D01*
X2713024Y-1570482D01*
X2726283Y-1573631D01*
G37*
G36*
X9419996Y-1574952D02*
G01*
X9433610Y-1574495D01*
X9447022Y-1572260D01*
X9459976Y-1568246D01*
X9472320Y-1562506D01*
X9483801Y-1555191D01*
X9494215Y-1546402D01*
X9503308Y-1536293D01*
X9511030Y-1525117D01*
X9517126Y-1512976D01*
X9521596Y-1500124D01*
X9524339Y-1486763D01*
X9525254Y-1473200D01*
X9524339Y-1459636D01*
X9521596Y-1446276D01*
X9517126Y-1433423D01*
X9511030Y-1421282D01*
X9503308Y-1410106D01*
X9494215Y-1399997D01*
X9483801Y-1391208D01*
X9472320Y-1383893D01*
X9459976Y-1378153D01*
X9447022Y-1374140D01*
X9433610Y-1371904D01*
X9419996Y-1371447D01*
X9406483Y-1372768D01*
X9393224Y-1375918D01*
X9380524Y-1380845D01*
X9368586Y-1387348D01*
X9357664Y-1395425D01*
X9347860Y-1404874D01*
X9339427Y-1415592D01*
X9332518Y-1427276D01*
X9327184Y-1439773D01*
X9323628Y-1452930D01*
X9321800Y-1466392D01*
X9321800Y-1480007D01*
X9323628Y-1493469D01*
X9327184Y-1506626D01*
X9332518Y-1519123D01*
X9339427Y-1530807D01*
X9347860Y-1541526D01*
X9357664Y-1550974D01*
X9368586Y-1559052D01*
X9380524Y-1565554D01*
X9393224Y-1570482D01*
X9406483Y-1573631D01*
G37*
G36*
X11959996Y-1574952D02*
G01*
X11973610Y-1574495D01*
X11987022Y-1572260D01*
X11999976Y-1568246D01*
X12012320Y-1562506D01*
X12023801Y-1555191D01*
X12034215Y-1546402D01*
X12043308Y-1536293D01*
X12051030Y-1525117D01*
X12057126Y-1512976D01*
X12061596Y-1500124D01*
X12064339Y-1486763D01*
X12065254Y-1473200D01*
X12064339Y-1459636D01*
X12061596Y-1446276D01*
X12057126Y-1433423D01*
X12051030Y-1421282D01*
X12043308Y-1410106D01*
X12034215Y-1399997D01*
X12023801Y-1391208D01*
X12012320Y-1383893D01*
X11999976Y-1378153D01*
X11987022Y-1374140D01*
X11973610Y-1371904D01*
X11959996Y-1371447D01*
X11946483Y-1372768D01*
X11933224Y-1375918D01*
X11920524Y-1380845D01*
X11908586Y-1387348D01*
X11897664Y-1395425D01*
X11887860Y-1404874D01*
X11879427Y-1415592D01*
X11872518Y-1427276D01*
X11867184Y-1439773D01*
X11863628Y-1452930D01*
X11861800Y-1466392D01*
X11861800Y-1480007D01*
X11863628Y-1493469D01*
X11867184Y-1506626D01*
X11872518Y-1519123D01*
X11879427Y-1530807D01*
X11887860Y-1541526D01*
X11897664Y-1550974D01*
X11908586Y-1559052D01*
X11920524Y-1565554D01*
X11933224Y-1570482D01*
X11946483Y-1573631D01*
G37*
G36*
X5800496Y-1562252D02*
G01*
X5814110Y-1561795D01*
X5827522Y-1559560D01*
X5840476Y-1555546D01*
X5852820Y-1549806D01*
X5864301Y-1542491D01*
X5874715Y-1533702D01*
X5883808Y-1523593D01*
X5891530Y-1512417D01*
X5897626Y-1500276D01*
X5902096Y-1487424D01*
X5904839Y-1474063D01*
X5905754Y-1460500D01*
X5904839Y-1446936D01*
X5902096Y-1433576D01*
X5897626Y-1420723D01*
X5891530Y-1408582D01*
X5883808Y-1397406D01*
X5874715Y-1387297D01*
X5864301Y-1378508D01*
X5852820Y-1371193D01*
X5840476Y-1365453D01*
X5827522Y-1361440D01*
X5814110Y-1359204D01*
X5800496Y-1358747D01*
X5786983Y-1360068D01*
X5773724Y-1363218D01*
X5761024Y-1368145D01*
X5749086Y-1374648D01*
X5738164Y-1382725D01*
X5728360Y-1392174D01*
X5719927Y-1402892D01*
X5713018Y-1414576D01*
X5707684Y-1427073D01*
X5704128Y-1440230D01*
X5702300Y-1453692D01*
X5702300Y-1467307D01*
X5704128Y-1480769D01*
X5707684Y-1493926D01*
X5713018Y-1506423D01*
X5719927Y-1518107D01*
X5728360Y-1528826D01*
X5738164Y-1538274D01*
X5749086Y-1546352D01*
X5761024Y-1552854D01*
X5773724Y-1557782D01*
X5786983Y-1560931D01*
G37*
G36*
X3260496Y-1562252D02*
G01*
X3274110Y-1561795D01*
X3287522Y-1559560D01*
X3300476Y-1555546D01*
X3312820Y-1549806D01*
X3324301Y-1542491D01*
X3334715Y-1533702D01*
X3343808Y-1523593D01*
X3351529Y-1512417D01*
X3357626Y-1500276D01*
X3362096Y-1487424D01*
X3364839Y-1474063D01*
X3365754Y-1460500D01*
X3364839Y-1446936D01*
X3362096Y-1433576D01*
X3357626Y-1420723D01*
X3351529Y-1408582D01*
X3343808Y-1397406D01*
X3334715Y-1387297D01*
X3324301Y-1378508D01*
X3312820Y-1371193D01*
X3300476Y-1365453D01*
X3287522Y-1361440D01*
X3274110Y-1359204D01*
X3260496Y-1358747D01*
X3246983Y-1360068D01*
X3233724Y-1363218D01*
X3221024Y-1368145D01*
X3209086Y-1374648D01*
X3198164Y-1382725D01*
X3188360Y-1392174D01*
X3179927Y-1402892D01*
X3173018Y-1414576D01*
X3167684Y-1427073D01*
X3164128Y-1440230D01*
X3162300Y-1453692D01*
X3162300Y-1467307D01*
X3164128Y-1480769D01*
X3167684Y-1493926D01*
X3173018Y-1506423D01*
X3179927Y-1518107D01*
X3188360Y-1528826D01*
X3198164Y-1538274D01*
X3209086Y-1546352D01*
X3221024Y-1552854D01*
X3233724Y-1557782D01*
X3246983Y-1560931D01*
G37*
G36*
X8899296Y-1549552D02*
G01*
X8912910Y-1549095D01*
X8926322Y-1546860D01*
X8939276Y-1542846D01*
X8951620Y-1537106D01*
X8963101Y-1529791D01*
X8973515Y-1521002D01*
X8982608Y-1510893D01*
X8990330Y-1499717D01*
X8996426Y-1487576D01*
X9000896Y-1474724D01*
X9003639Y-1461363D01*
X9004554Y-1447800D01*
X9003639Y-1434236D01*
X9000896Y-1420876D01*
X8996426Y-1408023D01*
X8990330Y-1395882D01*
X8982608Y-1384706D01*
X8973515Y-1374597D01*
X8963101Y-1365808D01*
X8951620Y-1358493D01*
X8939276Y-1352753D01*
X8926322Y-1348740D01*
X8912910Y-1346504D01*
X8899296Y-1346047D01*
X8885783Y-1347368D01*
X8872524Y-1350518D01*
X8859824Y-1355445D01*
X8847886Y-1361948D01*
X8836964Y-1370025D01*
X8827160Y-1379474D01*
X8818727Y-1390192D01*
X8811818Y-1401876D01*
X8806484Y-1414373D01*
X8802928Y-1427530D01*
X8801100Y-1440992D01*
X8801100Y-1454607D01*
X8802928Y-1468069D01*
X8806484Y-1481226D01*
X8811818Y-1493723D01*
X8818727Y-1505407D01*
X8827160Y-1516126D01*
X8836964Y-1525574D01*
X8847886Y-1533652D01*
X8859824Y-1540154D01*
X8872524Y-1545082D01*
X8885783Y-1548231D01*
G37*
G36*
X6359296Y-1549552D02*
G01*
X6372910Y-1549095D01*
X6386322Y-1546860D01*
X6399276Y-1542846D01*
X6411620Y-1537106D01*
X6423101Y-1529791D01*
X6433515Y-1521002D01*
X6442608Y-1510893D01*
X6450330Y-1499717D01*
X6456426Y-1487576D01*
X6460896Y-1474724D01*
X6463639Y-1461363D01*
X6464554Y-1447800D01*
X6463639Y-1434236D01*
X6460896Y-1420876D01*
X6456426Y-1408023D01*
X6450330Y-1395882D01*
X6442608Y-1384706D01*
X6433515Y-1374597D01*
X6423101Y-1365808D01*
X6411620Y-1358493D01*
X6399276Y-1352753D01*
X6386322Y-1348740D01*
X6372910Y-1346504D01*
X6359296Y-1346047D01*
X6345783Y-1347368D01*
X6332524Y-1350518D01*
X6319824Y-1355445D01*
X6307886Y-1361948D01*
X6296964Y-1370025D01*
X6287160Y-1379474D01*
X6278727Y-1390192D01*
X6271818Y-1401876D01*
X6266484Y-1414373D01*
X6262928Y-1427530D01*
X6261100Y-1440992D01*
X6261100Y-1454607D01*
X6262928Y-1468069D01*
X6266484Y-1481226D01*
X6271818Y-1493723D01*
X6278727Y-1505407D01*
X6287160Y-1516126D01*
X6296964Y-1525574D01*
X6307886Y-1533652D01*
X6319824Y-1540154D01*
X6332524Y-1545082D01*
X6345783Y-1548231D01*
G37*
G36*
X199796Y-1320952D02*
G01*
X213410Y-1320495D01*
X226821Y-1318260D01*
X239775Y-1314246D01*
X252120Y-1308506D01*
X263601Y-1301191D01*
X274015Y-1292402D01*
X283108Y-1282293D01*
X290830Y-1271117D01*
X296926Y-1258976D01*
X301396Y-1246124D01*
X304139Y-1232763D01*
X305054Y-1219200D01*
X304139Y-1205636D01*
X301396Y-1192276D01*
X296926Y-1179423D01*
X290830Y-1167282D01*
X283108Y-1156106D01*
X274015Y-1145997D01*
X263601Y-1137208D01*
X252120Y-1129893D01*
X239775Y-1124153D01*
X226821Y-1120140D01*
X213410Y-1117904D01*
X199796Y-1117447D01*
X186283Y-1118768D01*
X173024Y-1121918D01*
X160324Y-1126845D01*
X148386Y-1133348D01*
X137464Y-1141425D01*
X127660Y-1150874D01*
X119227Y-1161592D01*
X112318Y-1173276D01*
X106984Y-1185773D01*
X103428Y-1198930D01*
X101600Y-1212392D01*
X101600Y-1226007D01*
X103428Y-1239469D01*
X106984Y-1252626D01*
X112318Y-1265123D01*
X119227Y-1276807D01*
X127660Y-1287526D01*
X137464Y-1296974D01*
X148386Y-1305052D01*
X160324Y-1311554D01*
X173024Y-1316482D01*
X186283Y-1319631D01*
G37*
G36*
X2739796Y-1320952D02*
G01*
X2753410Y-1320495D01*
X2766822Y-1318260D01*
X2779776Y-1314246D01*
X2792120Y-1308506D01*
X2803601Y-1301191D01*
X2814015Y-1292402D01*
X2823108Y-1282293D01*
X2830830Y-1271117D01*
X2836926Y-1258976D01*
X2841396Y-1246124D01*
X2844139Y-1232763D01*
X2845054Y-1219200D01*
X2844139Y-1205636D01*
X2841396Y-1192276D01*
X2836926Y-1179423D01*
X2830830Y-1167282D01*
X2823108Y-1156106D01*
X2814015Y-1145997D01*
X2803601Y-1137208D01*
X2792120Y-1129893D01*
X2779776Y-1124153D01*
X2766822Y-1120140D01*
X2753410Y-1117904D01*
X2739796Y-1117447D01*
X2726283Y-1118768D01*
X2713024Y-1121918D01*
X2700324Y-1126845D01*
X2688386Y-1133348D01*
X2677464Y-1141425D01*
X2667660Y-1150874D01*
X2659227Y-1161592D01*
X2652318Y-1173276D01*
X2646984Y-1185773D01*
X2643428Y-1198930D01*
X2641600Y-1212392D01*
X2641600Y-1226007D01*
X2643428Y-1239469D01*
X2646984Y-1252626D01*
X2652318Y-1265123D01*
X2659227Y-1276807D01*
X2667660Y-1287526D01*
X2677464Y-1296974D01*
X2688386Y-1305052D01*
X2700324Y-1311554D01*
X2713024Y-1316482D01*
X2726283Y-1319631D01*
G37*
G36*
X9419996Y-1320952D02*
G01*
X9433610Y-1320495D01*
X9447022Y-1318260D01*
X9459976Y-1314246D01*
X9472320Y-1308506D01*
X9483801Y-1301191D01*
X9494215Y-1292402D01*
X9503308Y-1282293D01*
X9511030Y-1271117D01*
X9517126Y-1258976D01*
X9521596Y-1246124D01*
X9524339Y-1232763D01*
X9525254Y-1219200D01*
X9524339Y-1205636D01*
X9521596Y-1192276D01*
X9517126Y-1179423D01*
X9511030Y-1167282D01*
X9503308Y-1156106D01*
X9494215Y-1145997D01*
X9483801Y-1137208D01*
X9472320Y-1129893D01*
X9459976Y-1124153D01*
X9447022Y-1120140D01*
X9433610Y-1117904D01*
X9419996Y-1117447D01*
X9406483Y-1118768D01*
X9393224Y-1121918D01*
X9380524Y-1126845D01*
X9368586Y-1133348D01*
X9357664Y-1141425D01*
X9347860Y-1150874D01*
X9339427Y-1161592D01*
X9332518Y-1173276D01*
X9327184Y-1185773D01*
X9323628Y-1198930D01*
X9321800Y-1212392D01*
X9321800Y-1226007D01*
X9323628Y-1239469D01*
X9327184Y-1252626D01*
X9332518Y-1265123D01*
X9339427Y-1276807D01*
X9347860Y-1287526D01*
X9357664Y-1296974D01*
X9368586Y-1305052D01*
X9380524Y-1311554D01*
X9393224Y-1316482D01*
X9406483Y-1319631D01*
G37*
G36*
X11959996Y-1320952D02*
G01*
X11973610Y-1320495D01*
X11987022Y-1318260D01*
X11999976Y-1314246D01*
X12012320Y-1308506D01*
X12023801Y-1301191D01*
X12034215Y-1292402D01*
X12043308Y-1282293D01*
X12051030Y-1271117D01*
X12057126Y-1258976D01*
X12061596Y-1246124D01*
X12064339Y-1232763D01*
X12065254Y-1219200D01*
X12064339Y-1205636D01*
X12061596Y-1192276D01*
X12057126Y-1179423D01*
X12051030Y-1167282D01*
X12043308Y-1156106D01*
X12034215Y-1145997D01*
X12023801Y-1137208D01*
X12012320Y-1129893D01*
X11999976Y-1124153D01*
X11987022Y-1120140D01*
X11973610Y-1117904D01*
X11959996Y-1117447D01*
X11946483Y-1118768D01*
X11933224Y-1121918D01*
X11920524Y-1126845D01*
X11908586Y-1133348D01*
X11897664Y-1141425D01*
X11887860Y-1150874D01*
X11879427Y-1161592D01*
X11872518Y-1173276D01*
X11867184Y-1185773D01*
X11863628Y-1198930D01*
X11861800Y-1212392D01*
X11861800Y-1226007D01*
X11863628Y-1239469D01*
X11867184Y-1252626D01*
X11872518Y-1265123D01*
X11879427Y-1276807D01*
X11887860Y-1287526D01*
X11897664Y-1296974D01*
X11908586Y-1305052D01*
X11920524Y-1311554D01*
X11933224Y-1316482D01*
X11946483Y-1319631D01*
G37*
G36*
X5800496Y-1308252D02*
G01*
X5814110Y-1307795D01*
X5827522Y-1305560D01*
X5840476Y-1301546D01*
X5852820Y-1295806D01*
X5864301Y-1288491D01*
X5874715Y-1279702D01*
X5883808Y-1269593D01*
X5891530Y-1258417D01*
X5897626Y-1246276D01*
X5902096Y-1233424D01*
X5904839Y-1220063D01*
X5905754Y-1206500D01*
X5904839Y-1192936D01*
X5902096Y-1179576D01*
X5897626Y-1166723D01*
X5891530Y-1154582D01*
X5883808Y-1143406D01*
X5874715Y-1133297D01*
X5864301Y-1124508D01*
X5852820Y-1117193D01*
X5840476Y-1111453D01*
X5827522Y-1107440D01*
X5814110Y-1105204D01*
X5800496Y-1104747D01*
X5786983Y-1106068D01*
X5773724Y-1109218D01*
X5761024Y-1114145D01*
X5749086Y-1120648D01*
X5738164Y-1128725D01*
X5728360Y-1138174D01*
X5719927Y-1148892D01*
X5713018Y-1160576D01*
X5707684Y-1173073D01*
X5704128Y-1186230D01*
X5702300Y-1199692D01*
X5702300Y-1213307D01*
X5704128Y-1226769D01*
X5707684Y-1239926D01*
X5713018Y-1252423D01*
X5719927Y-1264107D01*
X5728360Y-1274826D01*
X5738164Y-1284274D01*
X5749086Y-1292352D01*
X5761024Y-1298854D01*
X5773724Y-1303782D01*
X5786983Y-1306931D01*
G37*
G36*
X3260496Y-1308252D02*
G01*
X3274110Y-1307795D01*
X3287522Y-1305560D01*
X3300476Y-1301546D01*
X3312820Y-1295806D01*
X3324301Y-1288491D01*
X3334715Y-1279702D01*
X3343808Y-1269593D01*
X3351529Y-1258417D01*
X3357626Y-1246276D01*
X3362096Y-1233424D01*
X3364839Y-1220063D01*
X3365754Y-1206500D01*
X3364839Y-1192936D01*
X3362096Y-1179576D01*
X3357626Y-1166723D01*
X3351529Y-1154582D01*
X3343808Y-1143406D01*
X3334715Y-1133297D01*
X3324301Y-1124508D01*
X3312820Y-1117193D01*
X3300476Y-1111453D01*
X3287522Y-1107440D01*
X3274110Y-1105204D01*
X3260496Y-1104747D01*
X3246983Y-1106068D01*
X3233724Y-1109218D01*
X3221024Y-1114145D01*
X3209086Y-1120648D01*
X3198164Y-1128725D01*
X3188360Y-1138174D01*
X3179927Y-1148892D01*
X3173018Y-1160576D01*
X3167684Y-1173073D01*
X3164128Y-1186230D01*
X3162300Y-1199692D01*
X3162300Y-1213307D01*
X3164128Y-1226769D01*
X3167684Y-1239926D01*
X3173018Y-1252423D01*
X3179927Y-1264107D01*
X3188360Y-1274826D01*
X3198164Y-1284274D01*
X3209086Y-1292352D01*
X3221024Y-1298854D01*
X3233724Y-1303782D01*
X3246983Y-1306931D01*
G37*
G36*
X6359296Y-1295552D02*
G01*
X6372910Y-1295095D01*
X6386322Y-1292860D01*
X6399276Y-1288846D01*
X6411620Y-1283106D01*
X6423101Y-1275791D01*
X6433515Y-1267002D01*
X6442608Y-1256893D01*
X6450330Y-1245717D01*
X6456426Y-1233576D01*
X6460896Y-1220724D01*
X6463639Y-1207363D01*
X6464554Y-1193800D01*
X6463639Y-1180236D01*
X6460896Y-1166876D01*
X6456426Y-1154023D01*
X6450330Y-1141882D01*
X6442608Y-1130706D01*
X6433515Y-1120597D01*
X6423101Y-1111808D01*
X6411620Y-1104493D01*
X6399276Y-1098753D01*
X6386322Y-1094740D01*
X6372910Y-1092504D01*
X6359296Y-1092047D01*
X6345783Y-1093368D01*
X6332524Y-1096518D01*
X6319824Y-1101445D01*
X6307886Y-1107948D01*
X6296964Y-1116025D01*
X6287160Y-1125474D01*
X6278727Y-1136192D01*
X6271818Y-1147876D01*
X6266484Y-1160373D01*
X6262928Y-1173530D01*
X6261100Y-1186992D01*
X6261100Y-1200607D01*
X6262928Y-1214069D01*
X6266484Y-1227226D01*
X6271818Y-1239723D01*
X6278727Y-1251407D01*
X6287160Y-1262126D01*
X6296964Y-1271574D01*
X6307886Y-1279652D01*
X6319824Y-1286154D01*
X6332524Y-1291082D01*
X6345783Y-1294231D01*
G37*
G36*
X8899296Y-1295552D02*
G01*
X8912910Y-1295095D01*
X8926322Y-1292860D01*
X8939276Y-1288846D01*
X8951620Y-1283106D01*
X8963101Y-1275791D01*
X8973515Y-1267002D01*
X8982608Y-1256893D01*
X8990330Y-1245717D01*
X8996426Y-1233576D01*
X9000896Y-1220724D01*
X9003639Y-1207363D01*
X9004554Y-1193800D01*
X9003639Y-1180236D01*
X9000896Y-1166876D01*
X8996426Y-1154023D01*
X8990330Y-1141882D01*
X8982608Y-1130706D01*
X8973515Y-1120597D01*
X8963101Y-1111808D01*
X8951620Y-1104493D01*
X8939276Y-1098753D01*
X8926322Y-1094740D01*
X8912910Y-1092504D01*
X8899296Y-1092047D01*
X8885783Y-1093368D01*
X8872524Y-1096518D01*
X8859824Y-1101445D01*
X8847886Y-1107948D01*
X8836964Y-1116025D01*
X8827160Y-1125474D01*
X8818727Y-1136192D01*
X8811818Y-1147876D01*
X8806484Y-1160373D01*
X8802928Y-1173530D01*
X8801100Y-1186992D01*
X8801100Y-1200607D01*
X8802928Y-1214069D01*
X8806484Y-1227226D01*
X8811818Y-1239723D01*
X8818727Y-1251407D01*
X8827160Y-1262126D01*
X8836964Y-1271574D01*
X8847886Y-1279652D01*
X8859824Y-1286154D01*
X8872524Y-1291082D01*
X8885783Y-1294231D01*
G37*
G36*
X296672Y-494690D02*
G01*
X314858Y-493268D01*
X332790Y-490016D01*
X350316Y-484885D01*
X367233Y-478028D01*
X383336Y-469442D01*
X398475Y-459282D01*
X412496Y-447598D01*
X425246Y-434492D01*
X436575Y-420217D01*
X446328Y-404774D01*
X454507Y-388467D01*
X460959Y-371398D01*
X465582Y-353771D01*
X468376Y-335737D01*
X469341Y-317500D01*
X468376Y-299262D01*
X465582Y-281228D01*
X460959Y-263601D01*
X454507Y-246532D01*
X446328Y-230225D01*
X436575Y-214782D01*
X425246Y-200507D01*
X412496Y-187401D01*
X398475Y-175717D01*
X383336Y-165557D01*
X367233Y-156972D01*
X350316Y-150114D01*
X332790Y-144983D01*
X314858Y-141732D01*
X296672Y-140309D01*
X278434Y-140766D01*
X260299Y-143154D01*
X242570Y-147320D01*
X225348Y-153314D01*
X208788Y-161036D01*
X193141Y-170434D01*
X178562Y-181406D01*
X165150Y-193802D01*
X153111Y-207517D01*
X142544Y-222351D01*
X133553Y-238252D01*
X126237Y-254965D01*
X120700Y-272338D01*
X116992Y-290220D01*
X115112Y-308356D01*
X115112Y-326644D01*
X116992Y-344779D01*
X120700Y-362661D01*
X126237Y-380034D01*
X133553Y-396748D01*
X142544Y-412648D01*
X153111Y-427482D01*
X165150Y-441198D01*
X178562Y-453593D01*
X193141Y-464566D01*
X208788Y-473964D01*
X225348Y-481685D01*
X242570Y-487680D01*
X260299Y-491845D01*
X278434Y-494233D01*
G37*
G36*
X11904472Y-481990D02*
G01*
X11922658Y-480568D01*
X11940590Y-477316D01*
X11958116Y-472185D01*
X11975033Y-465328D01*
X11991136Y-456742D01*
X12006275Y-446582D01*
X12020296Y-434898D01*
X12033046Y-421792D01*
X12044375Y-407517D01*
X12054128Y-392074D01*
X12062307Y-375767D01*
X12068759Y-358698D01*
X12073382Y-341071D01*
X12076176Y-323037D01*
X12077141Y-304800D01*
X12076176Y-286562D01*
X12073382Y-268528D01*
X12068759Y-250901D01*
X12062307Y-233832D01*
X12054128Y-217525D01*
X12044375Y-202082D01*
X12033046Y-187807D01*
X12020296Y-174701D01*
X12006275Y-163017D01*
X11991136Y-152857D01*
X11975033Y-144272D01*
X11958116Y-137414D01*
X11940590Y-132283D01*
X11922658Y-129032D01*
X11904472Y-127609D01*
X11886234Y-128066D01*
X11868099Y-130454D01*
X11850370Y-134620D01*
X11833148Y-140614D01*
X11816588Y-148336D01*
X11800941Y-157734D01*
X11786362Y-168706D01*
X11772950Y-181102D01*
X11760911Y-194818D01*
X11750344Y-209651D01*
X11741353Y-225552D01*
X11734038Y-242265D01*
X11728500Y-259638D01*
X11724792Y-277520D01*
X11722912Y-295656D01*
X11722912Y-313944D01*
X11724792Y-332079D01*
X11728500Y-349961D01*
X11734038Y-367334D01*
X11741353Y-384048D01*
X11750344Y-399948D01*
X11760911Y-414782D01*
X11772950Y-428498D01*
X11786362Y-440893D01*
X11800941Y-451866D01*
X11816588Y-461264D01*
X11833148Y-468985D01*
X11850370Y-474980D01*
X11868099Y-479145D01*
X11886234Y-481533D01*
G37*

%LPD*%
D11*
G01*
X203200Y-1219200D03*
G01*
X203200Y-1473200D03*
G01*
X203200Y-1727200D03*
G01*
X203200Y-1981200D03*
G01*
X203200Y-2235200D03*
G01*
X203200Y-2489200D03*
G01*
X203200Y-2743200D03*
G01*
X203200Y-2997200D03*
G01*
X203200Y-3251200D03*
G01*
X203200Y-3505200D03*
G01*
X203200Y-3759200D03*
G01*
X203200Y-4013200D03*
G01*
X203200Y-4267200D03*
G01*
X203200Y-4521200D03*
G01*
X203200Y-4775200D03*
G01*
X2743200Y-1219200D03*
G01*
X2743200Y-1473200D03*
G01*
X2743200Y-1727200D03*
G01*
X2743200Y-1981200D03*
G01*
X2743200Y-2235200D03*
G01*
X2743200Y-2489200D03*
G01*
X2743200Y-2743200D03*
G01*
X2743200Y-2997200D03*
G01*
X2743200Y-3251200D03*
G01*
X2743200Y-3505200D03*
G01*
X2743200Y-3759200D03*
G01*
X2743200Y-4013200D03*
G01*
X2743200Y-4267200D03*
G01*
X2743200Y-4521200D03*
G01*
X2743200Y-4775200D03*
G01*
X3263900Y-1206500D03*
G01*
X3263900Y-1460500D03*
G01*
X3263900Y-1714500D03*
G01*
X3263900Y-1968500D03*
G01*
X3263900Y-2222500D03*
G01*
X3263900Y-2476500D03*
G01*
X3263900Y-2730500D03*
G01*
X3263900Y-2984500D03*
G01*
X3263900Y-3238500D03*
G01*
X3263900Y-3492500D03*
G01*
X3263900Y-3746500D03*
G01*
X3263900Y-4000500D03*
G01*
X3263900Y-4254500D03*
G01*
X3263900Y-4508500D03*
G01*
X3263900Y-4762500D03*
G01*
X5803900Y-1206500D03*
G01*
X5803900Y-1460500D03*
G01*
X5803900Y-1714500D03*
G01*
X5803900Y-1968500D03*
G01*
X5803900Y-2222500D03*
G01*
X5803900Y-2476500D03*
G01*
X5803900Y-2730500D03*
G01*
X5803900Y-2984500D03*
G01*
X5803900Y-3238500D03*
G01*
X5803900Y-3492500D03*
G01*
X5803900Y-3746500D03*
G01*
X5803900Y-4000500D03*
G01*
X5803900Y-4254500D03*
G01*
X5803900Y-4508500D03*
G01*
X5803900Y-4762500D03*
G01*
X6362700Y-1193800D03*
G01*
X6362700Y-1447800D03*
G01*
X6362700Y-1701800D03*
G01*
X6362700Y-1955800D03*
G01*
X6362700Y-2209800D03*
G01*
X6362700Y-2463800D03*
G01*
X6362700Y-2717800D03*
G01*
X6362700Y-2971800D03*
G01*
X6362700Y-3225800D03*
G01*
X6362700Y-3479800D03*
G01*
X6362700Y-3733800D03*
G01*
X6362700Y-3987800D03*
G01*
X6362700Y-4241800D03*
G01*
X6362700Y-4495800D03*
G01*
X6362700Y-4749800D03*
G01*
X8902700Y-1193800D03*
G01*
X8902700Y-1447800D03*
G01*
X8902700Y-1701800D03*
G01*
X8902700Y-1955800D03*
G01*
X8902700Y-2209800D03*
G01*
X8902700Y-2463800D03*
G01*
X8902700Y-2717800D03*
G01*
X8902700Y-2971800D03*
G01*
X8902700Y-3225800D03*
G01*
X8902700Y-3479800D03*
G01*
X8902700Y-3733800D03*
G01*
X8902700Y-3987800D03*
G01*
X8902700Y-4241800D03*
G01*
X8902700Y-4495800D03*
G01*
X8902700Y-4749800D03*
G01*
X9423400Y-1219200D03*
G01*
X9423400Y-1473200D03*
G01*
X9423400Y-1727200D03*
G01*
X9423400Y-1981200D03*
G01*
X9423400Y-2235200D03*
G01*
X9423400Y-2489200D03*
G01*
X9423400Y-2743200D03*
G01*
X9423400Y-2997200D03*
G01*
X9423400Y-3251200D03*
G01*
X9423400Y-3505200D03*
G01*
X9423400Y-3759200D03*
G01*
X9423400Y-4013200D03*
G01*
X9423400Y-4267200D03*
G01*
X9423400Y-4521200D03*
G01*
X9423400Y-4775200D03*
G01*
X11963400Y-1219200D03*
G01*
X11963400Y-1473200D03*
G01*
X11963400Y-1727200D03*
G01*
X11963400Y-1981200D03*
G01*
X11963400Y-2235200D03*
G01*
X11963400Y-2489200D03*
G01*
X11963400Y-2743200D03*
G01*
X11963400Y-2997200D03*
G01*
X11963400Y-3251200D03*
G01*
X11963400Y-3505200D03*
G01*
X11963400Y-3759200D03*
G01*
X11963400Y-4013200D03*
G01*
X11963400Y-4267200D03*
G01*
X11963400Y-4521200D03*
G01*
X11963400Y-4775200D03*
D12*
X4609233Y-4907000D02*
G01*
X4369234Y-4907000D01*
X4379234Y-5506999D02*
G01*
X4599233Y-5506999D01*
X4959565Y-5317025D02*
G01*
X4959565Y-5097025D01*
M02*
